<svg width="1080" height="1080" viewBox="0 0 1080 1080" fill="none" xmlns="http://www.w3.org/2000/svg">
<rect width="1080" height="1080" fill="white"/>
<path d="M321.165 525V493.898H345.839C347.499 493.898 348.993 494.23 350.321 494.894C351.649 495.527 352.705 496.418 353.49 497.565C354.275 498.712 354.667 500.055 354.667 501.594C354.667 502.831 354.426 503.933 353.943 504.899C353.49 505.865 352.856 506.665 352.041 507.298C351.256 507.932 350.381 508.4 349.415 508.702V508.883C350.562 509.124 351.588 509.577 352.494 510.241C353.43 510.905 354.154 511.765 354.667 512.822C355.21 513.848 355.482 515.07 355.482 516.489C355.482 518.36 355.044 519.929 354.169 521.197C353.324 522.465 352.177 523.415 350.728 524.049C349.28 524.683 347.665 525 345.884 525H321.165ZM328.997 518.933H343.801C344.888 518.933 345.763 518.662 346.427 518.119C347.121 517.545 347.469 516.67 347.469 515.493C347.469 514.829 347.318 514.24 347.016 513.727C346.744 513.214 346.322 512.822 345.748 512.55C345.175 512.248 344.465 512.097 343.62 512.097H328.997V518.933ZM328.997 506.302H343.032C343.817 506.302 344.465 506.167 344.979 505.895C345.522 505.623 345.929 505.246 346.201 504.763C346.503 504.25 346.654 503.692 346.654 503.088C346.654 502.032 346.337 501.232 345.703 500.689C345.069 500.145 344.239 499.874 343.213 499.874H328.997V506.302ZM375.462 525.543C371.327 525.543 367.735 524.909 364.687 523.642C361.669 522.374 359.345 520.548 357.715 518.164C356.085 515.749 355.27 512.837 355.27 509.426C355.27 506.016 356.085 503.118 357.715 500.734C359.345 498.319 361.669 496.493 364.687 495.256C367.735 493.988 371.327 493.354 375.462 493.354C379.627 493.354 383.218 493.988 386.237 495.256C389.255 496.493 391.579 498.319 393.209 500.734C394.838 503.118 395.653 506.016 395.653 509.426C395.653 512.837 394.838 515.749 393.209 518.164C391.579 520.548 389.255 522.374 386.237 523.642C383.218 524.909 379.627 525.543 375.462 525.543ZM375.462 519.341C377.242 519.341 378.872 519.145 380.351 518.752C381.83 518.33 383.113 517.726 384.199 516.941C385.286 516.157 386.116 515.176 386.689 513.999C387.293 512.791 387.595 511.433 387.595 509.924V508.883C387.595 507.374 387.293 506.031 386.689 504.854C386.116 503.677 385.286 502.696 384.199 501.911C383.113 501.126 381.83 500.538 380.351 500.145C378.872 499.723 377.242 499.511 375.462 499.511C373.681 499.511 372.051 499.723 370.572 500.145C369.093 500.538 367.811 501.126 366.724 501.911C365.637 502.696 364.792 503.677 364.189 504.854C363.615 506.031 363.329 507.374 363.329 508.883V509.924C363.329 511.433 363.615 512.791 364.189 513.999C364.792 515.176 365.637 516.157 366.724 516.941C367.811 517.726 369.093 518.33 370.572 518.752C372.051 519.145 373.681 519.341 375.462 519.341ZM397.176 525V493.898H409.354L415.737 508.883C415.979 509.396 416.251 510.075 416.552 510.92C416.884 511.765 417.216 512.656 417.548 513.591C417.911 514.527 418.227 515.357 418.499 516.081H418.816C419.057 515.417 419.344 514.648 419.676 513.772C420.008 512.897 420.34 512.022 420.672 511.147C421.004 510.271 421.291 509.532 421.532 508.928L427.961 493.898H439.823V525H432.036V507.163C432.036 506.589 432.036 505.955 432.036 505.261C432.066 504.567 432.096 503.888 432.126 503.224C432.156 502.56 432.172 501.971 432.172 501.458H431.809C431.658 501.971 431.447 502.575 431.175 503.269C430.934 503.963 430.693 504.657 430.451 505.352C430.21 506.046 429.983 506.649 429.772 507.163L422.076 525H414.651L406.955 507.163C406.653 506.468 406.366 505.774 406.094 505.08C405.823 504.356 405.581 503.677 405.37 503.043C405.189 502.409 405.023 501.881 404.872 501.458H404.51C404.54 501.851 404.555 502.364 404.555 502.997C404.585 503.631 404.6 504.31 404.6 505.035C404.631 505.759 404.646 506.468 404.646 507.163V525H397.176ZM321.165 562V530.898H345.839C347.499 530.898 348.993 531.23 350.321 531.894C351.649 532.527 352.705 533.418 353.49 534.565C354.275 535.712 354.667 537.055 354.667 538.594C354.667 539.831 354.426 540.933 353.943 541.899C353.49 542.865 352.856 543.665 352.041 544.298C351.256 544.932 350.381 545.4 349.415 545.702V545.883C350.562 546.124 351.588 546.577 352.494 547.241C353.43 547.905 354.154 548.765 354.667 549.822C355.21 550.848 355.482 552.07 355.482 553.489C355.482 555.36 355.044 556.929 354.169 558.197C353.324 559.465 352.177 560.415 350.728 561.049C349.28 561.683 347.665 562 345.884 562H321.165ZM328.997 555.933H343.801C344.888 555.933 345.763 555.662 346.427 555.119C347.121 554.545 347.469 553.67 347.469 552.493C347.469 551.829 347.318 551.24 347.016 550.727C346.744 550.214 346.322 549.822 345.748 549.55C345.175 549.248 344.465 549.097 343.62 549.097H328.997V555.933ZM328.997 543.302H343.032C343.817 543.302 344.465 543.167 344.979 542.895C345.522 542.623 345.929 542.246 346.201 541.763C346.503 541.25 346.654 540.692 346.654 540.088C346.654 539.032 346.337 538.232 345.703 537.689C345.069 537.145 344.239 536.874 343.213 536.874H328.997V543.302ZM353.414 562L368.852 530.898H377.635L393.073 562H384.562L381.845 556.386H364.143L361.427 562H353.414ZM366.996 550.365H378.993L375.688 543.257C375.567 542.955 375.371 542.503 375.099 541.899C374.828 541.295 374.556 540.677 374.285 540.043C374.043 539.409 373.817 538.835 373.605 538.322C373.394 537.809 373.258 537.492 373.198 537.372H372.836C372.594 537.975 372.308 538.654 371.976 539.409C371.644 540.163 371.327 540.903 371.025 541.627C370.753 542.321 370.512 542.88 370.301 543.302L366.996 550.365ZM399.223 562V549.505L383.966 530.898H393.292L403.117 543.348H403.569L413.484 530.898H422.358L407.055 549.505V562H399.223Z" fill="black"/>
<path d="M281.555 509.258C280.609 509.258 279.784 509.086 279.082 508.742C278.393 508.383 277.82 507.874 277.361 507.215C276.916 506.555 276.587 505.745 276.371 504.784C276.156 503.823 276.049 502.726 276.049 501.493C276.049 500.274 276.156 499.184 276.371 498.223C276.587 497.248 276.916 496.431 277.361 495.771C277.82 495.112 278.393 494.61 279.082 494.266C279.784 493.907 280.609 493.728 281.555 493.728C282.502 493.728 283.319 493.907 284.008 494.266C284.71 494.61 285.284 495.112 285.728 495.771C286.187 496.431 286.524 497.248 286.739 498.223C286.954 499.184 287.062 500.274 287.062 501.493C287.062 502.726 286.954 503.823 286.739 504.784C286.524 505.745 286.187 506.555 285.728 507.215C285.284 507.874 284.71 508.383 284.008 508.742C283.319 509.086 282.502 509.258 281.555 509.258ZM281.555 507.279C282.645 507.279 283.42 506.878 283.878 506.075C284.352 505.257 284.588 504.16 284.588 502.784V500.202C284.588 498.826 284.352 497.736 283.878 496.933C283.42 496.116 282.645 495.707 281.555 495.707C281.01 495.707 280.544 495.814 280.157 496.029C279.77 496.23 279.455 496.531 279.211 496.933C278.967 497.32 278.788 497.793 278.673 498.353C278.573 498.897 278.522 499.514 278.522 500.202V502.784C278.522 503.472 278.573 504.096 278.673 504.655C278.788 505.2 278.967 505.673 279.211 506.075C279.455 506.462 279.77 506.763 280.157 506.978C280.544 507.179 281.01 507.279 281.555 507.279ZM281.555 502.762C281.054 502.762 280.702 502.662 280.501 502.461C280.315 502.26 280.222 502.016 280.222 501.73V501.256C280.222 500.97 280.315 500.726 280.501 500.525C280.702 500.324 281.054 500.224 281.555 500.224C282.057 500.224 282.401 500.324 282.588 500.525C282.789 500.726 282.889 500.97 282.889 501.256V501.73C282.889 502.016 282.789 502.26 282.588 502.461C282.401 502.662 282.057 502.762 281.555 502.762ZM299.723 509H289.355V506.698L294.259 502.418C295.034 501.73 295.629 501.077 296.045 500.461C296.475 499.844 296.69 499.191 296.69 498.503V498.267C296.69 497.478 296.475 496.876 296.045 496.46C295.615 496.029 294.991 495.814 294.173 495.814C293.342 495.814 292.696 496.037 292.237 496.481C291.793 496.926 291.47 497.492 291.27 498.18L289.162 497.385C289.305 496.911 289.513 496.46 289.785 496.029C290.058 495.585 290.402 495.191 290.818 494.846C291.248 494.502 291.75 494.23 292.324 494.029C292.911 493.828 293.585 493.728 294.345 493.728C295.12 493.728 295.808 493.843 296.41 494.072C297.027 494.287 297.543 494.588 297.959 494.975C298.375 495.363 298.69 495.829 298.906 496.374C299.121 496.904 299.228 497.492 299.228 498.137C299.228 498.74 299.135 499.299 298.949 499.815C298.777 500.317 298.526 500.805 298.196 501.278C297.88 501.737 297.5 502.181 297.056 502.612C296.611 503.042 296.124 503.472 295.593 503.902L291.958 506.957H299.723V509Z" fill="black"/>
<path d="M281.555 562.258C280.609 562.258 279.784 562.086 279.082 561.742C278.393 561.383 277.82 560.874 277.361 560.215C276.916 559.555 276.587 558.745 276.371 557.784C276.156 556.823 276.049 555.726 276.049 554.493C276.049 553.274 276.156 552.184 276.371 551.223C276.587 550.248 276.916 549.431 277.361 548.771C277.82 548.112 278.393 547.61 279.082 547.266C279.784 546.907 280.609 546.728 281.555 546.728C282.502 546.728 283.319 546.907 284.008 547.266C284.71 547.61 285.284 548.112 285.728 548.771C286.187 549.431 286.524 550.248 286.739 551.223C286.954 552.184 287.062 553.274 287.062 554.493C287.062 555.726 286.954 556.823 286.739 557.784C286.524 558.745 286.187 559.555 285.728 560.215C285.284 560.874 284.71 561.383 284.008 561.742C283.319 562.086 282.502 562.258 281.555 562.258ZM281.555 560.279C282.645 560.279 283.42 559.878 283.878 559.075C284.352 558.257 284.588 557.16 284.588 555.784V553.202C284.588 551.826 284.352 550.736 283.878 549.933C283.42 549.116 282.645 548.707 281.555 548.707C281.01 548.707 280.544 548.814 280.157 549.029C279.77 549.23 279.455 549.531 279.211 549.933C278.967 550.32 278.788 550.793 278.673 551.353C278.573 551.897 278.522 552.514 278.522 553.202V555.784C278.522 556.472 278.573 557.096 278.673 557.655C278.788 558.2 278.967 558.673 279.211 559.075C279.455 559.462 279.77 559.763 280.157 559.978C280.544 560.179 281.01 560.279 281.555 560.279ZM281.555 555.762C281.054 555.762 280.702 555.662 280.501 555.461C280.315 555.26 280.222 555.016 280.222 554.73V554.256C280.222 553.97 280.315 553.726 280.501 553.525C280.702 553.324 281.054 553.224 281.555 553.224C282.057 553.224 282.401 553.324 282.588 553.525C282.789 553.726 282.889 553.97 282.889 554.256V554.73C282.889 555.016 282.789 555.26 282.588 555.461C282.401 555.662 282.057 555.762 281.555 555.762ZM298.992 549.072H292.173L291.786 554.407H291.958C292.302 553.819 292.718 553.353 293.205 553.009C293.693 552.65 294.36 552.471 295.206 552.471C295.851 552.471 296.446 552.579 296.991 552.794C297.55 553.009 298.031 553.317 298.432 553.719C298.848 554.12 299.171 554.615 299.4 555.203C299.644 555.776 299.766 556.429 299.766 557.16C299.766 557.906 299.644 558.594 299.4 559.225C299.157 559.842 298.805 560.38 298.346 560.838C297.887 561.283 297.321 561.634 296.647 561.892C295.973 562.136 295.206 562.258 294.345 562.258C293.671 562.258 293.069 562.179 292.539 562.022C292.022 561.878 291.556 561.685 291.14 561.441C290.739 561.183 290.388 560.896 290.086 560.58C289.785 560.251 289.52 559.914 289.291 559.569L291.054 558.193C291.241 558.48 291.434 558.752 291.635 559.01C291.85 559.254 292.087 559.469 292.345 559.655C292.603 559.842 292.897 559.985 293.227 560.086C293.571 560.186 293.958 560.236 294.388 560.236C295.321 560.236 296.03 559.985 296.518 559.483C297.006 558.967 297.249 558.272 297.249 557.397V557.225C297.249 556.35 296.998 555.669 296.496 555.181C296.009 554.694 295.306 554.45 294.388 554.45C293.714 554.45 293.184 554.572 292.797 554.816C292.41 555.059 292.073 555.332 291.786 555.633L289.785 555.353L290.345 546.986H298.992V549.072Z" fill="black"/>
<line x1="277" y1="527.5" x2="299" y2="527.5" stroke="black" stroke-width="3"/>
<path d="M443.43 473V470.432H448.842V455.99H448.621L444.148 460.767L442.243 459.055L447.158 453.726H451.935V470.432H456.601V473H443.43ZM465.841 473.331C464.7 473.331 463.696 473.193 462.831 472.917C461.966 472.623 461.239 472.227 460.65 471.73C460.061 471.233 459.61 470.644 459.297 469.963C459.002 469.281 458.855 468.536 458.855 467.726C458.855 466.437 459.214 465.406 459.932 464.633C460.65 463.86 461.589 463.317 462.748 463.004V462.783C461.754 462.433 460.953 461.881 460.346 461.126C459.739 460.372 459.435 459.442 459.435 458.337C459.435 456.846 459.987 455.65 461.092 454.748C462.214 453.846 463.798 453.395 465.841 453.395C467.884 453.395 469.458 453.846 470.563 454.748C471.686 455.65 472.247 456.846 472.247 458.337C472.247 459.442 471.943 460.372 471.336 461.126C470.729 461.881 469.928 462.433 468.934 462.783V463.004C470.093 463.317 471.032 463.86 471.75 464.633C472.468 465.406 472.827 466.437 472.827 467.726C472.827 468.536 472.671 469.281 472.358 469.963C472.063 470.644 471.621 471.233 471.032 471.73C470.443 472.227 469.716 472.623 468.851 472.917C467.986 473.193 466.982 473.331 465.841 473.331ZM465.841 470.874C467.056 470.874 467.986 470.607 468.63 470.073C469.293 469.539 469.624 468.784 469.624 467.809V467.229C469.624 466.253 469.293 465.498 468.63 464.965C467.986 464.431 467.056 464.164 465.841 464.164C464.626 464.164 463.687 464.431 463.024 464.965C462.38 465.498 462.058 466.253 462.058 467.229V467.809C462.058 468.784 462.38 469.539 463.024 470.073C463.687 470.607 464.626 470.874 465.841 470.874ZM465.841 461.789C466.946 461.789 467.783 461.55 468.354 461.071C468.943 460.574 469.237 459.884 469.237 459V458.641C469.237 457.758 468.943 457.076 468.354 456.598C467.783 456.101 466.946 455.852 465.841 455.852C464.736 455.852 463.89 456.101 463.301 456.598C462.73 457.076 462.445 457.758 462.445 458.641V459C462.445 459.884 462.73 460.574 463.301 461.071C463.89 461.55 464.736 461.789 465.841 461.789ZM482.398 473.276C481.514 473.276 480.889 473.092 480.52 472.724C480.171 472.356 479.996 471.905 479.996 471.371V470.653C479.996 470.119 480.171 469.668 480.52 469.3C480.889 468.932 481.514 468.748 482.398 468.748C483.282 468.748 483.898 468.932 484.248 469.3C484.616 469.668 484.8 470.119 484.8 470.653V471.371C484.8 471.905 484.616 472.356 484.248 472.724C483.898 473.092 483.282 473.276 482.398 473.276ZM505.776 460.905C505.776 462.305 505.564 463.621 505.14 464.854C504.717 466.088 504.165 467.22 503.484 468.251C502.803 469.281 502.048 470.202 501.219 471.012C500.391 471.822 499.572 472.485 498.762 473H494.62C495.724 472.208 496.718 471.444 497.602 470.708C498.486 469.972 499.25 469.217 499.894 468.444C500.557 467.671 501.109 466.861 501.551 466.014C501.993 465.149 502.333 464.191 502.572 463.142L502.379 463.087C502.177 463.473 501.937 463.842 501.661 464.191C501.385 464.523 501.063 464.817 500.695 465.075C500.327 465.333 499.903 465.535 499.425 465.683C498.946 465.83 498.403 465.903 497.795 465.903C496.967 465.903 496.203 465.765 495.503 465.489C494.804 465.213 494.196 464.817 493.681 464.302C493.166 463.768 492.761 463.133 492.466 462.397C492.19 461.66 492.052 460.832 492.052 459.911C492.052 458.954 492.208 458.08 492.521 457.288C492.853 456.478 493.313 455.788 493.902 455.217C494.509 454.646 495.237 454.205 496.083 453.892C496.93 453.56 497.869 453.395 498.9 453.395C499.968 453.395 500.925 453.57 501.772 453.919C502.637 454.269 503.364 454.775 503.953 455.438C504.542 456.082 504.993 456.865 505.306 457.785C505.619 458.706 505.776 459.746 505.776 460.905ZM498.928 463.446C500.087 463.446 500.989 463.133 501.634 462.507C502.278 461.863 502.6 460.961 502.6 459.801V459.525C502.6 458.365 502.278 457.472 501.634 456.846C500.989 456.202 500.087 455.88 498.928 455.88C497.749 455.88 496.838 456.202 496.194 456.846C495.55 457.472 495.227 458.365 495.227 459.525V459.801C495.227 460.961 495.55 461.863 496.194 462.507C496.838 463.133 497.749 463.446 498.928 463.446ZM521.339 456.405H512.585L512.088 463.253H512.309C512.751 462.498 513.285 461.9 513.911 461.458C514.537 460.998 515.393 460.767 516.479 460.767C517.307 460.767 518.071 460.905 518.771 461.182C519.488 461.458 520.105 461.854 520.621 462.369C521.154 462.884 521.569 463.52 521.863 464.274C522.176 465.011 522.333 465.848 522.333 466.787C522.333 467.744 522.176 468.628 521.863 469.438C521.55 470.229 521.099 470.92 520.51 471.509C519.921 472.08 519.194 472.531 518.329 472.862C517.464 473.175 516.479 473.331 515.374 473.331C514.509 473.331 513.736 473.23 513.055 473.028C512.392 472.844 511.794 472.595 511.26 472.282C510.744 471.951 510.293 471.583 509.907 471.178C509.52 470.754 509.18 470.322 508.885 469.88L511.149 468.112C511.389 468.481 511.637 468.83 511.895 469.162C512.171 469.475 512.475 469.751 512.806 469.99C513.137 470.229 513.515 470.414 513.938 470.542C514.38 470.671 514.877 470.736 515.429 470.736C516.626 470.736 517.537 470.414 518.163 469.769C518.789 469.107 519.102 468.214 519.102 467.091V466.87C519.102 465.747 518.78 464.873 518.135 464.247C517.51 463.621 516.608 463.308 515.429 463.308C514.564 463.308 513.883 463.464 513.386 463.777C512.889 464.09 512.456 464.44 512.088 464.827L509.52 464.468L510.238 453.726H521.339V456.405ZM532.069 473.331C530.928 473.331 529.925 473.193 529.059 472.917C528.194 472.623 527.467 472.227 526.878 471.73C526.289 471.233 525.838 470.644 525.525 469.963C525.23 469.281 525.083 468.536 525.083 467.726C525.083 466.437 525.442 465.406 526.16 464.633C526.878 463.86 527.817 463.317 528.977 463.004V462.783C527.983 462.433 527.182 461.881 526.574 461.126C525.967 460.372 525.663 459.442 525.663 458.337C525.663 456.846 526.215 455.65 527.32 454.748C528.443 453.846 530.026 453.395 532.069 453.395C534.113 453.395 535.687 453.846 536.791 454.748C537.914 455.65 538.475 456.846 538.475 458.337C538.475 459.442 538.172 460.372 537.564 461.126C536.957 461.881 536.156 462.433 535.162 462.783V463.004C536.322 463.317 537.261 463.86 537.978 464.633C538.696 465.406 539.055 466.437 539.055 467.726C539.055 468.536 538.899 469.281 538.586 469.963C538.291 470.644 537.85 471.233 537.261 471.73C536.671 472.227 535.944 472.623 535.079 472.917C534.214 473.193 533.211 473.331 532.069 473.331ZM532.069 470.874C533.284 470.874 534.214 470.607 534.858 470.073C535.521 469.539 535.852 468.784 535.852 467.809V467.229C535.852 466.253 535.521 465.498 534.858 464.965C534.214 464.431 533.284 464.164 532.069 464.164C530.854 464.164 529.915 464.431 529.253 464.965C528.608 465.498 528.286 466.253 528.286 467.229V467.809C528.286 468.784 528.608 469.539 529.253 470.073C529.915 470.607 530.854 470.874 532.069 470.874ZM532.069 461.789C533.174 461.789 534.011 461.55 534.582 461.071C535.171 460.574 535.466 459.884 535.466 459V458.641C535.466 457.758 535.171 457.076 534.582 456.598C534.011 456.101 533.174 455.852 532.069 455.852C530.965 455.852 530.118 456.101 529.529 456.598C528.958 457.076 528.673 457.758 528.673 458.641V459C528.673 459.884 528.958 460.574 529.529 461.071C530.118 461.55 530.965 461.789 532.069 461.789ZM555.392 473H542.082V470.045L548.378 464.55C549.372 463.667 550.136 462.829 550.67 462.038C551.222 461.246 551.498 460.408 551.498 459.525V459.221C551.498 458.209 551.222 457.435 550.67 456.902C550.117 456.349 549.317 456.073 548.267 456.073C547.2 456.073 546.371 456.359 545.782 456.929C545.212 457.5 544.797 458.227 544.54 459.111L541.833 458.089C542.018 457.481 542.285 456.902 542.634 456.349C542.984 455.779 543.426 455.272 543.96 454.831C544.512 454.389 545.156 454.039 545.893 453.781C546.647 453.524 547.513 453.395 548.488 453.395C549.482 453.395 550.366 453.542 551.139 453.837C551.931 454.113 552.593 454.499 553.127 454.996C553.661 455.493 554.066 456.092 554.342 456.791C554.618 457.472 554.756 458.227 554.756 459.055C554.756 459.829 554.637 460.546 554.397 461.209C554.177 461.854 553.854 462.479 553.431 463.087C553.026 463.676 552.538 464.247 551.968 464.799C551.397 465.351 550.771 465.903 550.09 466.456L545.423 470.377H555.392V473ZM565.183 463.225C564.484 463.225 563.83 463.105 563.223 462.866C562.634 462.608 562.118 462.259 561.677 461.817C561.235 461.375 560.885 460.859 560.627 460.27C560.388 459.663 560.268 459.009 560.268 458.31C560.268 457.61 560.388 456.966 560.627 456.377C560.885 455.769 561.235 455.245 561.677 454.803C562.118 454.361 562.634 454.021 563.223 453.781C563.83 453.524 564.484 453.395 565.183 453.395C565.865 453.395 566.5 453.524 567.089 453.781C567.696 454.021 568.221 454.361 568.663 454.803C569.104 455.245 569.454 455.769 569.712 456.377C569.97 456.966 570.099 457.61 570.099 458.31C570.099 459.009 569.97 459.663 569.712 460.27C569.454 460.859 569.104 461.375 568.663 461.817C568.221 462.259 567.696 462.608 567.089 462.866C566.5 463.105 565.865 463.225 565.183 463.225ZM565.183 461.099C565.975 461.099 566.61 460.832 567.089 460.298C567.567 459.764 567.807 459.101 567.807 458.31C567.807 457.518 567.567 456.856 567.089 456.322C566.61 455.788 565.975 455.521 565.183 455.521C564.392 455.521 563.757 455.788 563.278 456.322C562.799 456.856 562.56 457.518 562.56 458.31C562.56 459.101 562.799 459.764 563.278 460.298C563.757 460.832 564.392 461.099 565.183 461.099ZM594.956 458.172H594.708V473H592.002V453.726H595.978L601.639 468.554H601.887V453.726H604.593V473H600.617L594.956 458.172ZM613.308 468.803H617.588L614.164 477.004H611.817L613.308 468.803ZM644.351 473L651.503 456.294H643.992V459.856H641.314V453.726H654.596V456.432L647.637 473H644.351ZM671.291 473H657.981V470.045L664.277 464.55C665.271 463.667 666.035 462.829 666.569 462.038C667.121 461.246 667.398 460.408 667.398 459.525V459.221C667.398 458.209 667.121 457.435 666.569 456.902C666.017 456.349 665.216 456.073 664.167 456.073C663.099 456.073 662.271 456.359 661.682 456.929C661.111 457.5 660.697 458.227 660.439 459.111L657.733 458.089C657.917 457.481 658.184 456.902 658.534 456.349C658.884 455.779 659.325 455.272 659.859 454.831C660.411 454.389 661.056 454.039 661.792 453.781C662.547 453.524 663.412 453.395 664.388 453.395C665.382 453.395 666.265 453.542 667.039 453.837C667.83 454.113 668.493 454.499 669.027 454.996C669.561 455.493 669.966 456.092 670.242 456.791C670.518 457.472 670.656 458.227 670.656 459.055C670.656 459.829 670.536 460.546 670.297 461.209C670.076 461.854 669.754 462.479 669.33 463.087C668.925 463.676 668.438 464.247 667.867 464.799C667.296 465.351 666.67 465.903 665.989 466.456L661.323 470.377H671.291V473ZM681.083 473.276C680.199 473.276 679.573 473.092 679.205 472.724C678.855 472.356 678.681 471.905 678.681 471.371V470.653C678.681 470.119 678.855 469.668 679.205 469.3C679.573 468.932 680.199 468.748 681.083 468.748C681.966 468.748 682.583 468.932 682.933 469.3C683.301 469.668 683.485 470.119 683.485 470.653V471.371C683.485 471.905 683.301 472.356 682.933 472.724C682.583 473.092 681.966 473.276 681.083 473.276ZM697.64 473.331C696.499 473.331 695.495 473.193 694.63 472.917C693.765 472.623 693.038 472.227 692.449 471.73C691.86 471.233 691.409 470.644 691.096 469.963C690.801 469.281 690.654 468.536 690.654 467.726C690.654 466.437 691.013 465.406 691.731 464.633C692.449 463.86 693.387 463.317 694.547 463.004V462.783C693.553 462.433 692.752 461.881 692.145 461.126C691.537 460.372 691.234 459.442 691.234 458.337C691.234 456.846 691.786 455.65 692.89 454.748C694.013 453.846 695.597 453.395 697.64 453.395C699.683 453.395 701.257 453.846 702.362 454.748C703.485 455.65 704.046 456.846 704.046 458.337C704.046 459.442 703.742 460.372 703.135 461.126C702.527 461.881 701.727 462.433 700.733 462.783V463.004C701.892 463.317 702.831 463.86 703.549 464.633C704.267 465.406 704.626 466.437 704.626 467.726C704.626 468.536 704.47 469.281 704.157 469.963C703.862 470.644 703.42 471.233 702.831 471.73C702.242 472.227 701.515 472.623 700.65 472.917C699.785 473.193 698.781 473.331 697.64 473.331ZM697.64 470.874C698.855 470.874 699.785 470.607 700.429 470.073C701.092 469.539 701.423 468.784 701.423 467.809V467.229C701.423 466.253 701.092 465.498 700.429 464.965C699.785 464.431 698.855 464.164 697.64 464.164C696.425 464.164 695.486 464.431 694.823 464.965C694.179 465.498 693.857 466.253 693.857 467.229V467.809C693.857 468.784 694.179 469.539 694.823 470.073C695.486 470.607 696.425 470.874 697.64 470.874ZM697.64 461.789C698.744 461.789 699.582 461.55 700.153 461.071C700.742 460.574 701.036 459.884 701.036 459V458.641C701.036 457.758 700.742 457.076 700.153 456.598C699.582 456.101 698.744 455.852 697.64 455.852C696.535 455.852 695.689 456.101 695.1 456.598C694.529 457.076 694.244 457.758 694.244 458.641V459C694.244 459.884 694.529 460.574 695.1 461.071C695.689 461.55 696.535 461.789 697.64 461.789ZM713.396 461.679C714.63 461.679 715.541 461.421 716.13 460.905C716.737 460.372 717.041 459.709 717.041 458.917V458.724C717.041 457.84 716.747 457.168 716.158 456.708C715.587 456.23 714.814 455.99 713.838 455.99C712.899 455.99 712.098 456.202 711.436 456.625C710.791 457.049 710.248 457.629 709.807 458.365L707.708 456.57C708.002 456.147 708.343 455.742 708.73 455.355C709.116 454.969 709.558 454.637 710.055 454.361C710.552 454.067 711.123 453.837 711.767 453.671C712.411 453.487 713.138 453.395 713.948 453.395C714.85 453.395 715.688 453.505 716.461 453.726C717.234 453.947 717.906 454.278 718.477 454.72C719.048 455.144 719.489 455.668 719.802 456.294C720.115 456.902 720.272 457.592 720.272 458.365C720.272 458.973 720.171 459.525 719.968 460.022C719.784 460.519 719.517 460.961 719.167 461.347C718.836 461.715 718.44 462.019 717.98 462.259C717.52 462.498 717.032 462.673 716.516 462.783V462.921C717.069 463.032 717.593 463.216 718.09 463.473C718.587 463.713 719.029 464.035 719.416 464.44C719.802 464.827 720.106 465.296 720.327 465.848C720.548 466.382 720.658 466.999 720.658 467.698C720.658 468.545 720.493 469.318 720.161 470.018C719.83 470.699 719.351 471.288 718.726 471.785C718.118 472.282 717.382 472.669 716.516 472.945C715.651 473.202 714.685 473.331 713.617 473.331C712.715 473.331 711.914 473.23 711.215 473.028C710.534 472.844 709.926 472.595 709.392 472.282C708.858 471.951 708.389 471.583 707.984 471.178C707.597 470.754 707.257 470.322 706.962 469.88L709.254 468.112C709.733 468.886 710.294 469.521 710.939 470.018C711.601 470.496 712.503 470.736 713.645 470.736C714.86 470.736 715.789 470.46 716.434 469.907C717.078 469.337 717.4 468.554 717.4 467.56V467.339C717.4 466.345 717.06 465.59 716.378 465.075C715.716 464.541 714.749 464.274 713.479 464.274H711.408V461.679H713.396ZM737.519 473H724.21V470.045L730.506 464.55C731.5 463.667 732.264 462.829 732.797 462.038C733.35 461.246 733.626 460.408 733.626 459.525V459.221C733.626 458.209 733.35 457.435 732.797 456.902C732.245 456.349 731.444 456.073 730.395 456.073C729.327 456.073 728.499 456.359 727.91 456.929C727.339 457.5 726.925 458.227 726.667 459.111L723.961 458.089C724.145 457.481 724.412 456.902 724.762 456.349C725.112 455.779 725.554 455.272 726.087 454.831C726.64 454.389 727.284 454.039 728.02 453.781C728.775 453.524 729.64 453.395 730.616 453.395C731.61 453.395 732.494 453.542 733.267 453.837C734.058 454.113 734.721 454.499 735.255 454.996C735.789 455.493 736.194 456.092 736.47 456.791C736.746 457.472 736.884 458.227 736.884 459.055C736.884 459.829 736.764 460.546 736.525 461.209C736.304 461.854 735.982 462.479 735.559 463.087C735.154 463.676 734.666 464.247 734.095 464.799C733.525 465.351 732.899 465.903 732.218 466.456L727.551 470.377H737.519V473ZM747.311 473.331C746.096 473.331 745.038 473.11 744.136 472.669C743.252 472.208 742.516 471.555 741.927 470.708C741.356 469.861 740.932 468.821 740.656 467.588C740.38 466.354 740.242 464.946 740.242 463.363C740.242 461.798 740.38 460.399 740.656 459.166C740.932 457.914 741.356 456.865 741.927 456.018C742.516 455.171 743.252 454.527 744.136 454.085C745.038 453.625 746.096 453.395 747.311 453.395C748.526 453.395 749.575 453.625 750.459 454.085C751.361 454.527 752.097 455.171 752.668 456.018C753.257 456.865 753.69 457.914 753.966 459.166C754.242 460.399 754.38 461.798 754.38 463.363C754.38 464.946 754.242 466.354 753.966 467.588C753.69 468.821 753.257 469.861 752.668 470.708C752.097 471.555 751.361 472.208 750.459 472.669C749.575 473.11 748.526 473.331 747.311 473.331ZM747.311 470.791C748.71 470.791 749.704 470.276 750.293 469.245C750.901 468.195 751.205 466.787 751.205 465.02V461.706C751.205 459.939 750.901 458.54 750.293 457.509C749.704 456.46 748.71 455.935 747.311 455.935C746.612 455.935 746.013 456.073 745.516 456.349C745.019 456.607 744.614 456.994 744.301 457.509C743.988 458.006 743.758 458.614 743.611 459.332C743.482 460.031 743.418 460.823 743.418 461.706V465.02C743.418 465.903 743.482 466.704 743.611 467.422C743.758 468.122 743.988 468.729 744.301 469.245C744.614 469.742 745.019 470.128 745.516 470.404C746.013 470.662 746.612 470.791 747.311 470.791ZM747.311 464.992C746.667 464.992 746.216 464.863 745.958 464.606C745.719 464.348 745.599 464.035 745.599 463.667V463.059C745.599 462.691 745.719 462.378 745.958 462.12C746.216 461.863 746.667 461.734 747.311 461.734C747.955 461.734 748.397 461.863 748.637 462.12C748.894 462.378 749.023 462.691 749.023 463.059V463.667C749.023 464.035 748.894 464.348 748.637 464.606C748.397 464.863 747.955 464.992 747.311 464.992ZM763.868 463.225C763.169 463.225 762.515 463.105 761.908 462.866C761.319 462.608 760.803 462.259 760.361 461.817C759.92 461.375 759.57 460.859 759.312 460.27C759.073 459.663 758.953 459.009 758.953 458.31C758.953 457.61 759.073 456.966 759.312 456.377C759.57 455.769 759.92 455.245 760.361 454.803C760.803 454.361 761.319 454.021 761.908 453.781C762.515 453.524 763.169 453.395 763.868 453.395C764.549 453.395 765.184 453.524 765.773 453.781C766.381 454.021 766.906 454.361 767.347 454.803C767.789 455.245 768.139 455.769 768.397 456.377C768.654 456.966 768.783 457.61 768.783 458.31C768.783 459.009 768.654 459.663 768.397 460.27C768.139 460.859 767.789 461.375 767.347 461.817C766.906 462.259 766.381 462.608 765.773 462.866C765.184 463.105 764.549 463.225 763.868 463.225ZM763.868 461.099C764.66 461.099 765.295 460.832 765.773 460.298C766.252 459.764 766.491 459.101 766.491 458.31C766.491 457.518 766.252 456.856 765.773 456.322C765.295 455.788 764.66 455.521 763.868 455.521C763.077 455.521 762.442 455.788 761.963 456.322C761.484 456.856 761.245 457.518 761.245 458.31C761.245 459.101 761.484 459.764 761.963 460.298C762.442 460.832 763.077 461.099 763.868 461.099ZM791.073 473V453.726H803.14V456.322H794.166V461.927H802.809V464.523H794.166V470.404H803.14V473H791.073Z" fill="black"/>
<line x1="322" y1="574.25" x2="651" y2="574.25" stroke="black" stroke-width="1.5"/>
<line x1="486.75" y1="529" x2="486.75" y2="575" stroke="black" stroke-width="1.5"/>
<line x1="650.75" y1="529" x2="650.75" y2="575" stroke="black" stroke-width="1.5"/>
<line x1="568.75" y1="529" x2="568.75" y2="575" stroke="black" stroke-width="1.5"/>
<path d="M504.454 542L503.484 538.597H499.422L498.452 542H496.366L500.099 529.228H502.898L506.631 542H504.454ZM501.526 531.296H501.38L499.806 536.895H503.1L501.526 531.296ZM508.472 529.228H512.278C513.913 529.228 515.12 529.771 515.901 530.857C516.694 531.942 517.09 533.528 517.09 535.614C517.09 537.7 516.694 539.286 515.901 540.371C515.12 541.457 513.913 542 512.278 542H508.472V529.228ZM512.15 540.317C513.089 540.317 513.784 540.006 514.236 539.383C514.699 538.749 514.931 537.846 514.931 536.675V534.553C514.931 533.382 514.699 532.485 514.236 531.863C513.784 531.229 513.089 530.912 512.15 530.912H510.503V540.317H512.15ZM526.086 535.889L526.141 532.046H525.994L523.432 538.615L520.871 532.046H520.724L520.779 535.889V542H518.968V529.228H521.475L523.432 534.297H523.561L525.537 529.228H527.897V542H526.086V535.889ZM530.378 542V540.445H533.379V530.783H530.378V529.228H538.43V530.783H535.429V540.445H538.43V542H530.378ZM546.4 530.948V542H544.351V530.948H540.344V529.228H550.407V530.948H546.4ZM501.489 561.22C500.684 561.22 499.983 561.073 499.385 560.78C498.8 560.475 498.312 560.042 497.921 559.481C497.543 558.92 497.263 558.231 497.08 557.414C496.897 556.596 496.805 555.663 496.805 554.614C496.805 553.577 496.897 552.65 497.08 551.833C497.263 551.003 497.543 550.308 497.921 549.747C498.312 549.186 498.8 548.759 499.385 548.466C499.983 548.161 500.684 548.009 501.489 548.009C502.294 548.009 502.99 548.161 503.575 548.466C504.173 548.759 504.661 549.186 505.039 549.747C505.429 550.308 505.716 551.003 505.899 551.833C506.082 552.65 506.174 553.577 506.174 554.614C506.174 555.663 506.082 556.596 505.899 557.414C505.716 558.231 505.429 558.92 505.039 559.481C504.661 560.042 504.173 560.475 503.575 560.78C502.99 561.073 502.294 561.22 501.489 561.22ZM501.489 559.536C502.416 559.536 503.075 559.195 503.466 558.511C503.868 557.816 504.069 556.883 504.069 555.712V553.516C504.069 552.345 503.868 551.418 503.466 550.735C503.075 550.04 502.416 549.692 501.489 549.692C501.026 549.692 500.629 549.783 500.3 549.966C499.971 550.137 499.702 550.393 499.495 550.735C499.288 551.064 499.135 551.467 499.037 551.943C498.952 552.406 498.909 552.931 498.909 553.516V555.712C498.909 556.297 498.952 556.828 499.037 557.304C499.135 557.767 499.288 558.17 499.495 558.511C499.702 558.841 499.971 559.097 500.3 559.28C500.629 559.451 501.026 559.536 501.489 559.536ZM501.489 555.694C501.062 555.694 500.764 555.608 500.593 555.437C500.434 555.267 500.355 555.059 500.355 554.815V554.413C500.355 554.169 500.434 553.961 500.593 553.791C500.764 553.62 501.062 553.534 501.489 553.534C501.916 553.534 502.209 553.62 502.368 553.791C502.538 553.961 502.624 554.169 502.624 554.413V554.815C502.624 555.059 502.538 555.267 502.368 555.437C502.209 555.608 501.916 555.694 501.489 555.694ZM508.582 561V559.298H512.168V549.729H512.022L509.058 552.894L507.795 551.76L511.052 548.228H514.217V559.298H517.31V561H508.582Z" fill="black"/>
<path d="M585.868 540.243H585.74C585.63 540.5 585.496 540.75 585.337 540.994C585.191 541.225 585.002 541.433 584.77 541.616C584.551 541.799 584.282 541.945 583.965 542.055C583.648 542.165 583.282 542.22 582.867 542.22C581.538 542.22 580.537 541.652 579.866 540.518C579.195 539.383 578.86 537.779 578.86 535.706C578.86 533.534 579.244 531.875 580.013 530.729C580.781 529.582 581.958 529.009 583.544 529.009C584.166 529.009 584.709 529.094 585.173 529.265C585.648 529.435 586.051 529.667 586.38 529.96C586.71 530.241 586.984 530.576 587.204 530.966C587.423 531.345 587.6 531.747 587.734 532.174L585.886 532.796C585.789 532.516 585.679 532.253 585.557 532.009C585.435 531.753 585.283 531.528 585.1 531.332C584.929 531.137 584.715 530.985 584.459 530.875C584.215 530.765 583.916 530.71 583.563 530.71C582.672 530.71 582.026 531.058 581.623 531.753C581.233 532.436 581.037 533.363 581.037 534.534V536.566C581.037 537.151 581.08 537.688 581.166 538.176C581.251 538.664 581.391 539.085 581.586 539.438C581.794 539.78 582.056 540.048 582.373 540.243C582.703 540.439 583.099 540.536 583.563 540.536C584.307 540.536 584.874 540.317 585.264 539.877C585.667 539.426 585.868 538.853 585.868 538.157V537.005H583.398V535.468H587.734V542H585.868V540.243ZM597.425 542L596.455 538.597H592.393L591.423 542H589.338L593.07 529.228H595.87L599.603 542H597.425ZM594.497 531.296H594.351L592.777 536.895H596.071L594.497 531.296ZM606.457 530.948V542H604.408V530.948H600.401V529.228H610.464V530.948H606.457ZM612.488 542V529.228H620.484V530.948H614.538V534.663H620.265V536.383H614.538V540.28H620.484V542H612.488ZM583.489 561.22C582.684 561.22 581.983 561.073 581.385 560.78C580.8 560.475 580.312 560.042 579.921 559.481C579.543 558.92 579.263 558.231 579.08 557.414C578.897 556.596 578.805 555.663 578.805 554.614C578.805 553.577 578.897 552.65 579.08 551.833C579.263 551.003 579.543 550.308 579.921 549.747C580.312 549.186 580.8 548.759 581.385 548.466C581.983 548.161 582.684 548.009 583.489 548.009C584.294 548.009 584.99 548.161 585.575 548.466C586.173 548.759 586.661 549.186 587.039 549.747C587.429 550.308 587.716 551.003 587.899 551.833C588.082 552.65 588.174 553.577 588.174 554.614C588.174 555.663 588.082 556.596 587.899 557.414C587.716 558.231 587.429 558.92 587.039 559.481C586.661 560.042 586.173 560.475 585.575 560.78C584.99 561.073 584.294 561.22 583.489 561.22ZM583.489 559.536C584.416 559.536 585.075 559.195 585.466 558.511C585.868 557.816 586.069 556.883 586.069 555.712V553.516C586.069 552.345 585.868 551.418 585.466 550.735C585.075 550.04 584.416 549.692 583.489 549.692C583.026 549.692 582.629 549.783 582.3 549.966C581.971 550.137 581.702 550.393 581.495 550.735C581.288 551.064 581.135 551.467 581.037 551.943C580.952 552.406 580.909 552.931 580.909 553.516V555.712C580.909 556.297 580.952 556.828 581.037 557.304C581.135 557.767 581.288 558.17 581.495 558.511C581.702 558.841 581.971 559.097 582.3 559.28C582.629 559.451 583.026 559.536 583.489 559.536ZM583.489 555.694C583.062 555.694 582.764 555.608 582.593 555.437C582.434 555.267 582.355 555.059 582.355 554.815V554.413C582.355 554.169 582.434 553.961 582.593 553.791C582.764 553.62 583.062 553.534 583.489 553.534C583.916 553.534 584.209 553.62 584.368 553.791C584.538 553.961 584.624 554.169 584.624 554.413V554.815C584.624 555.059 584.538 555.267 584.368 555.437C584.209 555.608 583.916 555.694 583.489 555.694ZM595.595 561V558.511H589.52V556.755L594.863 548.228H597.553V556.901H599.346V558.511H597.553V561H595.595ZM591.259 556.901H595.595V550.113H595.486L591.259 556.901Z" fill="black"/>
<path d="M728.942 636.018C723.795 636.018 719.468 635.113 715.962 633.303C712.455 631.493 709.571 629.09 707.309 626.092L713.417 620.239C715.679 622.953 718.083 624.961 720.628 626.262C723.173 627.506 726.057 628.128 729.281 628.128C733.014 628.128 735.87 627.28 737.849 625.583C739.885 623.887 740.903 621.455 740.903 618.287C740.903 615.742 740.168 613.791 738.698 612.434C737.227 611.02 734.71 610.002 731.147 609.38L724.7 608.362C721.872 607.909 719.497 607.174 717.574 606.156C715.651 605.081 714.095 603.837 712.908 602.423C711.72 600.953 710.843 599.341 710.278 597.588C709.769 595.778 709.514 593.883 709.514 591.904C709.514 586.304 711.324 582.063 714.944 579.178C718.563 576.237 723.54 574.767 729.875 574.767C734.569 574.767 738.556 575.53 741.837 577.057C745.173 578.528 747.86 580.621 749.896 583.335L743.957 589.274C742.317 587.294 740.366 585.711 738.104 584.523C735.898 583.279 733.155 582.657 729.875 582.657C726.368 582.657 723.682 583.42 721.815 584.947C720.006 586.418 719.101 588.595 719.101 591.479C719.101 593.911 719.808 595.834 721.222 597.248C722.692 598.606 725.265 599.595 728.942 600.217L735.219 601.32C740.536 602.282 744.41 604.233 746.842 607.174C749.274 610.058 750.49 613.593 750.49 617.778C750.49 620.493 750.009 622.982 749.048 625.244C748.143 627.506 746.757 629.429 744.891 631.013C743.081 632.596 740.819 633.841 738.104 634.745C735.446 635.594 732.392 636.018 728.942 636.018ZM761.994 635V575.785H784.136C789.792 575.785 794.09 577.368 797.031 580.536C800.029 583.703 801.528 588.058 801.528 593.6C801.528 599.143 800.029 603.498 797.031 606.665C794.09 609.832 789.792 611.416 784.136 611.416H771.496V635H761.994ZM771.496 603.526H782.694C788.576 603.526 791.517 600.811 791.517 595.382V591.734C791.517 586.361 788.576 583.675 782.694 583.675H771.496V603.526Z" fill="black"/>
<path d="M320.631 591.368H325.683C325.725 591.368 325.746 591.368 325.746 591.368C325.746 591.368 325.746 591.389 325.746 591.432V596.483C325.746 596.525 325.746 596.546 325.746 596.546C325.746 596.546 325.725 596.546 325.683 596.546H320.631C320.589 596.546 320.568 596.546 320.568 596.546C320.568 596.546 320.568 596.525 320.568 596.483V591.432C320.568 591.389 320.568 591.368 320.568 591.368C320.568 591.368 320.589 591.368 320.631 591.368ZM345.889 591.368H350.94C350.982 591.368 351.003 591.368 351.003 591.368C351.003 591.368 351.003 591.389 351.003 591.432V596.483C351.003 596.525 351.003 596.546 351.003 596.546C351.003 596.546 350.982 596.546 350.94 596.546H345.889C345.846 596.546 345.825 596.546 345.825 596.546C345.825 596.546 345.825 596.525 345.825 596.483V591.432C345.825 591.389 345.825 591.368 345.825 591.368C345.825 591.368 345.846 591.368 345.889 591.368ZM320.631 597.683H325.683C325.725 597.683 325.746 597.683 325.746 597.683C325.746 597.683 325.746 597.704 325.746 597.746V602.797C325.746 602.839 325.746 602.86 325.746 602.86C325.746 602.86 325.725 602.86 325.683 602.86H320.631C320.589 602.86 320.568 602.86 320.568 602.86C320.568 602.86 320.568 602.839 320.568 602.797V597.746C320.568 597.704 320.568 597.683 320.568 597.683C320.568 597.683 320.589 597.683 320.631 597.683ZM339.574 597.683H344.626C344.668 597.683 344.689 597.683 344.689 597.683C344.689 597.683 344.689 597.704 344.689 597.746V602.797C344.689 602.839 344.689 602.86 344.689 602.86C344.689 602.86 344.668 602.86 344.626 602.86H339.574C339.532 602.86 339.511 602.86 339.511 602.86C339.511 602.86 339.511 602.839 339.511 602.797V597.746C339.511 597.704 339.511 597.683 339.511 597.683C339.511 597.683 339.532 597.683 339.574 597.683ZM320.631 603.997H325.683C325.725 603.997 325.746 603.997 325.746 603.997C325.746 603.997 325.746 604.018 325.746 604.06V609.111C325.746 609.154 325.746 609.175 325.746 609.175C325.746 609.175 325.725 609.175 325.683 609.175H320.631C320.589 609.175 320.568 609.175 320.568 609.175C320.568 609.175 320.568 609.154 320.568 609.111V604.06C320.568 604.018 320.568 603.997 320.568 603.997C320.568 603.997 320.589 603.997 320.631 603.997ZM333.26 603.997H338.311C338.353 603.997 338.375 603.997 338.375 603.997C338.375 603.997 338.375 604.018 338.375 604.06V609.111C338.375 609.154 338.375 609.175 338.375 609.175C338.375 609.175 338.353 609.175 338.311 609.175H333.26C333.218 609.175 333.197 609.175 333.197 609.175C333.197 609.175 333.197 609.154 333.197 609.111V604.06C333.197 604.018 333.197 603.997 333.197 603.997C333.197 603.997 333.218 603.997 333.26 603.997ZM320.631 610.311H325.683C325.725 610.311 325.746 610.311 325.746 610.311C325.746 610.311 325.746 610.332 325.746 610.374V615.426C325.746 615.468 325.746 615.489 325.746 615.489C325.746 615.489 325.725 615.489 325.683 615.489H320.631C320.589 615.489 320.568 615.489 320.568 615.489C320.568 615.489 320.568 615.468 320.568 615.426V610.374C320.568 610.332 320.568 610.311 320.568 610.311C320.568 610.311 320.589 610.311 320.631 610.311ZM326.946 610.311H331.997C332.039 610.311 332.06 610.311 332.06 610.311C332.06 610.311 332.06 610.332 332.06 610.374V615.426C332.06 615.468 332.06 615.489 332.06 615.489C332.06 615.489 332.039 615.489 331.997 615.489H326.946C326.904 615.489 326.883 615.489 326.883 615.489C326.883 615.489 326.883 615.468 326.883 615.426V610.374C326.883 610.332 326.883 610.311 326.883 610.311C326.883 610.311 326.904 610.311 326.946 610.311ZM320.631 616.625H325.683C325.725 616.625 325.746 616.625 325.746 616.625C325.746 616.625 325.746 616.647 325.746 616.689V621.74C325.746 621.782 325.746 621.803 325.746 621.803C325.746 621.803 325.725 621.803 325.683 621.803H320.631C320.589 621.803 320.568 621.803 320.568 621.803C320.568 621.803 320.568 621.782 320.568 621.74V616.689C320.568 616.647 320.568 616.625 320.568 616.625C320.568 616.625 320.589 616.625 320.631 616.625ZM333.26 616.625H338.311C338.353 616.625 338.375 616.625 338.375 616.625C338.375 616.625 338.375 616.647 338.375 616.689V621.74C338.375 621.782 338.375 621.803 338.375 621.803C338.375 621.803 338.353 621.803 338.311 621.803H333.26C333.218 621.803 333.197 621.803 333.197 621.803C333.197 621.803 333.197 621.782 333.197 621.74V616.689C333.197 616.647 333.197 616.625 333.197 616.625C333.197 616.625 333.218 616.625 333.26 616.625ZM320.631 622.94H325.683C325.725 622.94 325.746 622.94 325.746 622.94C325.746 622.94 325.746 622.961 325.746 623.003V628.054C325.746 628.096 325.746 628.117 325.746 628.117C325.746 628.117 325.725 628.117 325.683 628.117H320.631C320.589 628.117 320.568 628.117 320.568 628.117C320.568 628.117 320.568 628.096 320.568 628.054V623.003C320.568 622.961 320.568 622.94 320.568 622.94C320.568 622.94 320.589 622.94 320.631 622.94ZM339.574 622.94H344.626C344.668 622.94 344.689 622.94 344.689 622.94C344.689 622.94 344.689 622.961 344.689 623.003V628.054C344.689 628.096 344.689 628.117 344.689 628.117C344.689 628.117 344.668 628.117 344.626 628.117H339.574C339.532 628.117 339.511 628.117 339.511 628.117C339.511 628.117 339.511 628.096 339.511 628.054V623.003C339.511 622.961 339.511 622.94 339.511 622.94C339.511 622.94 339.532 622.94 339.574 622.94ZM320.631 629.254H325.683C325.725 629.254 325.746 629.254 325.746 629.254C325.746 629.254 325.746 629.275 325.746 629.317V634.369C325.746 634.411 325.746 634.432 325.746 634.432C325.746 634.432 325.725 634.432 325.683 634.432H320.631C320.589 634.432 320.568 634.432 320.568 634.432C320.568 634.432 320.568 634.411 320.568 634.369V629.317C320.568 629.275 320.568 629.254 320.568 629.254C320.568 629.254 320.589 629.254 320.631 629.254ZM345.889 629.254H350.94C350.982 629.254 351.003 629.254 351.003 629.254C351.003 629.254 351.003 629.275 351.003 629.317V634.369C351.003 634.411 351.003 634.432 351.003 634.432C351.003 634.432 350.982 634.432 350.94 634.432H345.889C345.846 634.432 345.825 634.432 345.825 634.432C345.825 634.432 345.825 634.411 345.825 634.369V629.317C345.825 629.275 345.825 629.254 345.825 629.254C345.825 629.254 345.846 629.254 345.889 629.254ZM358.492 591.368H363.544C363.586 591.368 363.607 591.368 363.607 591.368C363.607 591.368 363.607 591.389 363.607 591.432V596.483C363.607 596.525 363.607 596.546 363.607 596.546C363.607 596.546 363.586 596.546 363.544 596.546H358.492C358.45 596.546 358.429 596.546 358.429 596.546C358.429 596.546 358.429 596.525 358.429 596.483V591.432C358.429 591.389 358.429 591.368 358.429 591.368C358.429 591.368 358.45 591.368 358.492 591.368ZM364.807 591.368H369.858C369.9 591.368 369.921 591.368 369.921 591.368C369.921 591.368 369.921 591.389 369.921 591.432V596.483C369.921 596.525 369.921 596.546 369.921 596.546C369.921 596.546 369.9 596.546 369.858 596.546H364.807C364.765 596.546 364.744 596.546 364.744 596.546C364.744 596.546 364.744 596.525 364.744 596.483V591.432C364.744 591.389 364.744 591.368 364.744 591.368C364.744 591.368 364.765 591.368 364.807 591.368ZM371.121 591.368H376.172C376.214 591.368 376.235 591.368 376.235 591.368C376.235 591.368 376.235 591.389 376.235 591.432V596.483C376.235 596.525 376.235 596.546 376.235 596.546C376.235 596.546 376.214 596.546 376.172 596.546H371.121C371.079 596.546 371.058 596.546 371.058 596.546C371.058 596.546 371.058 596.525 371.058 596.483V591.432C371.058 591.389 371.058 591.368 371.058 591.368C371.058 591.368 371.079 591.368 371.121 591.368ZM377.435 591.368H382.487C382.529 591.368 382.55 591.368 382.55 591.368C382.55 591.368 382.55 591.389 382.55 591.432V596.483C382.55 596.525 382.55 596.546 382.55 596.546C382.55 596.546 382.529 596.546 382.487 596.546H377.435C377.393 596.546 377.372 596.546 377.372 596.546C377.372 596.546 377.372 596.525 377.372 596.483V591.432C377.372 591.389 377.372 591.368 377.372 591.368C377.372 591.368 377.393 591.368 377.435 591.368ZM383.749 591.368H388.801C388.843 591.368 388.864 591.368 388.864 591.368C388.864 591.368 388.864 591.389 388.864 591.432V596.483C388.864 596.525 388.864 596.546 388.864 596.546C388.864 596.546 388.843 596.546 388.801 596.546H383.749C383.707 596.546 383.686 596.546 383.686 596.546C383.686 596.546 383.686 596.525 383.686 596.483V591.432C383.686 591.389 383.686 591.368 383.686 591.368C383.686 591.368 383.707 591.368 383.749 591.368ZM358.492 597.683H363.544C363.586 597.683 363.607 597.683 363.607 597.683C363.607 597.683 363.607 597.704 363.607 597.746V602.797C363.607 602.839 363.607 602.86 363.607 602.86C363.607 602.86 363.586 602.86 363.544 602.86H358.492C358.45 602.86 358.429 602.86 358.429 602.86C358.429 602.86 358.429 602.839 358.429 602.797V597.746C358.429 597.704 358.429 597.683 358.429 597.683C358.429 597.683 358.45 597.683 358.492 597.683ZM358.492 603.997H363.544C363.586 603.997 363.607 603.997 363.607 603.997C363.607 603.997 363.607 604.018 363.607 604.06V609.111C363.607 609.154 363.607 609.175 363.607 609.175C363.607 609.175 363.586 609.175 363.544 609.175H358.492C358.45 609.175 358.429 609.175 358.429 609.175C358.429 609.175 358.429 609.154 358.429 609.111V604.06C358.429 604.018 358.429 603.997 358.429 603.997C358.429 603.997 358.45 603.997 358.492 603.997ZM358.492 610.311H363.544C363.586 610.311 363.607 610.311 363.607 610.311C363.607 610.311 363.607 610.332 363.607 610.374V615.426C363.607 615.468 363.607 615.489 363.607 615.489C363.607 615.489 363.586 615.489 363.544 615.489H358.492C358.45 615.489 358.429 615.489 358.429 615.489C358.429 615.489 358.429 615.468 358.429 615.426V610.374C358.429 610.332 358.429 610.311 358.429 610.311C358.429 610.311 358.45 610.311 358.492 610.311ZM364.807 610.311H369.858C369.9 610.311 369.921 610.311 369.921 610.311C369.921 610.311 369.921 610.332 369.921 610.374V615.426C369.921 615.468 369.921 615.489 369.921 615.489C369.921 615.489 369.9 615.489 369.858 615.489H364.807C364.765 615.489 364.744 615.489 364.744 615.489C364.744 615.489 364.744 615.468 364.744 615.426V610.374C364.744 610.332 364.744 610.311 364.744 610.311C364.744 610.311 364.765 610.311 364.807 610.311ZM371.121 610.311H376.172C376.214 610.311 376.235 610.311 376.235 610.311C376.235 610.311 376.235 610.332 376.235 610.374V615.426C376.235 615.468 376.235 615.489 376.235 615.489C376.235 615.489 376.214 615.489 376.172 615.489H371.121C371.079 615.489 371.058 615.489 371.058 615.489C371.058 615.489 371.058 615.468 371.058 615.426V610.374C371.058 610.332 371.058 610.311 371.058 610.311C371.058 610.311 371.079 610.311 371.121 610.311ZM377.435 610.311H382.487C382.529 610.311 382.55 610.311 382.55 610.311C382.55 610.311 382.55 610.332 382.55 610.374V615.426C382.55 615.468 382.55 615.489 382.55 615.489C382.55 615.489 382.529 615.489 382.487 615.489H377.435C377.393 615.489 377.372 615.489 377.372 615.489C377.372 615.489 377.372 615.468 377.372 615.426V610.374C377.372 610.332 377.372 610.311 377.372 610.311C377.372 610.311 377.393 610.311 377.435 610.311ZM358.492 616.625H363.544C363.586 616.625 363.607 616.625 363.607 616.625C363.607 616.625 363.607 616.647 363.607 616.689V621.74C363.607 621.782 363.607 621.803 363.607 621.803C363.607 621.803 363.586 621.803 363.544 621.803H358.492C358.45 621.803 358.429 621.803 358.429 621.803C358.429 621.803 358.429 621.782 358.429 621.74V616.689C358.429 616.647 358.429 616.625 358.429 616.625C358.429 616.625 358.45 616.625 358.492 616.625ZM358.492 622.94H363.544C363.586 622.94 363.607 622.94 363.607 622.94C363.607 622.94 363.607 622.961 363.607 623.003V628.054C363.607 628.096 363.607 628.117 363.607 628.117C363.607 628.117 363.586 628.117 363.544 628.117H358.492C358.45 628.117 358.429 628.117 358.429 628.117C358.429 628.117 358.429 628.096 358.429 628.054V623.003C358.429 622.961 358.429 622.94 358.429 622.94C358.429 622.94 358.45 622.94 358.492 622.94ZM358.492 629.254H363.544C363.586 629.254 363.607 629.254 363.607 629.254C363.607 629.254 363.607 629.275 363.607 629.317V634.369C363.607 634.411 363.607 634.432 363.607 634.432C363.607 634.432 363.586 634.432 363.544 634.432H358.492C358.45 634.432 358.429 634.432 358.429 634.432C358.429 634.432 358.429 634.411 358.429 634.369V629.317C358.429 629.275 358.429 629.254 358.429 629.254C358.429 629.254 358.45 629.254 358.492 629.254ZM364.807 629.254H369.858C369.9 629.254 369.921 629.254 369.921 629.254C369.921 629.254 369.921 629.275 369.921 629.317V634.369C369.921 634.411 369.921 634.432 369.921 634.432C369.921 634.432 369.9 634.432 369.858 634.432H364.807C364.765 634.432 364.744 634.432 364.744 634.432C364.744 634.432 364.744 634.411 364.744 634.369V629.317C364.744 629.275 364.744 629.254 364.744 629.254C364.744 629.254 364.765 629.254 364.807 629.254ZM371.121 629.254H376.172C376.214 629.254 376.235 629.254 376.235 629.254C376.235 629.254 376.235 629.275 376.235 629.317V634.369C376.235 634.411 376.235 634.432 376.235 634.432C376.235 634.432 376.214 634.432 376.172 634.432H371.121C371.079 634.432 371.058 634.432 371.058 634.432C371.058 634.432 371.058 634.411 371.058 634.369V629.317C371.058 629.275 371.058 629.254 371.058 629.254C371.058 629.254 371.079 629.254 371.121 629.254ZM377.435 629.254H382.487C382.529 629.254 382.55 629.254 382.55 629.254C382.55 629.254 382.55 629.275 382.55 629.317V634.369C382.55 634.411 382.55 634.432 382.55 634.432C382.55 634.432 382.529 634.432 382.487 634.432H377.435C377.393 634.432 377.372 634.432 377.372 634.432C377.372 634.432 377.372 634.411 377.372 634.369V629.317C377.372 629.275 377.372 629.254 377.372 629.254C377.372 629.254 377.393 629.254 377.435 629.254ZM383.749 629.254H388.801C388.843 629.254 388.864 629.254 388.864 629.254C388.864 629.254 388.864 629.275 388.864 629.317V634.369C388.864 634.411 388.864 634.432 388.864 634.432C388.864 634.432 388.843 634.432 388.801 634.432H383.749C383.707 634.432 383.686 634.432 383.686 634.432C383.686 634.432 383.686 634.411 383.686 634.369V629.317C383.686 629.275 383.686 629.254 383.686 629.254C383.686 629.254 383.707 629.254 383.749 629.254ZM396.353 591.368H401.405C401.447 591.368 401.468 591.368 401.468 591.368C401.468 591.368 401.468 591.389 401.468 591.432V596.483C401.468 596.525 401.468 596.546 401.468 596.546C401.468 596.546 401.447 596.546 401.405 596.546H396.353C396.311 596.546 396.29 596.546 396.29 596.546C396.29 596.546 396.29 596.525 396.29 596.483V591.432C396.29 591.389 396.29 591.368 396.29 591.368C396.29 591.368 396.311 591.368 396.353 591.368ZM402.668 591.368H407.719C407.761 591.368 407.782 591.368 407.782 591.368C407.782 591.368 407.782 591.389 407.782 591.432V596.483C407.782 596.525 407.782 596.546 407.782 596.546C407.782 596.546 407.761 596.546 407.719 596.546H402.668C402.626 596.546 402.604 596.546 402.604 596.546C402.604 596.546 402.604 596.525 402.604 596.483V591.432C402.604 591.389 402.604 591.368 402.604 591.368C402.604 591.368 402.626 591.368 402.668 591.368ZM408.982 591.368H414.033C414.075 591.368 414.096 591.368 414.096 591.368C414.096 591.368 414.096 591.389 414.096 591.432V596.483C414.096 596.525 414.096 596.546 414.096 596.546C414.096 596.546 414.075 596.546 414.033 596.546H408.982C408.94 596.546 408.919 596.546 408.919 596.546C408.919 596.546 408.919 596.525 408.919 596.483V591.432C408.919 591.389 408.919 591.368 408.919 591.368C408.919 591.368 408.94 591.368 408.982 591.368ZM415.296 591.368H420.348C420.39 591.368 420.411 591.368 420.411 591.368C420.411 591.368 420.411 591.389 420.411 591.432V596.483C420.411 596.525 420.411 596.546 420.411 596.546C420.411 596.546 420.39 596.546 420.348 596.546H415.296C415.254 596.546 415.233 596.546 415.233 596.546C415.233 596.546 415.233 596.525 415.233 596.483V591.432C415.233 591.389 415.233 591.368 415.233 591.368C415.233 591.368 415.254 591.368 415.296 591.368ZM396.353 597.683H401.405C401.447 597.683 401.468 597.683 401.468 597.683C401.468 597.683 401.468 597.704 401.468 597.746V602.797C401.468 602.839 401.468 602.86 401.468 602.86C401.468 602.86 401.447 602.86 401.405 602.86H396.353C396.311 602.86 396.29 602.86 396.29 602.86C396.29 602.86 396.29 602.839 396.29 602.797V597.746C396.29 597.704 396.29 597.683 396.29 597.683C396.29 597.683 396.311 597.683 396.353 597.683ZM421.61 597.683H426.662C426.704 597.683 426.725 597.683 426.725 597.683C426.725 597.683 426.725 597.704 426.725 597.746V602.797C426.725 602.839 426.725 602.86 426.725 602.86C426.725 602.86 426.704 602.86 426.662 602.86H421.61C421.568 602.86 421.547 602.86 421.547 602.86C421.547 602.86 421.547 602.839 421.547 602.797V597.746C421.547 597.704 421.547 597.683 421.547 597.683C421.547 597.683 421.568 597.683 421.61 597.683ZM396.353 603.997H401.405C401.447 603.997 401.468 603.997 401.468 603.997C401.468 603.997 401.468 604.018 401.468 604.06V609.111C401.468 609.154 401.468 609.175 401.468 609.175C401.468 609.175 401.447 609.175 401.405 609.175H396.353C396.311 609.175 396.29 609.175 396.29 609.175C396.29 609.175 396.29 609.154 396.29 609.111V604.06C396.29 604.018 396.29 603.997 396.29 603.997C396.29 603.997 396.311 603.997 396.353 603.997ZM421.61 603.997H426.662C426.704 603.997 426.725 603.997 426.725 603.997C426.725 603.997 426.725 604.018 426.725 604.06V609.111C426.725 609.154 426.725 609.175 426.725 609.175C426.725 609.175 426.704 609.175 426.662 609.175H421.61C421.568 609.175 421.547 609.175 421.547 609.175C421.547 609.175 421.547 609.154 421.547 609.111V604.06C421.547 604.018 421.547 603.997 421.547 603.997C421.547 603.997 421.568 603.997 421.61 603.997ZM396.353 610.311H401.405C401.447 610.311 401.468 610.311 401.468 610.311C401.468 610.311 401.468 610.332 401.468 610.374V615.426C401.468 615.468 401.468 615.489 401.468 615.489C401.468 615.489 401.447 615.489 401.405 615.489H396.353C396.311 615.489 396.29 615.489 396.29 615.489C396.29 615.489 396.29 615.468 396.29 615.426V610.374C396.29 610.332 396.29 610.311 396.29 610.311C396.29 610.311 396.311 610.311 396.353 610.311ZM402.668 610.311H407.719C407.761 610.311 407.782 610.311 407.782 610.311C407.782 610.311 407.782 610.332 407.782 610.374V615.426C407.782 615.468 407.782 615.489 407.782 615.489C407.782 615.489 407.761 615.489 407.719 615.489H402.668C402.626 615.489 402.604 615.489 402.604 615.489C402.604 615.489 402.604 615.468 402.604 615.426V610.374C402.604 610.332 402.604 610.311 402.604 610.311C402.604 610.311 402.626 610.311 402.668 610.311ZM408.982 610.311H414.033C414.075 610.311 414.096 610.311 414.096 610.311C414.096 610.311 414.096 610.332 414.096 610.374V615.426C414.096 615.468 414.096 615.489 414.096 615.489C414.096 615.489 414.075 615.489 414.033 615.489H408.982C408.94 615.489 408.919 615.489 408.919 615.489C408.919 615.489 408.919 615.468 408.919 615.426V610.374C408.919 610.332 408.919 610.311 408.919 610.311C408.919 610.311 408.94 610.311 408.982 610.311ZM415.296 610.311H420.348C420.39 610.311 420.411 610.311 420.411 610.311C420.411 610.311 420.411 610.332 420.411 610.374V615.426C420.411 615.468 420.411 615.489 420.411 615.489C420.411 615.489 420.39 615.489 420.348 615.489H415.296C415.254 615.489 415.233 615.489 415.233 615.489C415.233 615.489 415.233 615.468 415.233 615.426V610.374C415.233 610.332 415.233 610.311 415.233 610.311C415.233 610.311 415.254 610.311 415.296 610.311ZM396.353 616.625H401.405C401.447 616.625 401.468 616.625 401.468 616.625C401.468 616.625 401.468 616.647 401.468 616.689V621.74C401.468 621.782 401.468 621.803 401.468 621.803C401.468 621.803 401.447 621.803 401.405 621.803H396.353C396.311 621.803 396.29 621.803 396.29 621.803C396.29 621.803 396.29 621.782 396.29 621.74V616.689C396.29 616.647 396.29 616.625 396.29 616.625C396.29 616.625 396.311 616.625 396.353 616.625ZM408.982 616.625H414.033C414.075 616.625 414.096 616.625 414.096 616.625C414.096 616.625 414.096 616.647 414.096 616.689V621.74C414.096 621.782 414.096 621.803 414.096 621.803C414.096 621.803 414.075 621.803 414.033 621.803H408.982C408.94 621.803 408.919 621.803 408.919 621.803C408.919 621.803 408.919 621.782 408.919 621.74V616.689C408.919 616.647 408.919 616.625 408.919 616.625C408.919 616.625 408.94 616.625 408.982 616.625ZM396.353 622.94H401.405C401.447 622.94 401.468 622.94 401.468 622.94C401.468 622.94 401.468 622.961 401.468 623.003V628.054C401.468 628.096 401.468 628.117 401.468 628.117C401.468 628.117 401.447 628.117 401.405 628.117H396.353C396.311 628.117 396.29 628.117 396.29 628.117C396.29 628.117 396.29 628.096 396.29 628.054V623.003C396.29 622.961 396.29 622.94 396.29 622.94C396.29 622.94 396.311 622.94 396.353 622.94ZM415.296 622.94H420.348C420.39 622.94 420.411 622.94 420.411 622.94C420.411 622.94 420.411 622.961 420.411 623.003V628.054C420.411 628.096 420.411 628.117 420.411 628.117C420.411 628.117 420.39 628.117 420.348 628.117H415.296C415.254 628.117 415.233 628.117 415.233 628.117C415.233 628.117 415.233 628.096 415.233 628.054V623.003C415.233 622.961 415.233 622.94 415.233 622.94C415.233 622.94 415.254 622.94 415.296 622.94ZM396.353 629.254H401.405C401.447 629.254 401.468 629.254 401.468 629.254C401.468 629.254 401.468 629.275 401.468 629.317V634.369C401.468 634.411 401.468 634.432 401.468 634.432C401.468 634.432 401.447 634.432 401.405 634.432H396.353C396.311 634.432 396.29 634.432 396.29 634.432C396.29 634.432 396.29 634.411 396.29 634.369V629.317C396.29 629.275 396.29 629.254 396.29 629.254C396.29 629.254 396.311 629.254 396.353 629.254ZM421.61 629.254H426.662C426.704 629.254 426.725 629.254 426.725 629.254C426.725 629.254 426.725 629.275 426.725 629.317V634.369C426.725 634.411 426.725 634.432 426.725 634.432C426.725 634.432 426.704 634.432 426.662 634.432H421.61C421.568 634.432 421.547 634.432 421.547 634.432C421.547 634.432 421.547 634.411 421.547 634.369V629.317C421.547 629.275 421.547 629.254 421.547 629.254C421.547 629.254 421.568 629.254 421.61 629.254ZM434.214 591.368H439.266C439.308 591.368 439.329 591.368 439.329 591.368C439.329 591.368 439.329 591.389 439.329 591.432V596.483C439.329 596.525 439.329 596.546 439.329 596.546C439.329 596.546 439.308 596.546 439.266 596.546H434.214C434.172 596.546 434.151 596.546 434.151 596.546C434.151 596.546 434.151 596.525 434.151 596.483V591.432C434.151 591.389 434.151 591.368 434.151 591.368C434.151 591.368 434.172 591.368 434.214 591.368ZM459.471 591.368H464.523C464.565 591.368 464.586 591.368 464.586 591.368C464.586 591.368 464.586 591.389 464.586 591.432V596.483C464.586 596.525 464.586 596.546 464.586 596.546C464.586 596.546 464.565 596.546 464.523 596.546H459.471C459.429 596.546 459.408 596.546 459.408 596.546C459.408 596.546 459.408 596.525 459.408 596.483V591.432C459.408 591.389 459.408 591.368 459.408 591.368C459.408 591.368 459.429 591.368 459.471 591.368ZM434.214 597.683H439.266C439.308 597.683 439.329 597.683 439.329 597.683C439.329 597.683 439.329 597.704 439.329 597.746V602.797C439.329 602.839 439.329 602.86 439.329 602.86C439.329 602.86 439.308 602.86 439.266 602.86H434.214C434.172 602.86 434.151 602.86 434.151 602.86C434.151 602.86 434.151 602.839 434.151 602.797V597.746C434.151 597.704 434.151 597.683 434.151 597.683C434.151 597.683 434.172 597.683 434.214 597.683ZM459.471 597.683H464.523C464.565 597.683 464.586 597.683 464.586 597.683C464.586 597.683 464.586 597.704 464.586 597.746V602.797C464.586 602.839 464.586 602.86 464.586 602.86C464.586 602.86 464.565 602.86 464.523 602.86H459.471C459.429 602.86 459.408 602.86 459.408 602.86C459.408 602.86 459.408 602.839 459.408 602.797V597.746C459.408 597.704 459.408 597.683 459.408 597.683C459.408 597.683 459.429 597.683 459.471 597.683ZM434.214 603.997H439.266C439.308 603.997 439.329 603.997 439.329 603.997C439.329 603.997 439.329 604.018 439.329 604.06V609.111C439.329 609.154 439.329 609.175 439.329 609.175C439.329 609.175 439.308 609.175 439.266 609.175H434.214C434.172 609.175 434.151 609.175 434.151 609.175C434.151 609.175 434.151 609.154 434.151 609.111V604.06C434.151 604.018 434.151 603.997 434.151 603.997C434.151 603.997 434.172 603.997 434.214 603.997ZM440.529 603.997H445.58C445.622 603.997 445.643 603.997 445.643 603.997C445.643 603.997 445.643 604.018 445.643 604.06V609.111C445.643 609.154 445.643 609.175 445.643 609.175C445.643 609.175 445.622 609.175 445.58 609.175H440.529C440.487 609.175 440.465 609.175 440.465 609.175C440.465 609.175 440.465 609.154 440.465 609.111V604.06C440.465 604.018 440.465 603.997 440.465 603.997C440.465 603.997 440.487 603.997 440.529 603.997ZM459.471 603.997H464.523C464.565 603.997 464.586 603.997 464.586 603.997C464.586 603.997 464.586 604.018 464.586 604.06V609.111C464.586 609.154 464.586 609.175 464.586 609.175C464.586 609.175 464.565 609.175 464.523 609.175H459.471C459.429 609.175 459.408 609.175 459.408 609.175C459.408 609.175 459.408 609.154 459.408 609.111V604.06C459.408 604.018 459.408 603.997 459.408 603.997C459.408 603.997 459.429 603.997 459.471 603.997ZM434.214 610.311H439.266C439.308 610.311 439.329 610.311 439.329 610.311C439.329 610.311 439.329 610.332 439.329 610.374V615.426C439.329 615.468 439.329 615.489 439.329 615.489C439.329 615.489 439.308 615.489 439.266 615.489H434.214C434.172 615.489 434.151 615.489 434.151 615.489C434.151 615.489 434.151 615.468 434.151 615.426V610.374C434.151 610.332 434.151 610.311 434.151 610.311C434.151 610.311 434.172 610.311 434.214 610.311ZM446.843 610.311H451.894C451.936 610.311 451.957 610.311 451.957 610.311C451.957 610.311 451.957 610.332 451.957 610.374V615.426C451.957 615.468 451.957 615.489 451.957 615.489C451.957 615.489 451.936 615.489 451.894 615.489H446.843C446.801 615.489 446.78 615.489 446.78 615.489C446.78 615.489 446.78 615.468 446.78 615.426V610.374C446.78 610.332 446.78 610.311 446.78 610.311C446.78 610.311 446.801 610.311 446.843 610.311ZM459.471 610.311H464.523C464.565 610.311 464.586 610.311 464.586 610.311C464.586 610.311 464.586 610.332 464.586 610.374V615.426C464.586 615.468 464.586 615.489 464.586 615.489C464.586 615.489 464.565 615.489 464.523 615.489H459.471C459.429 615.489 459.408 615.489 459.408 615.489C459.408 615.489 459.408 615.468 459.408 615.426V610.374C459.408 610.332 459.408 610.311 459.408 610.311C459.408 610.311 459.429 610.311 459.471 610.311ZM434.214 616.625H439.266C439.308 616.625 439.329 616.625 439.329 616.625C439.329 616.625 439.329 616.647 439.329 616.689V621.74C439.329 621.782 439.329 621.803 439.329 621.803C439.329 621.803 439.308 621.803 439.266 621.803H434.214C434.172 621.803 434.151 621.803 434.151 621.803C434.151 621.803 434.151 621.782 434.151 621.74V616.689C434.151 616.647 434.151 616.625 434.151 616.625C434.151 616.625 434.172 616.625 434.214 616.625ZM453.157 616.625H458.209C458.251 616.625 458.272 616.625 458.272 616.625C458.272 616.625 458.272 616.647 458.272 616.689V621.74C458.272 621.782 458.272 621.803 458.272 621.803C458.272 621.803 458.251 621.803 458.209 621.803H453.157C453.115 621.803 453.094 621.803 453.094 621.803C453.094 621.803 453.094 621.782 453.094 621.74V616.689C453.094 616.647 453.094 616.625 453.094 616.625C453.094 616.625 453.115 616.625 453.157 616.625ZM459.471 616.625H464.523C464.565 616.625 464.586 616.625 464.586 616.625C464.586 616.625 464.586 616.647 464.586 616.689V621.74C464.586 621.782 464.586 621.803 464.586 621.803C464.586 621.803 464.565 621.803 464.523 621.803H459.471C459.429 621.803 459.408 621.803 459.408 621.803C459.408 621.803 459.408 621.782 459.408 621.74V616.689C459.408 616.647 459.408 616.625 459.408 616.625C459.408 616.625 459.429 616.625 459.471 616.625ZM434.214 622.94H439.266C439.308 622.94 439.329 622.94 439.329 622.94C439.329 622.94 439.329 622.961 439.329 623.003V628.054C439.329 628.096 439.329 628.117 439.329 628.117C439.329 628.117 439.308 628.117 439.266 628.117H434.214C434.172 628.117 434.151 628.117 434.151 628.117C434.151 628.117 434.151 628.096 434.151 628.054V623.003C434.151 622.961 434.151 622.94 434.151 622.94C434.151 622.94 434.172 622.94 434.214 622.94ZM459.471 622.94H464.523C464.565 622.94 464.586 622.94 464.586 622.94C464.586 622.94 464.586 622.961 464.586 623.003V628.054C464.586 628.096 464.586 628.117 464.586 628.117C464.586 628.117 464.565 628.117 464.523 628.117H459.471C459.429 628.117 459.408 628.117 459.408 628.117C459.408 628.117 459.408 628.096 459.408 628.054V623.003C459.408 622.961 459.408 622.94 459.408 622.94C459.408 622.94 459.429 622.94 459.471 622.94ZM434.214 629.254H439.266C439.308 629.254 439.329 629.254 439.329 629.254C439.329 629.254 439.329 629.275 439.329 629.317V634.369C439.329 634.411 439.329 634.432 439.329 634.432C439.329 634.432 439.308 634.432 439.266 634.432H434.214C434.172 634.432 434.151 634.432 434.151 634.432C434.151 634.432 434.151 634.411 434.151 634.369V629.317C434.151 629.275 434.151 629.254 434.151 629.254C434.151 629.254 434.172 629.254 434.214 629.254ZM459.471 629.254H464.523C464.565 629.254 464.586 629.254 464.586 629.254C464.586 629.254 464.586 629.275 464.586 629.317V634.369C464.586 634.411 464.586 634.432 464.586 634.432C464.586 634.432 464.565 634.432 464.523 634.432H459.471C459.429 634.432 459.408 634.432 459.408 634.432C459.408 634.432 459.408 634.411 459.408 634.369V629.317C459.408 629.275 459.408 629.254 459.408 629.254C459.408 629.254 459.429 629.254 459.471 629.254ZM509.936 591.368H514.988C515.03 591.368 515.051 591.368 515.051 591.368C515.051 591.368 515.051 591.389 515.051 591.432V596.483C515.051 596.525 515.051 596.546 515.051 596.546C515.051 596.546 515.03 596.546 514.988 596.546H509.936C509.894 596.546 509.873 596.546 509.873 596.546C509.873 596.546 509.873 596.525 509.873 596.483V591.432C509.873 591.389 509.873 591.368 509.873 591.368C509.873 591.368 509.894 591.368 509.936 591.368ZM516.251 591.368H521.302C521.344 591.368 521.365 591.368 521.365 591.368C521.365 591.368 521.365 591.389 521.365 591.432V596.483C521.365 596.525 521.365 596.546 521.365 596.546C521.365 596.546 521.344 596.546 521.302 596.546H516.251C516.208 596.546 516.187 596.546 516.187 596.546C516.187 596.546 516.187 596.525 516.187 596.483V591.432C516.187 591.389 516.187 591.368 516.187 591.368C516.187 591.368 516.208 591.368 516.251 591.368ZM522.565 591.368H527.616C527.658 591.368 527.679 591.368 527.679 591.368C527.679 591.368 527.679 591.389 527.679 591.432V596.483C527.679 596.525 527.679 596.546 527.679 596.546C527.679 596.546 527.658 596.546 527.616 596.546H522.565C522.523 596.546 522.502 596.546 522.502 596.546C522.502 596.546 522.502 596.525 522.502 596.483V591.432C522.502 591.389 522.502 591.368 522.502 591.368C522.502 591.368 522.523 591.368 522.565 591.368ZM528.879 591.368H533.93C533.973 591.368 533.994 591.368 533.994 591.368C533.994 591.368 533.994 591.389 533.994 591.432V596.483C533.994 596.525 533.994 596.546 533.994 596.546C533.994 596.546 533.973 596.546 533.93 596.546H528.879C528.837 596.546 528.816 596.546 528.816 596.546C528.816 596.546 528.816 596.525 528.816 596.483V591.432C528.816 591.389 528.816 591.368 528.816 591.368C528.816 591.368 528.837 591.368 528.879 591.368ZM535.193 591.368H540.245C540.287 591.368 540.308 591.368 540.308 591.368C540.308 591.368 540.308 591.389 540.308 591.432V596.483C540.308 596.525 540.308 596.546 540.308 596.546C540.308 596.546 540.287 596.546 540.245 596.546H535.193C535.151 596.546 535.13 596.546 535.13 596.546C535.13 596.546 535.13 596.525 535.13 596.483V591.432C535.13 591.389 535.13 591.368 535.13 591.368C535.13 591.368 535.151 591.368 535.193 591.368ZM509.936 597.683H514.988C515.03 597.683 515.051 597.683 515.051 597.683C515.051 597.683 515.051 597.704 515.051 597.746V602.797C515.051 602.839 515.051 602.86 515.051 602.86C515.051 602.86 515.03 602.86 514.988 602.86H509.936C509.894 602.86 509.873 602.86 509.873 602.86C509.873 602.86 509.873 602.839 509.873 602.797V597.746C509.873 597.704 509.873 597.683 509.873 597.683C509.873 597.683 509.894 597.683 509.936 597.683ZM509.936 603.997H514.988C515.03 603.997 515.051 603.997 515.051 603.997C515.051 603.997 515.051 604.018 515.051 604.06V609.111C515.051 609.154 515.051 609.175 515.051 609.175C515.051 609.175 515.03 609.175 514.988 609.175H509.936C509.894 609.175 509.873 609.175 509.873 609.175C509.873 609.175 509.873 609.154 509.873 609.111V604.06C509.873 604.018 509.873 603.997 509.873 603.997C509.873 603.997 509.894 603.997 509.936 603.997ZM509.936 610.311H514.988C515.03 610.311 515.051 610.311 515.051 610.311C515.051 610.311 515.051 610.332 515.051 610.374V615.426C515.051 615.468 515.051 615.489 515.051 615.489C515.051 615.489 515.03 615.489 514.988 615.489H509.936C509.894 615.489 509.873 615.489 509.873 615.489C509.873 615.489 509.873 615.468 509.873 615.426V610.374C509.873 610.332 509.873 610.311 509.873 610.311C509.873 610.311 509.894 610.311 509.936 610.311ZM516.251 610.311H521.302C521.344 610.311 521.365 610.311 521.365 610.311C521.365 610.311 521.365 610.332 521.365 610.374V615.426C521.365 615.468 521.365 615.489 521.365 615.489C521.365 615.489 521.344 615.489 521.302 615.489H516.251C516.208 615.489 516.187 615.489 516.187 615.489C516.187 615.489 516.187 615.468 516.187 615.426V610.374C516.187 610.332 516.187 610.311 516.187 610.311C516.187 610.311 516.208 610.311 516.251 610.311ZM522.565 610.311H527.616C527.658 610.311 527.679 610.311 527.679 610.311C527.679 610.311 527.679 610.332 527.679 610.374V615.426C527.679 615.468 527.679 615.489 527.679 615.489C527.679 615.489 527.658 615.489 527.616 615.489H522.565C522.523 615.489 522.502 615.489 522.502 615.489C522.502 615.489 522.502 615.468 522.502 615.426V610.374C522.502 610.332 522.502 610.311 522.502 610.311C522.502 610.311 522.523 610.311 522.565 610.311ZM528.879 610.311H533.93C533.973 610.311 533.994 610.311 533.994 610.311C533.994 610.311 533.994 610.332 533.994 610.374V615.426C533.994 615.468 533.994 615.489 533.994 615.489C533.994 615.489 533.973 615.489 533.93 615.489H528.879C528.837 615.489 528.816 615.489 528.816 615.489C528.816 615.489 528.816 615.468 528.816 615.426V610.374C528.816 610.332 528.816 610.311 528.816 610.311C528.816 610.311 528.837 610.311 528.879 610.311ZM509.936 616.625H514.988C515.03 616.625 515.051 616.625 515.051 616.625C515.051 616.625 515.051 616.647 515.051 616.689V621.74C515.051 621.782 515.051 621.803 515.051 621.803C515.051 621.803 515.03 621.803 514.988 621.803H509.936C509.894 621.803 509.873 621.803 509.873 621.803C509.873 621.803 509.873 621.782 509.873 621.74V616.689C509.873 616.647 509.873 616.625 509.873 616.625C509.873 616.625 509.894 616.625 509.936 616.625ZM509.936 622.94H514.988C515.03 622.94 515.051 622.94 515.051 622.94C515.051 622.94 515.051 622.961 515.051 623.003V628.054C515.051 628.096 515.051 628.117 515.051 628.117C515.051 628.117 515.03 628.117 514.988 628.117H509.936C509.894 628.117 509.873 628.117 509.873 628.117C509.873 628.117 509.873 628.096 509.873 628.054V623.003C509.873 622.961 509.873 622.94 509.873 622.94C509.873 622.94 509.894 622.94 509.936 622.94ZM509.936 629.254H514.988C515.03 629.254 515.051 629.254 515.051 629.254C515.051 629.254 515.051 629.275 515.051 629.317V634.369C515.051 634.411 515.051 634.432 515.051 634.432C515.051 634.432 515.03 634.432 514.988 634.432H509.936C509.894 634.432 509.873 634.432 509.873 634.432C509.873 634.432 509.873 634.411 509.873 634.369V629.317C509.873 629.275 509.873 629.254 509.873 629.254C509.873 629.254 509.894 629.254 509.936 629.254ZM547.797 591.368H552.849C552.891 591.368 552.912 591.368 552.912 591.368C552.912 591.368 552.912 591.389 552.912 591.432V596.483C552.912 596.525 552.912 596.546 552.912 596.546C552.912 596.546 552.891 596.546 552.849 596.546H547.797C547.755 596.546 547.734 596.546 547.734 596.546C547.734 596.546 547.734 596.525 547.734 596.483V591.432C547.734 591.389 547.734 591.368 547.734 591.368C547.734 591.368 547.755 591.368 547.797 591.368ZM554.112 591.368H559.163C559.205 591.368 559.226 591.368 559.226 591.368C559.226 591.368 559.226 591.389 559.226 591.432V596.483C559.226 596.525 559.226 596.546 559.226 596.546C559.226 596.546 559.205 596.546 559.163 596.546H554.112C554.069 596.546 554.048 596.546 554.048 596.546C554.048 596.546 554.048 596.525 554.048 596.483V591.432C554.048 591.389 554.048 591.368 554.048 591.368C554.048 591.368 554.069 591.368 554.112 591.368ZM560.426 591.368H565.477C565.519 591.368 565.54 591.368 565.54 591.368C565.54 591.368 565.54 591.389 565.54 591.432V596.483C565.54 596.525 565.54 596.546 565.54 596.546C565.54 596.546 565.519 596.546 565.477 596.546H560.426C560.384 596.546 560.363 596.546 560.363 596.546C560.363 596.546 560.363 596.525 560.363 596.483V591.432C560.363 591.389 560.363 591.368 560.363 591.368C560.363 591.368 560.384 591.368 560.426 591.368ZM566.74 591.368H571.791C571.834 591.368 571.855 591.368 571.855 591.368C571.855 591.368 571.855 591.389 571.855 591.432V596.483C571.855 596.525 571.855 596.546 571.855 596.546C571.855 596.546 571.834 596.546 571.791 596.546H566.74C566.698 596.546 566.677 596.546 566.677 596.546C566.677 596.546 566.677 596.525 566.677 596.483V591.432C566.677 591.389 566.677 591.368 566.677 591.368C566.677 591.368 566.698 591.368 566.74 591.368ZM573.054 591.368H578.106C578.148 591.368 578.169 591.368 578.169 591.368C578.169 591.368 578.169 591.389 578.169 591.432V596.483C578.169 596.525 578.169 596.546 578.169 596.546C578.169 596.546 578.148 596.546 578.106 596.546H573.054C573.012 596.546 572.991 596.546 572.991 596.546C572.991 596.546 572.991 596.525 572.991 596.483V591.432C572.991 591.389 572.991 591.368 572.991 591.368C572.991 591.368 573.012 591.368 573.054 591.368ZM547.797 597.683H552.849C552.891 597.683 552.912 597.683 552.912 597.683C552.912 597.683 552.912 597.704 552.912 597.746V602.797C552.912 602.839 552.912 602.86 552.912 602.86C552.912 602.86 552.891 602.86 552.849 602.86H547.797C547.755 602.86 547.734 602.86 547.734 602.86C547.734 602.86 547.734 602.839 547.734 602.797V597.746C547.734 597.704 547.734 597.683 547.734 597.683C547.734 597.683 547.755 597.683 547.797 597.683ZM547.797 603.997H552.849C552.891 603.997 552.912 603.997 552.912 603.997C552.912 603.997 552.912 604.018 552.912 604.06V609.111C552.912 609.154 552.912 609.175 552.912 609.175C552.912 609.175 552.891 609.175 552.849 609.175H547.797C547.755 609.175 547.734 609.175 547.734 609.175C547.734 609.175 547.734 609.154 547.734 609.111V604.06C547.734 604.018 547.734 603.997 547.734 603.997C547.734 603.997 547.755 603.997 547.797 603.997ZM547.797 610.311H552.849C552.891 610.311 552.912 610.311 552.912 610.311C552.912 610.311 552.912 610.332 552.912 610.374V615.426C552.912 615.468 552.912 615.489 552.912 615.489C552.912 615.489 552.891 615.489 552.849 615.489H547.797C547.755 615.489 547.734 615.489 547.734 615.489C547.734 615.489 547.734 615.468 547.734 615.426V610.374C547.734 610.332 547.734 610.311 547.734 610.311C547.734 610.311 547.755 610.311 547.797 610.311ZM554.112 610.311H559.163C559.205 610.311 559.226 610.311 559.226 610.311C559.226 610.311 559.226 610.332 559.226 610.374V615.426C559.226 615.468 559.226 615.489 559.226 615.489C559.226 615.489 559.205 615.489 559.163 615.489H554.112C554.069 615.489 554.048 615.489 554.048 615.489C554.048 615.489 554.048 615.468 554.048 615.426V610.374C554.048 610.332 554.048 610.311 554.048 610.311C554.048 610.311 554.069 610.311 554.112 610.311ZM560.426 610.311H565.477C565.519 610.311 565.54 610.311 565.54 610.311C565.54 610.311 565.54 610.332 565.54 610.374V615.426C565.54 615.468 565.54 615.489 565.54 615.489C565.54 615.489 565.519 615.489 565.477 615.489H560.426C560.384 615.489 560.363 615.489 560.363 615.489C560.363 615.489 560.363 615.468 560.363 615.426V610.374C560.363 610.332 560.363 610.311 560.363 610.311C560.363 610.311 560.384 610.311 560.426 610.311ZM566.74 610.311H571.791C571.834 610.311 571.855 610.311 571.855 610.311C571.855 610.311 571.855 610.332 571.855 610.374V615.426C571.855 615.468 571.855 615.489 571.855 615.489C571.855 615.489 571.834 615.489 571.791 615.489H566.74C566.698 615.489 566.677 615.489 566.677 615.489C566.677 615.489 566.677 615.468 566.677 615.426V610.374C566.677 610.332 566.677 610.311 566.677 610.311C566.677 610.311 566.698 610.311 566.74 610.311ZM547.797 616.625H552.849C552.891 616.625 552.912 616.625 552.912 616.625C552.912 616.625 552.912 616.647 552.912 616.689V621.74C552.912 621.782 552.912 621.803 552.912 621.803C552.912 621.803 552.891 621.803 552.849 621.803H547.797C547.755 621.803 547.734 621.803 547.734 621.803C547.734 621.803 547.734 621.782 547.734 621.74V616.689C547.734 616.647 547.734 616.625 547.734 616.625C547.734 616.625 547.755 616.625 547.797 616.625ZM547.797 622.94H552.849C552.891 622.94 552.912 622.94 552.912 622.94C552.912 622.94 552.912 622.961 552.912 623.003V628.054C552.912 628.096 552.912 628.117 552.912 628.117C552.912 628.117 552.891 628.117 552.849 628.117H547.797C547.755 628.117 547.734 628.117 547.734 628.117C547.734 628.117 547.734 628.096 547.734 628.054V623.003C547.734 622.961 547.734 622.94 547.734 622.94C547.734 622.94 547.755 622.94 547.797 622.94ZM547.797 629.254H552.849C552.891 629.254 552.912 629.254 552.912 629.254C552.912 629.254 552.912 629.275 552.912 629.317V634.369C552.912 634.411 552.912 634.432 552.912 634.432C552.912 634.432 552.891 634.432 552.849 634.432H547.797C547.755 634.432 547.734 634.432 547.734 634.432C547.734 634.432 547.734 634.411 547.734 634.369V629.317C547.734 629.275 547.734 629.254 547.734 629.254C547.734 629.254 547.755 629.254 547.797 629.254ZM554.112 629.254H559.163C559.205 629.254 559.226 629.254 559.226 629.254C559.226 629.254 559.226 629.275 559.226 629.317V634.369C559.226 634.411 559.226 634.432 559.226 634.432C559.226 634.432 559.205 634.432 559.163 634.432H554.112C554.069 634.432 554.048 634.432 554.048 634.432C554.048 634.432 554.048 634.411 554.048 634.369V629.317C554.048 629.275 554.048 629.254 554.048 629.254C554.048 629.254 554.069 629.254 554.112 629.254ZM560.426 629.254H565.477C565.519 629.254 565.54 629.254 565.54 629.254C565.54 629.254 565.54 629.275 565.54 629.317V634.369C565.54 634.411 565.54 634.432 565.54 634.432C565.54 634.432 565.519 634.432 565.477 634.432H560.426C560.384 634.432 560.363 634.432 560.363 634.432C560.363 634.432 560.363 634.411 560.363 634.369V629.317C560.363 629.275 560.363 629.254 560.363 629.254C560.363 629.254 560.384 629.254 560.426 629.254ZM566.74 629.254H571.791C571.834 629.254 571.855 629.254 571.855 629.254C571.855 629.254 571.855 629.275 571.855 629.317V634.369C571.855 634.411 571.855 634.432 571.855 634.432C571.855 634.432 571.834 634.432 571.791 634.432H566.74C566.698 634.432 566.677 634.432 566.677 634.432C566.677 634.432 566.677 634.411 566.677 634.369V629.317C566.677 629.275 566.677 629.254 566.677 629.254C566.677 629.254 566.698 629.254 566.74 629.254ZM573.054 629.254H578.106C578.148 629.254 578.169 629.254 578.169 629.254C578.169 629.254 578.169 629.275 578.169 629.317V634.369C578.169 634.411 578.169 634.432 578.169 634.432C578.169 634.432 578.148 634.432 578.106 634.432H573.054C573.012 634.432 572.991 634.432 572.991 634.432C572.991 634.432 572.991 634.411 572.991 634.369V629.317C572.991 629.275 572.991 629.254 572.991 629.254C572.991 629.254 573.012 629.254 573.054 629.254ZM591.972 591.368H597.024C597.066 591.368 597.087 591.368 597.087 591.368C597.087 591.368 597.087 591.389 597.087 591.432V596.483C597.087 596.525 597.087 596.546 597.087 596.546C597.087 596.546 597.066 596.546 597.024 596.546H591.972C591.93 596.546 591.909 596.546 591.909 596.546C591.909 596.546 591.909 596.525 591.909 596.483V591.432C591.909 591.389 591.909 591.368 591.909 591.368C591.909 591.368 591.93 591.368 591.972 591.368ZM598.287 591.368H603.338C603.38 591.368 603.401 591.368 603.401 591.368C603.401 591.368 603.401 591.389 603.401 591.432V596.483C603.401 596.525 603.401 596.546 603.401 596.546C603.401 596.546 603.38 596.546 603.338 596.546H598.287C598.245 596.546 598.224 596.546 598.224 596.546C598.224 596.546 598.224 596.525 598.224 596.483V591.432C598.224 591.389 598.224 591.368 598.224 591.368C598.224 591.368 598.245 591.368 598.287 591.368ZM604.601 591.368H609.652C609.695 591.368 609.716 591.368 609.716 591.368C609.716 591.368 609.716 591.389 609.716 591.432V596.483C609.716 596.525 609.716 596.546 609.716 596.546C609.716 596.546 609.695 596.546 609.652 596.546H604.601C604.559 596.546 604.538 596.546 604.538 596.546C604.538 596.546 604.538 596.525 604.538 596.483V591.432C604.538 591.389 604.538 591.368 604.538 591.368C604.538 591.368 604.559 591.368 604.601 591.368ZM585.658 597.683H590.71C590.752 597.683 590.773 597.683 590.773 597.683C590.773 597.683 590.773 597.704 590.773 597.746V602.797C590.773 602.839 590.773 602.86 590.773 602.86C590.773 602.86 590.752 602.86 590.71 602.86H585.658C585.616 602.86 585.595 602.86 585.595 602.86C585.595 602.86 585.595 602.839 585.595 602.797V597.746C585.595 597.704 585.595 597.683 585.595 597.683C585.595 597.683 585.616 597.683 585.658 597.683ZM610.915 597.683H615.967C616.009 597.683 616.03 597.683 616.03 597.683C616.03 597.683 616.03 597.704 616.03 597.746V602.797C616.03 602.839 616.03 602.86 616.03 602.86C616.03 602.86 616.009 602.86 615.967 602.86H610.915C610.873 602.86 610.852 602.86 610.852 602.86C610.852 602.86 610.852 602.839 610.852 602.797V597.746C610.852 597.704 610.852 597.683 610.852 597.683C610.852 597.683 610.873 597.683 610.915 597.683ZM585.658 603.997H590.71C590.752 603.997 590.773 603.997 590.773 603.997C590.773 603.997 590.773 604.018 590.773 604.06V609.111C590.773 609.154 590.773 609.175 590.773 609.175C590.773 609.175 590.752 609.175 590.71 609.175H585.658C585.616 609.175 585.595 609.175 585.595 609.175C585.595 609.175 585.595 609.154 585.595 609.111V604.06C585.595 604.018 585.595 603.997 585.595 603.997C585.595 603.997 585.616 603.997 585.658 603.997ZM591.972 610.311H597.024C597.066 610.311 597.087 610.311 597.087 610.311C597.087 610.311 597.087 610.332 597.087 610.374V615.426C597.087 615.468 597.087 615.489 597.087 615.489C597.087 615.489 597.066 615.489 597.024 615.489H591.972C591.93 615.489 591.909 615.489 591.909 615.489C591.909 615.489 591.909 615.468 591.909 615.426V610.374C591.909 610.332 591.909 610.311 591.909 610.311C591.909 610.311 591.93 610.311 591.972 610.311ZM598.287 610.311H603.338C603.38 610.311 603.401 610.311 603.401 610.311C603.401 610.311 603.401 610.332 603.401 610.374V615.426C603.401 615.468 603.401 615.489 603.401 615.489C603.401 615.489 603.38 615.489 603.338 615.489H598.287C598.245 615.489 598.224 615.489 598.224 615.489C598.224 615.489 598.224 615.468 598.224 615.426V610.374C598.224 610.332 598.224 610.311 598.224 610.311C598.224 610.311 598.245 610.311 598.287 610.311ZM604.601 610.311H609.652C609.695 610.311 609.716 610.311 609.716 610.311C609.716 610.311 609.716 610.332 609.716 610.374V615.426C609.716 615.468 609.716 615.489 609.716 615.489C609.716 615.489 609.695 615.489 609.652 615.489H604.601C604.559 615.489 604.538 615.489 604.538 615.489C604.538 615.489 604.538 615.468 604.538 615.426V610.374C604.538 610.332 604.538 610.311 604.538 610.311C604.538 610.311 604.559 610.311 604.601 610.311ZM610.915 616.625H615.967C616.009 616.625 616.03 616.625 616.03 616.625C616.03 616.625 616.03 616.647 616.03 616.689V621.74C616.03 621.782 616.03 621.803 616.03 621.803C616.03 621.803 616.009 621.803 615.967 621.803H610.915C610.873 621.803 610.852 621.803 610.852 621.803C610.852 621.803 610.852 621.782 610.852 621.74V616.689C610.852 616.647 610.852 616.625 610.852 616.625C610.852 616.625 610.873 616.625 610.915 616.625ZM585.658 622.94H590.71C590.752 622.94 590.773 622.94 590.773 622.94C590.773 622.94 590.773 622.961 590.773 623.003V628.054C590.773 628.096 590.773 628.117 590.773 628.117C590.773 628.117 590.752 628.117 590.71 628.117H585.658C585.616 628.117 585.595 628.117 585.595 628.117C585.595 628.117 585.595 628.096 585.595 628.054V623.003C585.595 622.961 585.595 622.94 585.595 622.94C585.595 622.94 585.616 622.94 585.658 622.94ZM610.915 622.94H615.967C616.009 622.94 616.03 622.94 616.03 622.94C616.03 622.94 616.03 622.961 616.03 623.003V628.054C616.03 628.096 616.03 628.117 616.03 628.117C616.03 628.117 616.009 628.117 615.967 628.117H610.915C610.873 628.117 610.852 628.117 610.852 628.117C610.852 628.117 610.852 628.096 610.852 628.054V623.003C610.852 622.961 610.852 622.94 610.852 622.94C610.852 622.94 610.873 622.94 610.915 622.94ZM591.972 629.254H597.024C597.066 629.254 597.087 629.254 597.087 629.254C597.087 629.254 597.087 629.275 597.087 629.317V634.369C597.087 634.411 597.087 634.432 597.087 634.432C597.087 634.432 597.066 634.432 597.024 634.432H591.972C591.93 634.432 591.909 634.432 591.909 634.432C591.909 634.432 591.909 634.411 591.909 634.369V629.317C591.909 629.275 591.909 629.254 591.909 629.254C591.909 629.254 591.93 629.254 591.972 629.254ZM598.287 629.254H603.338C603.38 629.254 603.401 629.254 603.401 629.254C603.401 629.254 603.401 629.275 603.401 629.317V634.369C603.401 634.411 603.401 634.432 603.401 634.432C603.401 634.432 603.38 634.432 603.338 634.432H598.287C598.245 634.432 598.224 634.432 598.224 634.432C598.224 634.432 598.224 634.411 598.224 634.369V629.317C598.224 629.275 598.224 629.254 598.224 629.254C598.224 629.254 598.245 629.254 598.287 629.254ZM604.601 629.254H609.652C609.695 629.254 609.716 629.254 609.716 629.254C609.716 629.254 609.716 629.275 609.716 629.317V634.369C609.716 634.411 609.716 634.432 609.716 634.432C609.716 634.432 609.695 634.432 609.652 634.432H604.601C604.559 634.432 604.538 634.432 604.538 634.432C604.538 634.432 604.538 634.411 604.538 634.369V629.317C604.538 629.275 604.538 629.254 604.538 629.254C604.538 629.254 604.559 629.254 604.601 629.254ZM623.519 591.368H628.571C628.613 591.368 628.634 591.368 628.634 591.368C628.634 591.368 628.634 591.389 628.634 591.432V596.483C628.634 596.525 628.634 596.546 628.634 596.546C628.634 596.546 628.613 596.546 628.571 596.546H623.519C623.477 596.546 623.456 596.546 623.456 596.546C623.456 596.546 623.456 596.525 623.456 596.483V591.432C623.456 591.389 623.456 591.368 623.456 591.368C623.456 591.368 623.477 591.368 623.519 591.368ZM629.833 591.368H634.885C634.927 591.368 634.948 591.368 634.948 591.368C634.948 591.368 634.948 591.389 634.948 591.432V596.483C634.948 596.525 634.948 596.546 634.948 596.546C634.948 596.546 634.927 596.546 634.885 596.546H629.833C629.791 596.546 629.77 596.546 629.77 596.546C629.77 596.546 629.77 596.525 629.77 596.483V591.432C629.77 591.389 629.77 591.368 629.77 591.368C629.77 591.368 629.791 591.368 629.833 591.368ZM636.148 591.368H641.199C641.241 591.368 641.262 591.368 641.262 591.368C641.262 591.368 641.262 591.389 641.262 591.432V596.483C641.262 596.525 641.262 596.546 641.262 596.546C641.262 596.546 641.241 596.546 641.199 596.546H636.148C636.106 596.546 636.085 596.546 636.085 596.546C636.085 596.546 636.085 596.525 636.085 596.483V591.432C636.085 591.389 636.085 591.368 636.085 591.368C636.085 591.368 636.106 591.368 636.148 591.368ZM642.462 591.368H647.513C647.555 591.368 647.577 591.368 647.577 591.368C647.577 591.368 647.577 591.389 647.577 591.432V596.483C647.577 596.525 647.577 596.546 647.577 596.546C647.577 596.546 647.555 596.546 647.513 596.546H642.462C642.42 596.546 642.399 596.546 642.399 596.546C642.399 596.546 642.399 596.525 642.399 596.483V591.432C642.399 591.389 642.399 591.368 642.399 591.368C642.399 591.368 642.42 591.368 642.462 591.368ZM648.776 591.368H653.828C653.87 591.368 653.891 591.368 653.891 591.368C653.891 591.368 653.891 591.389 653.891 591.432V596.483C653.891 596.525 653.891 596.546 653.891 596.546C653.891 596.546 653.87 596.546 653.828 596.546H648.776C648.734 596.546 648.713 596.546 648.713 596.546C648.713 596.546 648.713 596.525 648.713 596.483V591.432C648.713 591.389 648.713 591.368 648.713 591.368C648.713 591.368 648.734 591.368 648.776 591.368ZM636.148 597.683H641.199C641.241 597.683 641.262 597.683 641.262 597.683C641.262 597.683 641.262 597.704 641.262 597.746V602.797C641.262 602.839 641.262 602.86 641.262 602.86C641.262 602.86 641.241 602.86 641.199 602.86H636.148C636.106 602.86 636.085 602.86 636.085 602.86C636.085 602.86 636.085 602.839 636.085 602.797V597.746C636.085 597.704 636.085 597.683 636.085 597.683C636.085 597.683 636.106 597.683 636.148 597.683ZM636.148 603.997H641.199C641.241 603.997 641.262 603.997 641.262 603.997C641.262 603.997 641.262 604.018 641.262 604.06V609.111C641.262 609.154 641.262 609.175 641.262 609.175C641.262 609.175 641.241 609.175 641.199 609.175H636.148C636.106 609.175 636.085 609.175 636.085 609.175C636.085 609.175 636.085 609.154 636.085 609.111V604.06C636.085 604.018 636.085 603.997 636.085 603.997C636.085 603.997 636.106 603.997 636.148 603.997ZM636.148 610.311H641.199C641.241 610.311 641.262 610.311 641.262 610.311C641.262 610.311 641.262 610.332 641.262 610.374V615.426C641.262 615.468 641.262 615.489 641.262 615.489C641.262 615.489 641.241 615.489 641.199 615.489H636.148C636.106 615.489 636.085 615.489 636.085 615.489C636.085 615.489 636.085 615.468 636.085 615.426V610.374C636.085 610.332 636.085 610.311 636.085 610.311C636.085 610.311 636.106 610.311 636.148 610.311ZM636.148 616.625H641.199C641.241 616.625 641.262 616.625 641.262 616.625C641.262 616.625 641.262 616.647 641.262 616.689V621.74C641.262 621.782 641.262 621.803 641.262 621.803C641.262 621.803 641.241 621.803 641.199 621.803H636.148C636.106 621.803 636.085 621.803 636.085 621.803C636.085 621.803 636.085 621.782 636.085 621.74V616.689C636.085 616.647 636.085 616.625 636.085 616.625C636.085 616.625 636.106 616.625 636.148 616.625ZM636.148 622.94H641.199C641.241 622.94 641.262 622.94 641.262 622.94C641.262 622.94 641.262 622.961 641.262 623.003V628.054C641.262 628.096 641.262 628.117 641.262 628.117C641.262 628.117 641.241 628.117 641.199 628.117H636.148C636.106 628.117 636.085 628.117 636.085 628.117C636.085 628.117 636.085 628.096 636.085 628.054V623.003C636.085 622.961 636.085 622.94 636.085 622.94C636.085 622.94 636.106 622.94 636.148 622.94ZM636.148 629.254H641.199C641.241 629.254 641.262 629.254 641.262 629.254C641.262 629.254 641.262 629.275 641.262 629.317V634.369C641.262 634.411 641.262 634.432 641.262 634.432C641.262 634.432 641.241 634.432 641.199 634.432H636.148C636.106 634.432 636.085 634.432 636.085 634.432C636.085 634.432 636.085 634.411 636.085 634.369V629.317C636.085 629.275 636.085 629.254 636.085 629.254C636.085 629.254 636.106 629.254 636.148 629.254Z" fill="black"/>
</svg>
