<svg width="1080" height="1080" viewBox="0 0 1080 1080" fill="none" xmlns="http://www.w3.org/2000/svg">
<rect width="1080" height="1080" fill="white"/>
<path d="M236 324.717C236 324.004 236.578 323.426 237.291 323.426C256.413 323.426 280.215 323.426 285.508 314.261C287.487 310.816 286.728 305.999 283.226 299.936C282.876 299.316 283.085 298.528 283.7 298.173C283.905 298.055 284.126 298 284.345 298C284.792 298 285.226 298.232 285.464 298.645C291.54 309.173 295.933 316.78 299.025 316.78C302.117 316.78 306.509 309.173 312.587 298.645C312.826 298.232 313.259 298 313.705 298C313.923 298 314.147 298.055 314.35 298.173C314.965 298.528 315.18 299.316 314.822 299.936C311.056 306.459 310.172 311.536 312.18 315.026C317.03 323.426 338.111 323.426 356.709 323.426C357.422 323.426 358 324.004 358 324.717C358 325.429 357.422 326.007 356.709 326.007C338.111 326.007 317.03 326.007 312.18 334.409C310.167 337.894 311.055 342.976 314.822 349.499C315.177 350.101 314.97 350.897 314.35 351.264C314.147 351.381 313.923 351.435 313.705 351.435C313.259 351.435 312.826 351.203 312.587 350.79C306.509 340.26 302.117 332.655 299.025 332.655C295.933 332.655 291.54 340.261 285.464 350.79C285.226 351.203 284.792 351.435 284.345 351.435C284.126 351.435 283.905 351.381 283.7 351.264C283.081 350.898 282.883 350.101 283.226 349.499C286.731 343.44 287.487 338.614 285.508 335.172C280.215 326.007 256.413 326.007 237.291 326.007C236.578 326.007 236 325.429 236 324.717Z" fill="#081219"/>
<path d="M494.154 338V311.476H511.482V315.58H499.132V322.496H510.266V326.6H499.132V338H494.154ZM525.185 338.456C523.462 338.456 521.968 338.152 520.701 337.544C519.434 336.911 518.383 336.011 517.547 334.846C516.736 333.681 516.128 332.249 515.723 330.552C515.343 328.855 515.153 326.917 515.153 324.738C515.153 322.585 515.343 320.659 515.723 318.962C516.128 317.239 516.736 315.795 517.547 314.63C518.383 313.465 519.434 312.578 520.701 311.97C521.968 311.337 523.462 311.02 525.185 311.02C528.63 311.02 531.164 312.223 532.785 314.63C534.406 317.037 535.217 320.406 535.217 324.738C535.217 329.07 534.406 332.439 532.785 334.846C531.164 337.253 528.63 338.456 525.185 338.456ZM525.185 334.39C526.072 334.39 526.819 334.225 527.427 333.896C528.035 333.541 528.516 333.047 528.871 332.414C529.251 331.781 529.517 331.008 529.669 330.096C529.846 329.159 529.935 328.12 529.935 326.98V322.458C529.935 320.178 529.58 318.379 528.871 317.062C528.187 315.745 526.958 315.086 525.185 315.086C523.412 315.086 522.17 315.745 521.461 317.062C520.777 318.379 520.435 320.178 520.435 322.458V327.018C520.435 329.298 520.777 331.097 521.461 332.414C522.17 333.731 523.412 334.39 525.185 334.39ZM544.588 338H539.61V311.476H549.68C552.264 311.476 554.24 312.211 555.608 313.68C556.976 315.149 557.66 317.151 557.66 319.684C557.66 321.635 557.204 323.281 556.292 324.624C555.406 325.941 554.126 326.777 552.454 327.132L558.116 338H552.644L547.59 327.702H544.588V338ZM548.654 323.826C549.997 323.826 550.96 323.56 551.542 323.028C552.125 322.471 552.416 321.597 552.416 320.406V318.962C552.416 317.771 552.125 316.91 551.542 316.378C550.96 315.821 549.997 315.542 548.654 315.542H544.588V323.826H548.654ZM571.439 338.456C567.969 338.456 565.397 337.265 563.725 334.884C562.079 332.503 561.255 329.121 561.255 324.738C561.255 320.381 562.079 317.011 563.725 314.63C565.397 312.223 567.969 311.02 571.439 311.02C572.757 311.02 573.909 311.197 574.897 311.552C575.911 311.907 576.785 312.401 577.519 313.034C578.254 313.642 578.862 314.389 579.343 315.276C579.825 316.137 580.205 317.087 580.483 318.126L575.923 319.418C575.746 318.81 575.543 318.24 575.315 317.708C575.087 317.176 574.796 316.72 574.441 316.34C574.112 315.935 573.694 315.631 573.187 315.428C572.681 315.2 572.073 315.086 571.363 315.086C569.641 315.086 568.399 315.745 567.639 317.062C566.905 318.379 566.537 320.178 566.537 322.458V327.018C566.537 329.298 566.905 331.097 567.639 332.414C568.399 333.731 569.641 334.39 571.363 334.39C572.073 334.39 572.681 334.289 573.187 334.086C573.694 333.858 574.112 333.554 574.441 333.174C574.796 332.769 575.087 332.3 575.315 331.768C575.543 331.236 575.746 330.666 575.923 330.058L580.483 331.35C580.205 332.389 579.825 333.351 579.343 334.238C578.862 335.099 578.254 335.847 577.519 336.48C576.785 337.088 575.911 337.569 574.897 337.924C573.909 338.279 572.757 338.456 571.439 338.456ZM585.295 338V311.476H602.053V315.58H590.273V322.496H601.635V326.6H590.273V333.896H602.053V338H585.295ZM631.169 338V333.934H638.465V315.086H638.123L632.347 321.926L629.231 319.304L635.805 311.476H643.443V333.934H649.447V338H631.169ZM670.18 315.808H658.02L657.374 324.7H657.678C657.982 324.143 658.311 323.636 658.666 323.18C659.021 322.699 659.426 322.293 659.882 321.964C660.363 321.635 660.895 321.381 661.478 321.204C662.086 321.027 662.783 320.938 663.568 320.938C664.683 320.938 665.734 321.128 666.722 321.508C667.71 321.888 668.571 322.433 669.306 323.142C670.041 323.851 670.611 324.725 671.016 325.764C671.447 326.803 671.662 327.981 671.662 329.298C671.662 330.615 671.434 331.831 670.978 332.946C670.547 334.061 669.901 335.036 669.04 335.872C668.204 336.683 667.165 337.316 665.924 337.772C664.708 338.228 663.302 338.456 661.706 338.456C660.465 338.456 659.35 338.317 658.362 338.038C657.399 337.785 656.551 337.43 655.816 336.974C655.081 336.518 654.435 335.999 653.878 335.416C653.321 334.808 652.839 334.187 652.434 333.554L656.044 330.704C656.348 331.211 656.677 331.692 657.032 332.148C657.412 332.579 657.83 332.959 658.286 333.288C658.742 333.617 659.249 333.883 659.806 334.086C660.389 334.263 661.047 334.352 661.782 334.352C663.302 334.352 664.455 333.947 665.24 333.136C666.051 332.3 666.456 331.16 666.456 329.716V329.412C666.456 328.019 666.051 326.929 665.24 326.144C664.429 325.359 663.289 324.966 661.82 324.966C660.705 324.966 659.793 325.181 659.084 325.612C658.4 326.017 657.843 326.461 657.412 326.942L653.346 326.372L654.334 311.476H670.18V315.808Z" fill="black"/>
<path d="M499.344 432.336C497.589 432.336 496.152 432.019 495.032 431.384C493.912 430.731 492.988 429.9 492.26 428.892L493.968 427.492C494.733 428.444 495.536 429.153 496.376 429.62C497.235 430.087 498.252 430.32 499.428 430.32C500.847 430.32 501.929 429.993 502.676 429.34C503.423 428.687 503.796 427.772 503.796 426.596C503.796 425.644 503.525 424.907 502.984 424.384C502.443 423.843 501.5 423.46 500.156 423.236L497.972 422.872C497.02 422.704 496.217 422.452 495.564 422.116C494.929 421.78 494.416 421.379 494.024 420.912C493.632 420.427 493.352 419.904 493.184 419.344C493.016 418.765 492.932 418.168 492.932 417.552C492.932 415.76 493.52 414.407 494.696 413.492C495.872 412.577 497.459 412.12 499.456 412.12C501.024 412.12 502.34 412.381 503.404 412.904C504.487 413.427 505.355 414.164 506.008 415.116L504.356 416.544C503.815 415.835 503.161 415.256 502.396 414.808C501.631 414.36 500.641 414.136 499.428 414.136C498.103 414.136 497.085 414.416 496.376 414.976C495.667 415.536 495.312 416.376 495.312 417.496C495.312 418.373 495.573 419.092 496.096 419.652C496.637 420.193 497.599 420.585 498.98 420.828L501.08 421.192C502.032 421.36 502.835 421.612 503.488 421.948C504.141 422.284 504.664 422.685 505.056 423.152C505.467 423.619 505.756 424.141 505.924 424.72C506.092 425.299 506.176 425.905 506.176 426.54C506.176 428.351 505.579 429.769 504.384 430.796C503.208 431.823 501.528 432.336 499.344 432.336ZM521.229 412.456V426.932C521.229 427.753 521.089 428.5 520.809 429.172C520.529 429.844 520.128 430.413 519.605 430.88C519.101 431.347 518.494 431.711 517.785 431.972C517.076 432.215 516.301 432.336 515.461 432.336C513.968 432.336 512.736 431.953 511.765 431.188C510.794 430.404 510.16 429.312 509.861 427.912L512.101 427.436C512.194 427.828 512.316 428.201 512.465 428.556C512.633 428.892 512.848 429.191 513.109 429.452C513.389 429.695 513.725 429.891 514.117 430.04C514.509 430.189 514.976 430.264 515.517 430.264C516.581 430.264 517.402 429.965 517.981 429.368C518.578 428.752 518.877 427.8 518.877 426.512V414.5H511.821V412.456H521.229ZM528.918 424.664V422.312H537.038V424.664H528.918ZM543.747 432V429.956H549.347V414.192H549.151L544.223 418.784L542.851 417.3L548.031 412.456H551.699V429.956H556.851V432H543.747ZM573.192 432H560.144V429.592L566.668 423.712C567.62 422.853 568.404 421.976 569.02 421.08C569.636 420.165 569.944 419.204 569.944 418.196V417.86C569.944 416.684 569.636 415.779 569.02 415.144C568.404 414.491 567.49 414.164 566.276 414.164C565.082 414.164 564.158 414.472 563.504 415.088C562.87 415.685 562.394 416.488 562.076 417.496L559.976 416.712C560.163 416.133 560.415 415.573 560.732 415.032C561.068 414.472 561.488 413.977 561.992 413.548C562.496 413.119 563.103 412.773 563.812 412.512C564.54 412.251 565.38 412.12 566.332 412.12C567.303 412.12 568.162 412.26 568.908 412.54C569.674 412.82 570.308 413.212 570.812 413.716C571.335 414.22 571.727 414.817 571.988 415.508C572.268 416.199 572.408 416.955 572.408 417.776C572.408 418.523 572.296 419.223 572.072 419.876C571.867 420.529 571.568 421.155 571.176 421.752C570.803 422.349 570.346 422.937 569.804 423.516C569.282 424.076 568.694 424.636 568.04 425.196L562.58 429.956H573.192V432ZM583.345 432.336C582.151 432.336 581.124 432.112 580.265 431.664C579.407 431.197 578.697 430.535 578.137 429.676C577.577 428.817 577.167 427.763 576.905 426.512C576.644 425.261 576.513 423.833 576.513 422.228C576.513 420.641 576.644 419.223 576.905 417.972C577.167 416.703 577.577 415.639 578.137 414.78C578.697 413.921 579.407 413.268 580.265 412.82C581.124 412.353 582.151 412.12 583.345 412.12C584.54 412.12 585.567 412.353 586.425 412.82C587.284 413.268 587.993 413.921 588.553 414.78C589.113 415.639 589.524 416.703 589.785 417.972C590.047 419.223 590.177 420.641 590.177 422.228C590.177 423.833 590.047 425.261 589.785 426.512C589.524 427.763 589.113 428.817 588.553 429.676C587.993 430.535 587.284 431.197 586.425 431.664C585.567 432.112 584.54 432.336 583.345 432.336ZM583.345 430.292C584.129 430.292 584.801 430.143 585.361 429.844C585.921 429.527 586.369 429.088 586.705 428.528C587.06 427.968 587.321 427.296 587.489 426.512C587.657 425.709 587.741 424.813 587.741 423.824V420.632C587.741 419.661 587.657 418.775 587.489 417.972C587.321 417.169 587.06 416.488 586.705 415.928C586.369 415.368 585.921 414.939 585.361 414.64C584.801 414.323 584.129 414.164 583.345 414.164C582.561 414.164 581.889 414.323 581.329 414.64C580.769 414.939 580.312 415.368 579.957 415.928C579.621 416.488 579.369 417.169 579.201 417.972C579.033 418.775 578.949 419.661 578.949 420.632V423.824C578.949 424.813 579.033 425.709 579.201 426.512C579.369 427.296 579.621 427.968 579.957 428.528C580.312 429.088 580.769 429.527 581.329 429.844C581.889 430.143 582.561 430.292 583.345 430.292ZM583.345 423.88C582.692 423.88 582.235 423.749 581.973 423.488C581.731 423.227 581.609 422.909 581.609 422.536V421.92C581.609 421.547 581.731 421.229 581.973 420.968C582.235 420.707 582.692 420.576 583.345 420.576C583.999 420.576 584.447 420.707 584.689 420.968C584.951 421.229 585.081 421.547 585.081 421.92V422.536C585.081 422.909 584.951 423.227 584.689 423.488C584.447 423.749 583.999 423.88 583.345 423.88ZM606.77 432H593.722V429.592L600.246 423.712C601.198 422.853 601.982 421.976 602.598 421.08C603.214 420.165 603.522 419.204 603.522 418.196V417.86C603.522 416.684 603.214 415.779 602.598 415.144C601.982 414.491 601.068 414.164 599.854 414.164C598.66 414.164 597.736 414.472 597.082 415.088C596.448 415.685 595.972 416.488 595.654 417.496L593.554 416.712C593.741 416.133 593.993 415.573 594.31 415.032C594.646 414.472 595.066 413.977 595.57 413.548C596.074 413.119 596.681 412.773 597.39 412.512C598.118 412.251 598.958 412.12 599.91 412.12C600.881 412.12 601.74 412.26 602.486 412.54C603.252 412.82 603.886 413.212 604.39 413.716C604.913 414.22 605.305 414.817 605.566 415.508C605.846 416.199 605.986 416.955 605.986 417.776C605.986 418.523 605.874 419.223 605.65 419.876C605.445 420.529 605.146 421.155 604.754 421.752C604.381 422.349 603.924 422.937 603.382 423.516C602.86 424.076 602.272 424.636 601.618 425.196L596.158 429.956H606.77V432ZM616.923 432.336C615.729 432.336 614.702 432.112 613.843 431.664C612.985 431.197 612.275 430.535 611.715 429.676C611.155 428.817 610.745 427.763 610.483 426.512C610.222 425.261 610.091 423.833 610.091 422.228C610.091 420.641 610.222 419.223 610.483 417.972C610.745 416.703 611.155 415.639 611.715 414.78C612.275 413.921 612.985 413.268 613.843 412.82C614.702 412.353 615.729 412.12 616.923 412.12C618.118 412.12 619.145 412.353 620.003 412.82C620.862 413.268 621.571 413.921 622.131 414.78C622.691 415.639 623.102 416.703 623.363 417.972C623.625 419.223 623.755 420.641 623.755 422.228C623.755 423.833 623.625 425.261 623.363 426.512C623.102 427.763 622.691 428.817 622.131 429.676C621.571 430.535 620.862 431.197 620.003 431.664C619.145 432.112 618.118 432.336 616.923 432.336ZM616.923 430.292C617.707 430.292 618.379 430.143 618.939 429.844C619.499 429.527 619.947 429.088 620.283 428.528C620.638 427.968 620.899 427.296 621.067 426.512C621.235 425.709 621.319 424.813 621.319 423.824V420.632C621.319 419.661 621.235 418.775 621.067 417.972C620.899 417.169 620.638 416.488 620.283 415.928C619.947 415.368 619.499 414.939 618.939 414.64C618.379 414.323 617.707 414.164 616.923 414.164C616.139 414.164 615.467 414.323 614.907 414.64C614.347 414.939 613.89 415.368 613.535 415.928C613.199 416.488 612.947 417.169 612.779 417.972C612.611 418.775 612.527 419.661 612.527 420.632V423.824C612.527 424.813 612.611 425.709 612.779 426.512C612.947 427.296 613.199 427.968 613.535 428.528C613.89 429.088 614.347 429.527 614.907 429.844C615.467 430.143 616.139 430.292 616.923 430.292ZM616.923 423.88C616.27 423.88 615.813 423.749 615.551 423.488C615.309 423.227 615.187 422.909 615.187 422.536V421.92C615.187 421.547 615.309 421.229 615.551 420.968C615.813 420.707 616.27 420.576 616.923 420.576C617.577 420.576 618.025 420.707 618.267 420.968C618.529 421.229 618.659 421.547 618.659 421.92V422.536C618.659 422.909 618.529 423.227 618.267 423.488C618.025 423.749 617.577 423.88 616.923 423.88ZM633.713 432.336C632.518 432.336 631.491 432.112 630.633 431.664C629.774 431.197 629.065 430.535 628.505 429.676C627.945 428.817 627.534 427.763 627.273 426.512C627.011 425.261 626.881 423.833 626.881 422.228C626.881 420.641 627.011 419.223 627.273 417.972C627.534 416.703 627.945 415.639 628.505 414.78C629.065 413.921 629.774 413.268 630.633 412.82C631.491 412.353 632.518 412.12 633.713 412.12C634.907 412.12 635.934 412.353 636.793 412.82C637.651 413.268 638.361 413.921 638.921 414.78C639.481 415.639 639.891 416.703 640.153 417.972C640.414 419.223 640.545 420.641 640.545 422.228C640.545 423.833 640.414 425.261 640.153 426.512C639.891 427.763 639.481 428.817 638.921 429.676C638.361 430.535 637.651 431.197 636.793 431.664C635.934 432.112 634.907 432.336 633.713 432.336ZM633.713 430.292C634.497 430.292 635.169 430.143 635.729 429.844C636.289 429.527 636.737 429.088 637.073 428.528C637.427 427.968 637.689 427.296 637.857 426.512C638.025 425.709 638.109 424.813 638.109 423.824V420.632C638.109 419.661 638.025 418.775 637.857 417.972C637.689 417.169 637.427 416.488 637.073 415.928C636.737 415.368 636.289 414.939 635.729 414.64C635.169 414.323 634.497 414.164 633.713 414.164C632.929 414.164 632.257 414.323 631.697 414.64C631.137 414.939 630.679 415.368 630.325 415.928C629.989 416.488 629.737 417.169 629.569 417.972C629.401 418.775 629.317 419.661 629.317 420.632V423.824C629.317 424.813 629.401 425.709 629.569 426.512C629.737 427.296 629.989 427.968 630.325 428.528C630.679 429.088 631.137 429.527 631.697 429.844C632.257 430.143 632.929 430.292 633.713 430.292ZM633.713 423.88C633.059 423.88 632.602 423.749 632.341 423.488C632.098 423.227 631.977 422.909 631.977 422.536V421.92C631.977 421.547 632.098 421.229 632.341 420.968C632.602 420.707 633.059 420.576 633.713 420.576C634.366 420.576 634.814 420.707 635.057 420.968C635.318 421.229 635.449 421.547 635.449 421.92V422.536C635.449 422.909 635.318 423.227 635.057 423.488C634.814 423.749 634.366 423.88 633.713 423.88ZM657.138 432H644.09V429.592L650.614 423.712C651.566 422.853 652.35 421.976 652.966 421.08C653.582 420.165 653.89 419.204 653.89 418.196V417.86C653.89 416.684 653.582 415.779 652.966 415.144C652.35 414.491 651.435 414.164 650.222 414.164C649.027 414.164 648.103 414.472 647.45 415.088C646.815 415.685 646.339 416.488 646.022 417.496L643.922 416.712C644.108 416.133 644.36 415.573 644.678 415.032C645.014 414.472 645.434 413.977 645.938 413.548C646.442 413.119 647.048 412.773 647.758 412.512C648.486 412.251 649.326 412.12 650.278 412.12C651.248 412.12 652.107 412.26 652.854 412.54C653.619 412.82 654.254 413.212 654.758 413.716C655.28 414.22 655.672 414.817 655.934 415.508C656.214 416.199 656.354 416.955 656.354 417.776C656.354 418.523 656.242 419.223 656.018 419.876C655.812 420.529 655.514 421.155 655.122 421.752C654.748 422.349 654.291 422.937 653.75 423.516C653.227 424.076 652.639 424.636 651.986 425.196L646.526 429.956H657.138V432ZM667.291 432.336C666.152 432.336 665.153 432.196 664.295 431.916C663.436 431.617 662.717 431.216 662.139 430.712C661.579 430.208 661.149 429.611 660.851 428.92C660.571 428.229 660.431 427.483 660.431 426.68C660.431 425.336 660.795 424.272 661.523 423.488C662.251 422.704 663.212 422.153 664.407 421.836V421.612C663.361 421.257 662.531 420.688 661.915 419.904C661.317 419.101 661.019 418.14 661.019 417.02C661.019 415.527 661.569 414.341 662.671 413.464C663.772 412.568 665.312 412.12 667.291 412.12C669.269 412.12 670.809 412.568 671.911 413.464C673.012 414.341 673.563 415.527 673.563 417.02C673.563 418.14 673.255 419.101 672.639 419.904C672.041 420.688 671.22 421.257 670.175 421.612V421.836C671.369 422.153 672.331 422.704 673.059 423.488C673.787 424.272 674.151 425.336 674.151 426.68C674.151 427.483 674.001 428.229 673.703 428.92C673.423 429.611 672.993 430.208 672.415 430.712C671.836 431.216 671.117 431.617 670.259 431.916C669.419 432.196 668.429 432.336 667.291 432.336ZM667.291 430.348C668.672 430.348 669.755 430.04 670.539 429.424C671.323 428.808 671.715 427.94 671.715 426.82V426.204C671.715 425.084 671.323 424.216 670.539 423.6C669.773 422.984 668.691 422.676 667.291 422.676C665.891 422.676 664.799 422.984 664.015 423.6C663.249 424.216 662.867 425.084 662.867 426.204V426.82C662.867 427.94 663.259 428.808 664.043 429.424C664.827 430.04 665.909 430.348 667.291 430.348ZM667.291 420.772C668.56 420.772 669.521 420.501 670.175 419.96C670.847 419.419 671.183 418.644 671.183 417.636V417.244C671.183 416.236 670.837 415.461 670.147 414.92C669.475 414.379 668.523 414.108 667.291 414.108C666.059 414.108 665.097 414.379 664.407 414.92C663.735 415.461 663.399 416.236 663.399 417.244V417.636C663.399 418.644 663.725 419.419 664.379 419.96C665.051 420.501 666.021 420.772 667.291 420.772Z" fill="black"/>
<path d="M248.74 422.2V416.012H248.516L244.4 426.064L240.284 416.012H240.06V422.2V432H237.904V412.456H240.928L244.372 421.08H244.54L247.984 412.456H250.896V432H248.74V422.2ZM261.189 432.336C259.994 432.336 258.968 432.112 258.109 431.664C257.25 431.197 256.541 430.535 255.981 429.676C255.421 428.817 255.01 427.763 254.749 426.512C254.488 425.261 254.357 423.833 254.357 422.228C254.357 420.641 254.488 419.223 254.749 417.972C255.01 416.703 255.421 415.639 255.981 414.78C256.541 413.921 257.25 413.268 258.109 412.82C258.968 412.353 259.994 412.12 261.189 412.12C262.384 412.12 263.41 412.353 264.269 412.82C265.128 413.268 265.837 413.921 266.397 414.78C266.957 415.639 267.368 416.703 267.629 417.972C267.89 419.223 268.021 420.641 268.021 422.228C268.021 423.833 267.89 425.261 267.629 426.512C267.368 427.763 266.957 428.817 266.397 429.676C265.837 430.535 265.128 431.197 264.269 431.664C263.41 432.112 262.384 432.336 261.189 432.336ZM261.189 430.292C261.973 430.292 262.636 430.143 263.177 429.844C263.718 429.527 264.166 429.088 264.521 428.528C264.876 427.968 265.128 427.296 265.277 426.512C265.445 425.709 265.529 424.813 265.529 423.824V420.632C265.529 419.661 265.445 418.775 265.277 417.972C265.128 417.169 264.876 416.488 264.521 415.928C264.166 415.368 263.718 414.939 263.177 414.64C262.636 414.323 261.973 414.164 261.189 414.164C260.405 414.164 259.742 414.323 259.201 414.64C258.66 414.939 258.212 415.368 257.857 415.928C257.502 416.488 257.241 417.169 257.073 417.972C256.924 418.775 256.849 419.661 256.849 420.632V423.824C256.849 424.813 256.924 425.709 257.073 426.512C257.241 427.296 257.502 427.968 257.857 428.528C258.212 429.088 258.66 429.527 259.201 429.844C259.742 430.143 260.405 430.292 261.189 430.292ZM272.238 412.456H277.698C280.087 412.456 281.87 413.277 283.046 414.92C284.222 416.563 284.81 418.999 284.81 422.228C284.81 425.457 284.222 427.893 283.046 429.536C281.87 431.179 280.087 432 277.698 432H272.238V412.456ZM277.586 429.956C279.154 429.956 280.33 429.415 281.114 428.332C281.917 427.249 282.318 425.719 282.318 423.74V420.716C282.318 418.737 281.917 417.207 281.114 416.124C280.33 415.041 279.154 414.5 277.586 414.5H274.59V429.956H277.586ZM288.887 432V412.456H300.927V414.5H291.239V421.08H300.591V423.124H291.239V429.956H300.927V432H288.887ZM306.516 432V412.456H308.868V429.956H318.136V432H306.516ZM395.502 432.252C394.736 432.252 394.195 432.093 393.878 431.776C393.579 431.459 393.43 431.057 393.43 430.572V430.068C393.43 429.583 393.579 429.181 393.878 428.864C394.195 428.547 394.736 428.388 395.502 428.388C396.267 428.388 396.799 428.547 397.098 428.864C397.415 429.181 397.574 429.583 397.574 430.068V430.572C397.574 431.057 397.415 431.459 397.098 431.776C396.799 432.093 396.267 432.252 395.502 432.252ZM395.502 421.164C394.736 421.164 394.195 421.005 393.878 420.688C393.579 420.371 393.43 419.969 393.43 419.484V418.98C393.43 418.495 393.579 418.093 393.878 417.776C394.195 417.459 394.736 417.3 395.502 417.3C396.267 417.3 396.799 417.459 397.098 417.776C397.415 418.093 397.574 418.495 397.574 418.98V419.484C397.574 419.969 397.415 420.371 397.098 420.688C396.799 421.005 396.267 421.164 395.502 421.164Z" fill="black"/>
<path d="M238.52 499V479.456H245.632C247.443 479.456 248.824 479.951 249.776 480.94C250.728 481.929 251.204 483.311 251.204 485.084C251.204 486.857 250.728 488.239 249.776 489.228C248.824 490.217 247.443 490.712 245.632 490.712H240.872V499H238.52ZM240.872 488.668H245.576C246.565 488.668 247.331 488.425 247.872 487.94C248.432 487.436 248.712 486.727 248.712 485.812V484.356C248.712 483.441 248.432 482.741 247.872 482.256C247.331 481.752 246.565 481.5 245.576 481.5H240.872V488.668ZM266.257 499L264.605 493.428H257.745L256.093 499H253.657L259.649 479.456H262.757L268.749 499H266.257ZM261.301 481.948H261.049L258.305 491.384H264.045L261.301 481.948ZM274.45 499H272.098V479.456H279.21C281.021 479.456 282.402 479.951 283.354 480.94C284.306 481.929 284.782 483.311 284.782 485.084C284.782 486.671 284.371 487.94 283.55 488.892C282.729 489.844 281.534 490.395 279.966 490.544L284.95 499H282.318L277.558 490.656H274.45V499ZM279.154 488.668C280.143 488.668 280.909 488.425 281.45 487.94C282.01 487.436 282.29 486.727 282.29 485.812V484.356C282.29 483.441 282.01 482.741 281.45 482.256C280.909 481.752 280.143 481.5 279.154 481.5H274.45V488.668H279.154ZM295.943 481.5V499H293.591V481.5H287.067V479.456H302.467V481.5H295.943ZM324.509 482.536H324.313V499H322.185V479.456H325.517L332.181 495.92H332.377V479.456H334.505V499H331.173L324.509 482.536ZM345.134 499.336C343.94 499.336 342.913 499.112 342.054 498.664C341.196 498.197 340.486 497.535 339.926 496.676C339.366 495.817 338.956 494.763 338.694 493.512C338.433 492.261 338.302 490.833 338.302 489.228C338.302 487.641 338.433 486.223 338.694 484.972C338.956 483.703 339.366 482.639 339.926 481.78C340.486 480.921 341.196 480.268 342.054 479.82C342.913 479.353 343.94 479.12 345.134 479.12C346.329 479.12 347.356 479.353 348.214 479.82C349.073 480.268 349.782 480.921 350.342 481.78C350.902 482.639 351.313 483.703 351.574 484.972C351.836 486.223 351.966 487.641 351.966 489.228C351.966 490.833 351.836 492.261 351.574 493.512C351.313 494.763 350.902 495.817 350.342 496.676C349.782 497.535 349.073 498.197 348.214 498.664C347.356 499.112 346.329 499.336 345.134 499.336ZM345.134 497.292C345.918 497.292 346.581 497.143 347.122 496.844C347.664 496.527 348.112 496.088 348.466 495.528C348.821 494.968 349.073 494.296 349.222 493.512C349.39 492.709 349.474 491.813 349.474 490.824V487.632C349.474 486.661 349.39 485.775 349.222 484.972C349.073 484.169 348.821 483.488 348.466 482.928C348.112 482.368 347.664 481.939 347.122 481.64C346.581 481.323 345.918 481.164 345.134 481.164C344.35 481.164 343.688 481.323 343.146 481.64C342.605 481.939 342.157 482.368 341.802 482.928C341.448 483.488 341.186 484.169 341.018 484.972C340.869 485.775 340.794 486.661 340.794 487.632V490.824C340.794 491.813 340.869 492.709 341.018 493.512C341.186 494.296 341.448 494.968 341.802 495.528C342.157 496.088 342.605 496.527 343.146 496.844C343.688 497.143 344.35 497.292 345.134 497.292ZM361.923 499.252C361.158 499.252 360.617 499.093 360.299 498.776C360.001 498.459 359.851 498.057 359.851 497.572V497.068C359.851 496.583 360.001 496.181 360.299 495.864C360.617 495.547 361.158 495.388 361.923 495.388C362.689 495.388 363.221 495.547 363.519 495.864C363.837 496.181 363.995 496.583 363.995 497.068V497.572C363.995 498.057 363.837 498.459 363.519 498.776C363.221 499.093 362.689 499.252 361.923 499.252ZM395.502 499.252C394.736 499.252 394.195 499.093 393.878 498.776C393.579 498.459 393.43 498.057 393.43 497.572V497.068C393.43 496.583 393.579 496.181 393.878 495.864C394.195 495.547 394.736 495.388 395.502 495.388C396.267 495.388 396.799 495.547 397.098 495.864C397.415 496.181 397.574 496.583 397.574 497.068V497.572C397.574 498.057 397.415 498.459 397.098 498.776C396.799 499.093 396.267 499.252 395.502 499.252ZM395.502 488.164C394.736 488.164 394.195 488.005 393.878 487.688C393.579 487.371 393.43 486.969 393.43 486.484V485.98C393.43 485.495 393.579 485.093 393.878 484.776C394.195 484.459 394.736 484.3 395.502 484.3C396.267 484.3 396.799 484.459 397.098 484.776C397.415 485.093 397.574 485.495 397.574 485.98V486.484C397.574 486.969 397.415 487.371 397.098 487.688C396.799 488.005 396.267 488.164 395.502 488.164Z" fill="black"/>
<path d="M238.352 566V564.124H243.224V548.332H238.352V546.456H250.448V548.332H245.576V564.124H250.448V566H238.352ZM257.353 549.536H257.157V566H255.029V546.456H258.361L265.025 562.92H265.221V546.456H267.349V566H264.017L257.353 549.536ZM272.098 566V546.456H279.21C281.021 546.456 282.402 546.951 283.354 547.94C284.306 548.929 284.782 550.311 284.782 552.084C284.782 553.857 284.306 555.239 283.354 556.228C282.402 557.217 281.021 557.712 279.21 557.712H274.45V566H272.098ZM274.45 555.668H279.154C280.143 555.668 280.909 555.425 281.45 554.94C282.01 554.436 282.29 553.727 282.29 552.812V551.356C282.29 550.441 282.01 549.741 281.45 549.256C280.909 548.752 280.143 548.5 279.154 548.5H274.45V555.668ZM290.959 546.456V558.188C290.959 559.14 290.987 559.989 291.043 560.736C291.099 561.483 291.249 562.127 291.491 562.668C291.734 563.191 292.107 563.592 292.611 563.872C293.134 564.152 293.853 564.292 294.767 564.292C295.682 564.292 296.391 564.152 296.895 563.872C297.418 563.592 297.801 563.191 298.043 562.668C298.286 562.127 298.435 561.483 298.491 560.736C298.547 559.989 298.575 559.14 298.575 558.188V546.456H300.927V557.628C300.927 559.084 300.853 560.353 300.703 561.436C300.573 562.519 300.283 563.424 299.835 564.152C299.406 564.88 298.781 565.431 297.959 565.804C297.157 566.159 296.093 566.336 294.767 566.336C293.442 566.336 292.369 566.159 291.547 565.804C290.745 565.431 290.119 564.88 289.671 564.152C289.242 563.424 288.953 562.519 288.803 561.436C288.673 560.353 288.607 559.084 288.607 557.628V546.456H290.959ZM312.732 548.5V566H310.38V548.5H303.856V546.456H319.256V548.5H312.732ZM395.502 566.252C394.736 566.252 394.195 566.093 393.878 565.776C393.579 565.459 393.43 565.057 393.43 564.572V564.068C393.43 563.583 393.579 563.181 393.878 562.864C394.195 562.547 394.736 562.388 395.502 562.388C396.267 562.388 396.799 562.547 397.098 562.864C397.415 563.181 397.574 563.583 397.574 564.068V564.572C397.574 565.057 397.415 565.459 397.098 565.776C396.799 566.093 396.267 566.252 395.502 566.252ZM395.502 555.164C394.736 555.164 394.195 555.005 393.878 554.688C393.579 554.371 393.43 553.969 393.43 553.484V552.98C393.43 552.495 393.579 552.093 393.878 551.776C394.195 551.459 394.736 551.3 395.502 551.3C396.267 551.3 396.799 551.459 397.098 551.776C397.415 552.093 397.574 552.495 397.574 552.98V553.484C397.574 553.969 397.415 554.371 397.098 554.688C396.799 555.005 396.267 555.164 395.502 555.164Z" fill="black"/>
<path d="M244.4 633.336C243.205 633.336 242.179 633.112 241.32 632.664C240.461 632.197 239.752 631.535 239.192 630.676C238.632 629.817 238.221 628.763 237.96 627.512C237.699 626.261 237.568 624.833 237.568 623.228C237.568 621.641 237.699 620.223 237.96 618.972C238.221 617.703 238.632 616.639 239.192 615.78C239.752 614.921 240.461 614.268 241.32 613.82C242.179 613.353 243.205 613.12 244.4 613.12C245.595 613.12 246.621 613.353 247.48 613.82C248.339 614.268 249.048 614.921 249.608 615.78C250.168 616.639 250.579 617.703 250.84 618.972C251.101 620.223 251.232 621.641 251.232 623.228C251.232 624.833 251.101 626.261 250.84 627.512C250.579 628.763 250.168 629.817 249.608 630.676C249.048 631.535 248.339 632.197 247.48 632.664C246.621 633.112 245.595 633.336 244.4 633.336ZM244.4 631.292C245.184 631.292 245.847 631.143 246.388 630.844C246.929 630.527 247.377 630.088 247.732 629.528C248.087 628.968 248.339 628.296 248.488 627.512C248.656 626.709 248.74 625.813 248.74 624.824V621.632C248.74 620.661 248.656 619.775 248.488 618.972C248.339 618.169 248.087 617.488 247.732 616.928C247.377 616.368 246.929 615.939 246.388 615.64C245.847 615.323 245.184 615.164 244.4 615.164C243.616 615.164 242.953 615.323 242.412 615.64C241.871 615.939 241.423 616.368 241.068 616.928C240.713 617.488 240.452 618.169 240.284 618.972C240.135 619.775 240.06 620.661 240.06 621.632V624.824C240.06 625.813 240.135 626.709 240.284 627.512C240.452 628.296 240.713 628.968 241.068 629.528C241.423 630.088 241.871 630.527 242.412 630.844C242.953 631.143 243.616 631.292 244.4 631.292ZM257.381 613.456V625.188C257.381 626.14 257.409 626.989 257.465 627.736C257.521 628.483 257.67 629.127 257.913 629.668C258.156 630.191 258.529 630.592 259.033 630.872C259.556 631.152 260.274 631.292 261.189 631.292C262.104 631.292 262.813 631.152 263.317 630.872C263.84 630.592 264.222 630.191 264.465 629.668C264.708 629.127 264.857 628.483 264.913 627.736C264.969 626.989 264.997 626.14 264.997 625.188V613.456H267.349V624.628C267.349 626.084 267.274 627.353 267.125 628.436C266.994 629.519 266.705 630.424 266.257 631.152C265.828 631.88 265.202 632.431 264.381 632.804C263.578 633.159 262.514 633.336 261.189 633.336C259.864 633.336 258.79 633.159 257.969 632.804C257.166 632.431 256.541 631.88 256.093 631.152C255.664 630.424 255.374 629.519 255.225 628.436C255.094 627.353 255.029 626.084 255.029 624.628V613.456H257.381ZM279.154 615.5V633H276.802V615.5H270.278V613.456H285.678V615.5H279.154ZM288.887 633V613.456H295.999C297.81 613.456 299.191 613.951 300.143 614.94C301.095 615.929 301.571 617.311 301.571 619.084C301.571 620.857 301.095 622.239 300.143 623.228C299.191 624.217 297.81 624.712 295.999 624.712H291.239V633H288.887ZM291.239 622.668H295.943C296.933 622.668 297.698 622.425 298.239 621.94C298.799 621.436 299.079 620.727 299.079 619.812V618.356C299.079 617.441 298.799 616.741 298.239 616.256C297.698 615.752 296.933 615.5 295.943 615.5H291.239V622.668ZM307.748 613.456V625.188C307.748 626.14 307.776 626.989 307.832 627.736C307.888 628.483 308.038 629.127 308.28 629.668C308.523 630.191 308.896 630.592 309.4 630.872C309.923 631.152 310.642 631.292 311.556 631.292C312.471 631.292 313.18 631.152 313.684 630.872C314.207 630.592 314.59 630.191 314.832 629.668C315.075 629.127 315.224 628.483 315.28 627.736C315.336 626.989 315.364 626.14 315.364 625.188V613.456H317.716V624.628C317.716 626.084 317.642 627.353 317.492 628.436C317.362 629.519 317.072 630.424 316.624 631.152C316.195 631.88 315.57 632.431 314.748 632.804C313.946 633.159 312.882 633.336 311.556 633.336C310.231 633.336 309.158 633.159 308.336 632.804C307.534 632.431 306.908 631.88 306.46 631.152C306.031 630.424 305.742 629.519 305.592 628.436C305.462 627.353 305.396 626.084 305.396 624.628V613.456H307.748ZM329.521 615.5V633H327.169V615.5H320.645V613.456H336.045V615.5H329.521ZM395.502 633.252C394.736 633.252 394.195 633.093 393.878 632.776C393.579 632.459 393.43 632.057 393.43 631.572V631.068C393.43 630.583 393.579 630.181 393.878 629.864C394.195 629.547 394.736 629.388 395.502 629.388C396.267 629.388 396.799 629.547 397.098 629.864C397.415 630.181 397.574 630.583 397.574 631.068V631.572C397.574 632.057 397.415 632.459 397.098 632.776C396.799 633.093 396.267 633.252 395.502 633.252ZM395.502 622.164C394.736 622.164 394.195 622.005 393.878 621.688C393.579 621.371 393.43 620.969 393.43 620.484V619.98C393.43 619.495 393.579 619.093 393.878 618.776C394.195 618.459 394.736 618.3 395.502 618.3C396.267 618.3 396.799 618.459 397.098 618.776C397.415 619.093 397.574 619.495 397.574 619.98V620.484C397.574 620.969 397.415 621.371 397.098 621.688C396.799 622.005 396.267 622.164 395.502 622.164Z" fill="black"/>
<path d="M493.38 499V496.956H498.98V481.192H498.784L493.856 485.784L492.484 484.3L497.664 479.456H501.332V496.956H506.484V499H493.38ZM522.825 499H509.777V496.592L516.301 490.712C517.253 489.853 518.037 488.976 518.653 488.08C519.269 487.165 519.577 486.204 519.577 485.196V484.86C519.577 483.684 519.269 482.779 518.653 482.144C518.037 481.491 517.122 481.164 515.909 481.164C514.714 481.164 513.79 481.472 513.137 482.088C512.502 482.685 512.026 483.488 511.709 484.496L509.609 483.712C509.796 483.133 510.048 482.573 510.365 482.032C510.701 481.472 511.121 480.977 511.625 480.548C512.129 480.119 512.736 479.773 513.445 479.512C514.173 479.251 515.013 479.12 515.965 479.12C516.936 479.12 517.794 479.26 518.541 479.54C519.306 479.82 519.941 480.212 520.445 480.716C520.968 481.22 521.36 481.817 521.621 482.508C521.901 483.199 522.041 483.955 522.041 484.776C522.041 485.523 521.929 486.223 521.705 486.876C521.5 487.529 521.201 488.155 520.809 488.752C520.436 489.349 519.978 489.937 519.437 490.516C518.914 491.076 518.326 491.636 517.673 492.196L512.213 496.956H522.825V499ZM531.382 499L525.586 479.456H528.078L530.85 489.228L532.95 496.62H533.09L535.19 489.228L537.962 479.456H540.37L534.574 499H531.382ZM556.403 499H543.355V496.592L549.879 490.712C550.831 489.853 551.615 488.976 552.231 488.08C552.847 487.165 553.155 486.204 553.155 485.196V484.86C553.155 483.684 552.847 482.779 552.231 482.144C551.615 481.491 550.701 481.164 549.487 481.164C548.293 481.164 547.369 481.472 546.715 482.088C546.081 482.685 545.605 483.488 545.287 484.496L543.187 483.712C543.374 483.133 543.626 482.573 543.943 482.032C544.279 481.472 544.699 480.977 545.203 480.548C545.707 480.119 546.314 479.773 547.023 479.512C547.751 479.251 548.591 479.12 549.543 479.12C550.514 479.12 551.373 479.26 552.119 479.54C552.885 479.82 553.519 480.212 554.023 480.716C554.546 481.22 554.938 481.817 555.199 482.508C555.479 483.199 555.619 483.955 555.619 484.776C555.619 485.523 555.507 486.223 555.283 486.876C555.078 487.529 554.779 488.155 554.387 488.752C554.014 489.349 553.557 489.937 553.015 490.516C552.493 491.076 551.905 491.636 551.251 492.196L545.791 496.956H556.403V499ZM571.624 499L569.972 493.428H563.112L561.46 499H559.024L565.016 479.456H568.124L574.116 499H571.624ZM566.668 481.948H566.416L563.672 491.384H569.412L566.668 481.948ZM577.297 499V497.124H582.169V481.332H577.297V479.456H589.393V481.332H584.521V497.124H589.393V499H577.297ZM604.474 489.2V483.012H604.25L600.134 493.064L596.018 483.012H595.794V489.2V499H593.638V479.456H596.662L600.106 488.08H600.274L603.718 479.456H606.63V499H604.474V489.2Z" fill="black"/>
<path d="M493.38 566V563.956H498.98V548.192H498.784L493.856 552.784L492.484 551.3L497.664 546.456H501.332V563.956H506.484V566H493.38ZM516.189 566.336C514.994 566.336 513.968 566.112 513.109 565.664C512.25 565.197 511.541 564.535 510.981 563.676C510.421 562.817 510.01 561.763 509.749 560.512C509.488 559.261 509.357 557.833 509.357 556.228C509.357 554.641 509.488 553.223 509.749 551.972C510.01 550.703 510.421 549.639 510.981 548.78C511.541 547.921 512.25 547.268 513.109 546.82C513.968 546.353 514.994 546.12 516.189 546.12C517.384 546.12 518.41 546.353 519.269 546.82C520.128 547.268 520.837 547.921 521.397 548.78C521.957 549.639 522.368 550.703 522.629 551.972C522.89 553.223 523.021 554.641 523.021 556.228C523.021 557.833 522.89 559.261 522.629 560.512C522.368 561.763 521.957 562.817 521.397 563.676C520.837 564.535 520.128 565.197 519.269 565.664C518.41 566.112 517.384 566.336 516.189 566.336ZM516.189 564.292C516.973 564.292 517.645 564.143 518.205 563.844C518.765 563.527 519.213 563.088 519.549 562.528C519.904 561.968 520.165 561.296 520.333 560.512C520.501 559.709 520.585 558.813 520.585 557.824V554.632C520.585 553.661 520.501 552.775 520.333 551.972C520.165 551.169 519.904 550.488 519.549 549.928C519.213 549.368 518.765 548.939 518.205 548.64C517.645 548.323 516.973 548.164 516.189 548.164C515.405 548.164 514.733 548.323 514.173 548.64C513.613 548.939 513.156 549.368 512.801 549.928C512.465 550.488 512.213 551.169 512.045 551.972C511.877 552.775 511.793 553.661 511.793 554.632V557.824C511.793 558.813 511.877 559.709 512.045 560.512C512.213 561.296 512.465 561.968 512.801 562.528C513.156 563.088 513.613 563.527 514.173 563.844C514.733 564.143 515.405 564.292 516.189 564.292ZM516.189 557.88C515.536 557.88 515.078 557.749 514.817 557.488C514.574 557.227 514.453 556.909 514.453 556.536V555.92C514.453 555.547 514.574 555.229 514.817 554.968C515.078 554.707 515.536 554.576 516.189 554.576C516.842 554.576 517.29 554.707 517.533 554.968C517.794 555.229 517.925 555.547 517.925 555.92V556.536C517.925 556.909 517.794 557.227 517.533 557.488C517.29 557.749 516.842 557.88 516.189 557.88ZM532.978 566.336C531.783 566.336 530.757 566.112 529.898 565.664C529.039 565.197 528.33 564.535 527.77 563.676C527.21 562.817 526.799 561.763 526.538 560.512C526.277 559.261 526.146 557.833 526.146 556.228C526.146 554.641 526.277 553.223 526.538 551.972C526.799 550.703 527.21 549.639 527.77 548.78C528.33 547.921 529.039 547.268 529.898 546.82C530.757 546.353 531.783 546.12 532.978 546.12C534.173 546.12 535.199 546.353 536.058 546.82C536.917 547.268 537.626 547.921 538.186 548.78C538.746 549.639 539.157 550.703 539.418 551.972C539.679 553.223 539.81 554.641 539.81 556.228C539.81 557.833 539.679 559.261 539.418 560.512C539.157 561.763 538.746 562.817 538.186 563.676C537.626 564.535 536.917 565.197 536.058 565.664C535.199 566.112 534.173 566.336 532.978 566.336ZM532.978 564.292C533.762 564.292 534.434 564.143 534.994 563.844C535.554 563.527 536.002 563.088 536.338 562.528C536.693 561.968 536.954 561.296 537.122 560.512C537.29 559.709 537.374 558.813 537.374 557.824V554.632C537.374 553.661 537.29 552.775 537.122 551.972C536.954 551.169 536.693 550.488 536.338 549.928C536.002 549.368 535.554 548.939 534.994 548.64C534.434 548.323 533.762 548.164 532.978 548.164C532.194 548.164 531.522 548.323 530.962 548.64C530.402 548.939 529.945 549.368 529.59 549.928C529.254 550.488 529.002 551.169 528.834 551.972C528.666 552.775 528.582 553.661 528.582 554.632V557.824C528.582 558.813 528.666 559.709 528.834 560.512C529.002 561.296 529.254 561.968 529.59 562.528C529.945 563.088 530.402 563.527 530.962 563.844C531.522 564.143 532.194 564.292 532.978 564.292ZM532.978 557.88C532.325 557.88 531.867 557.749 531.606 557.488C531.363 557.227 531.242 556.909 531.242 556.536V555.92C531.242 555.547 531.363 555.229 531.606 554.968C531.867 554.707 532.325 554.576 532.978 554.576C533.631 554.576 534.079 554.707 534.322 554.968C534.583 555.229 534.714 555.547 534.714 555.92V556.536C534.714 556.909 534.583 557.227 534.322 557.488C534.079 557.749 533.631 557.88 532.978 557.88ZM545.707 558.664V556.312H553.827V558.664H545.707ZM573.192 566H560.144V563.592L566.668 557.712C567.62 556.853 568.404 555.976 569.02 555.08C569.636 554.165 569.944 553.204 569.944 552.196V551.86C569.944 550.684 569.636 549.779 569.02 549.144C568.404 548.491 567.49 548.164 566.276 548.164C565.082 548.164 564.158 548.472 563.504 549.088C562.87 549.685 562.394 550.488 562.076 551.496L559.976 550.712C560.163 550.133 560.415 549.573 560.732 549.032C561.068 548.472 561.488 547.977 561.992 547.548C562.496 547.119 563.103 546.773 563.812 546.512C564.54 546.251 565.38 546.12 566.332 546.12C567.303 546.12 568.162 546.26 568.908 546.54C569.674 546.82 570.308 547.212 570.812 547.716C571.335 548.22 571.727 548.817 571.988 549.508C572.268 550.199 572.408 550.955 572.408 551.776C572.408 552.523 572.296 553.223 572.072 553.876C571.867 554.529 571.568 555.155 571.176 555.752C570.803 556.349 570.346 556.937 569.804 557.516C569.282 558.076 568.694 558.636 568.04 559.196L562.58 563.956H573.192V566ZM585.529 566V562.164H575.897V560.092L584.353 546.456H587.769V560.232H590.681V562.164H587.769V566H585.529ZM577.997 560.232H585.529V548.276H585.417L577.997 560.232ZM600.134 566.336C598.94 566.336 597.913 566.112 597.054 565.664C596.196 565.197 595.486 564.535 594.926 563.676C594.366 562.817 593.956 561.763 593.694 560.512C593.433 559.261 593.302 557.833 593.302 556.228C593.302 554.641 593.433 553.223 593.694 551.972C593.956 550.703 594.366 549.639 594.926 548.78C595.486 547.921 596.196 547.268 597.054 546.82C597.913 546.353 598.94 546.12 600.134 546.12C601.329 546.12 602.356 546.353 603.214 546.82C604.073 547.268 604.782 547.921 605.342 548.78C605.902 549.639 606.313 550.703 606.574 551.972C606.836 553.223 606.966 554.641 606.966 556.228C606.966 557.833 606.836 559.261 606.574 560.512C606.313 561.763 605.902 562.817 605.342 563.676C604.782 564.535 604.073 565.197 603.214 565.664C602.356 566.112 601.329 566.336 600.134 566.336ZM600.134 564.292C600.918 564.292 601.59 564.143 602.15 563.844C602.71 563.527 603.158 563.088 603.494 562.528C603.849 561.968 604.11 561.296 604.278 560.512C604.446 559.709 604.53 558.813 604.53 557.824V554.632C604.53 553.661 604.446 552.775 604.278 551.972C604.11 551.169 603.849 550.488 603.494 549.928C603.158 549.368 602.71 548.939 602.15 548.64C601.59 548.323 600.918 548.164 600.134 548.164C599.35 548.164 598.678 548.323 598.118 548.64C597.558 548.939 597.101 549.368 596.746 549.928C596.41 550.488 596.158 551.169 595.99 551.972C595.822 552.775 595.738 553.661 595.738 554.632V557.824C595.738 558.813 595.822 559.709 595.99 560.512C596.158 561.296 596.41 561.968 596.746 562.528C597.101 563.088 597.558 563.527 598.118 563.844C598.678 564.143 599.35 564.292 600.134 564.292ZM600.134 557.88C599.481 557.88 599.024 557.749 598.762 557.488C598.52 557.227 598.398 556.909 598.398 556.536V555.92C598.398 555.547 598.52 555.229 598.762 554.968C599.024 554.707 599.481 554.576 600.134 554.576C600.788 554.576 601.236 554.707 601.478 554.968C601.74 555.229 601.87 555.547 601.87 555.92V556.536C601.87 556.909 601.74 557.227 601.478 557.488C601.236 557.749 600.788 557.88 600.134 557.88ZM615.327 566L609.531 546.456H612.023L614.795 556.228L616.895 563.62H617.035L619.135 556.228L621.907 546.456H624.315L618.519 566H615.327ZM636.569 560.484C635.859 560.484 635.253 560.288 634.749 559.896C634.263 559.485 633.75 558.963 633.209 558.328C632.723 557.693 632.294 557.199 631.921 556.844C631.547 556.489 631.183 556.312 630.829 556.312C630.287 556.312 629.83 556.601 629.457 557.18C629.102 557.759 628.775 558.767 628.477 560.204L626.769 559.812C627.086 558.095 627.571 556.769 628.225 555.836C628.878 554.903 629.755 554.436 630.857 554.436C631.566 554.436 632.163 554.632 632.649 555.024C633.134 555.416 633.638 555.92 634.161 556.536C634.683 557.208 635.131 557.721 635.505 558.076C635.878 558.431 636.242 558.608 636.597 558.608C637.213 558.589 637.698 558.235 638.053 557.544C638.407 556.835 638.706 555.892 638.949 554.716L640.657 555.108C640.246 557.105 639.705 558.505 639.033 559.308C638.361 560.092 637.539 560.484 636.569 560.484ZM656.13 548.5H647.394L646.834 555.976H647.03C647.515 555.323 648.056 554.809 648.654 554.436C649.251 554.044 650.072 553.848 651.118 553.848C651.976 553.848 652.76 553.988 653.47 554.268C654.198 554.529 654.823 554.921 655.346 555.444C655.868 555.967 656.279 556.601 656.578 557.348C656.876 558.076 657.026 558.916 657.026 559.868C657.026 560.82 656.876 561.697 656.578 562.5C656.279 563.284 655.84 563.965 655.262 564.544C654.683 565.104 653.983 565.543 653.162 565.86C652.34 566.177 651.407 566.336 650.362 566.336C649.54 566.336 648.803 566.243 648.15 566.056C647.515 565.869 646.946 565.617 646.442 565.3C645.956 564.983 645.527 564.628 645.154 564.236C644.78 563.844 644.444 563.433 644.146 563.004L645.91 561.66C646.171 562.052 646.432 562.407 646.694 562.724C646.974 563.041 647.291 563.321 647.646 563.564C648 563.788 648.402 563.965 648.85 564.096C649.298 564.227 649.82 564.292 650.418 564.292C651.762 564.292 652.788 563.928 653.498 563.2C654.226 562.472 654.59 561.464 654.59 560.176V559.952C654.59 558.664 654.226 557.656 653.498 556.928C652.77 556.2 651.724 555.836 650.362 555.836C649.428 555.836 648.7 555.995 648.178 556.312C647.674 556.629 647.207 557.021 646.778 557.488L644.79 557.208L645.49 546.456H656.13V548.5ZM667.291 566.336C666.096 566.336 665.069 566.112 664.211 565.664C663.352 565.197 662.643 564.535 662.083 563.676C661.523 562.817 661.112 561.763 660.851 560.512C660.589 559.261 660.459 557.833 660.459 556.228C660.459 554.641 660.589 553.223 660.851 551.972C661.112 550.703 661.523 549.639 662.083 548.78C662.643 547.921 663.352 547.268 664.211 546.82C665.069 546.353 666.096 546.12 667.291 546.12C668.485 546.12 669.512 546.353 670.371 546.82C671.229 547.268 671.939 547.921 672.499 548.78C673.059 549.639 673.469 550.703 673.731 551.972C673.992 553.223 674.123 554.641 674.123 556.228C674.123 557.833 673.992 559.261 673.731 560.512C673.469 561.763 673.059 562.817 672.499 563.676C671.939 564.535 671.229 565.197 670.371 565.664C669.512 566.112 668.485 566.336 667.291 566.336ZM667.291 564.292C668.075 564.292 668.747 564.143 669.307 563.844C669.867 563.527 670.315 563.088 670.651 562.528C671.005 561.968 671.267 561.296 671.435 560.512C671.603 559.709 671.687 558.813 671.687 557.824V554.632C671.687 553.661 671.603 552.775 671.435 551.972C671.267 551.169 671.005 550.488 670.651 549.928C670.315 549.368 669.867 548.939 669.307 548.64C668.747 548.323 668.075 548.164 667.291 548.164C666.507 548.164 665.835 548.323 665.275 548.64C664.715 548.939 664.257 549.368 663.903 549.928C663.567 550.488 663.315 551.169 663.147 551.972C662.979 552.775 662.895 553.661 662.895 554.632V557.824C662.895 558.813 662.979 559.709 663.147 560.512C663.315 561.296 663.567 561.968 663.903 562.528C664.257 563.088 664.715 563.527 665.275 563.844C665.835 564.143 666.507 564.292 667.291 564.292ZM667.291 557.88C666.637 557.88 666.18 557.749 665.919 557.488C665.676 557.227 665.555 556.909 665.555 556.536V555.92C665.555 555.547 665.676 555.229 665.919 554.968C666.18 554.707 666.637 554.576 667.291 554.576C667.944 554.576 668.392 554.707 668.635 554.968C668.896 555.229 669.027 555.547 669.027 555.92V556.536C669.027 556.909 668.896 557.227 668.635 557.488C668.392 557.749 667.944 557.88 667.291 557.88ZM678.2 569.864L687.944 544.72H689.96L680.216 569.864H678.2ZM700.897 566.336C699.87 566.336 698.946 566.168 698.125 565.832C697.303 565.477 696.603 564.983 696.025 564.348C695.465 563.695 695.026 562.901 694.709 561.968C694.41 561.035 694.261 559.989 694.261 558.832C694.261 557.376 694.475 556.013 694.905 554.744C695.353 553.456 695.913 552.289 696.585 551.244C697.275 550.18 698.041 549.247 698.881 548.444C699.721 547.623 700.542 546.96 701.345 546.456H704.369C703.305 547.221 702.353 547.968 701.513 548.696C700.691 549.424 699.963 550.189 699.329 550.992C698.694 551.776 698.162 552.625 697.733 553.54C697.303 554.436 696.949 555.453 696.669 556.592L696.809 556.648C697.275 555.845 697.891 555.183 698.657 554.66C699.422 554.119 700.411 553.848 701.625 553.848C702.483 553.848 703.267 553.988 703.977 554.268C704.686 554.548 705.302 554.949 705.825 555.472C706.347 555.995 706.749 556.629 707.029 557.376C707.327 558.123 707.477 558.953 707.477 559.868C707.477 560.82 707.318 561.697 707.001 562.5C706.683 563.284 706.235 563.965 705.657 564.544C705.097 565.104 704.406 565.543 703.585 565.86C702.782 566.177 701.886 566.336 700.897 566.336ZM700.869 564.348C702.213 564.348 703.249 563.984 703.977 563.256C704.723 562.528 705.097 561.501 705.097 560.176V559.952C705.097 558.627 704.723 557.6 703.977 556.872C703.249 556.144 702.213 555.78 700.869 555.78C699.525 555.78 698.479 556.144 697.733 556.872C697.005 557.6 696.641 558.627 696.641 559.952V560.176C696.641 561.501 697.005 562.528 697.733 563.256C698.479 563.984 699.525 564.348 700.869 564.348ZM717.658 566.336C716.463 566.336 715.436 566.112 714.578 565.664C713.719 565.197 713.01 564.535 712.45 563.676C711.89 562.817 711.479 561.763 711.218 560.512C710.956 559.261 710.826 557.833 710.826 556.228C710.826 554.641 710.956 553.223 711.218 551.972C711.479 550.703 711.89 549.639 712.45 548.78C713.01 547.921 713.719 547.268 714.578 546.82C715.436 546.353 716.463 546.12 717.658 546.12C718.852 546.12 719.879 546.353 720.738 546.82C721.596 547.268 722.306 547.921 722.866 548.78C723.426 549.639 723.836 550.703 724.098 551.972C724.359 553.223 724.49 554.641 724.49 556.228C724.49 557.833 724.359 559.261 724.098 560.512C723.836 561.763 723.426 562.817 722.866 563.676C722.306 564.535 721.596 565.197 720.738 565.664C719.879 566.112 718.852 566.336 717.658 566.336ZM717.658 564.292C718.442 564.292 719.114 564.143 719.674 563.844C720.234 563.527 720.682 563.088 721.018 562.528C721.372 561.968 721.634 561.296 721.802 560.512C721.97 559.709 722.054 558.813 722.054 557.824V554.632C722.054 553.661 721.97 552.775 721.802 551.972C721.634 551.169 721.372 550.488 721.018 549.928C720.682 549.368 720.234 548.939 719.674 548.64C719.114 548.323 718.442 548.164 717.658 548.164C716.874 548.164 716.202 548.323 715.642 548.64C715.082 548.939 714.624 549.368 714.27 549.928C713.934 550.488 713.682 551.169 713.514 551.972C713.346 552.775 713.262 553.661 713.262 554.632V557.824C713.262 558.813 713.346 559.709 713.514 560.512C713.682 561.296 713.934 561.968 714.27 562.528C714.624 563.088 715.082 563.527 715.642 563.844C716.202 564.143 716.874 564.292 717.658 564.292ZM717.658 557.88C717.004 557.88 716.547 557.749 716.286 557.488C716.043 557.227 715.922 556.909 715.922 556.536V555.92C715.922 555.547 716.043 555.229 716.286 554.968C716.547 554.707 717.004 554.576 717.658 554.576C718.311 554.576 718.759 554.707 719.002 554.968C719.263 555.229 719.394 555.547 719.394 555.92V556.536C719.394 556.909 719.263 557.227 719.002 557.488C718.759 557.749 718.311 557.88 717.658 557.88ZM738.255 557.124H730.639V566H728.287V546.456H730.639V555.08H738.255V546.456H740.607V566H738.255V557.124ZM758.292 566H744.18V563.9L755.24 548.5H744.656V546.456H757.816V548.556L746.728 563.956H758.292V566ZM784.814 566.336C783.619 566.336 782.593 566.112 781.734 565.664C780.875 565.197 780.166 564.535 779.606 563.676C779.046 562.817 778.635 561.763 778.374 560.512C778.113 559.261 777.982 557.833 777.982 556.228C777.982 554.641 778.113 553.223 778.374 551.972C778.635 550.703 779.046 549.639 779.606 548.78C780.166 547.921 780.875 547.268 781.734 546.82C782.593 546.353 783.619 546.12 784.814 546.12C786.009 546.12 787.035 546.353 787.894 546.82C788.753 547.268 789.462 547.921 790.022 548.78C790.582 549.639 790.993 550.703 791.254 551.972C791.515 553.223 791.646 554.641 791.646 556.228C791.646 557.833 791.515 559.261 791.254 560.512C790.993 561.763 790.582 562.817 790.022 563.676C789.462 564.535 788.753 565.197 787.894 565.664C787.035 566.112 786.009 566.336 784.814 566.336ZM784.814 564.292C785.598 564.292 786.27 564.143 786.83 563.844C787.39 563.527 787.838 563.088 788.174 562.528C788.529 561.968 788.79 561.296 788.958 560.512C789.126 559.709 789.21 558.813 789.21 557.824V554.632C789.21 553.661 789.126 552.775 788.958 551.972C788.79 551.169 788.529 550.488 788.174 549.928C787.838 549.368 787.39 548.939 786.83 548.64C786.27 548.323 785.598 548.164 784.814 548.164C784.03 548.164 783.358 548.323 782.798 548.64C782.238 548.939 781.781 549.368 781.426 549.928C781.09 550.488 780.838 551.169 780.67 551.972C780.502 552.775 780.418 553.661 780.418 554.632V557.824C780.418 558.813 780.502 559.709 780.67 560.512C780.838 561.296 781.09 561.968 781.426 562.528C781.781 563.088 782.238 563.527 782.798 563.844C783.358 564.143 784.03 564.292 784.814 564.292ZM784.814 557.88C784.161 557.88 783.703 557.749 783.442 557.488C783.199 557.227 783.078 556.909 783.078 556.536V555.92C783.078 555.547 783.199 555.229 783.442 554.968C783.703 554.707 784.161 554.576 784.814 554.576C785.467 554.576 785.915 554.707 786.158 554.968C786.419 555.229 786.55 555.547 786.55 555.92V556.536C786.55 556.909 786.419 557.227 786.158 557.488C785.915 557.749 785.467 557.88 784.814 557.88ZM801.603 566.252C800.838 566.252 800.296 566.093 799.979 565.776C799.68 565.459 799.531 565.057 799.531 564.572V564.068C799.531 563.583 799.68 563.181 799.979 562.864C800.296 562.547 800.838 562.388 801.603 562.388C802.368 562.388 802.9 562.547 803.199 562.864C803.516 563.181 803.675 563.583 803.675 564.068V564.572C803.675 565.057 803.516 565.459 803.199 565.776C802.9 566.093 802.368 566.252 801.603 566.252ZM818.392 566.336C817.254 566.336 816.255 566.196 815.396 565.916C814.538 565.617 813.819 565.216 813.24 564.712C812.68 564.208 812.251 563.611 811.952 562.92C811.672 562.229 811.532 561.483 811.532 560.68C811.532 559.336 811.896 558.272 812.624 557.488C813.352 556.704 814.314 556.153 815.508 555.836V555.612C814.463 555.257 813.632 554.688 813.016 553.904C812.419 553.101 812.12 552.14 812.12 551.02C812.12 549.527 812.671 548.341 813.772 547.464C814.874 546.568 816.414 546.12 818.392 546.12C820.371 546.12 821.911 546.568 823.012 547.464C824.114 548.341 824.664 549.527 824.664 551.02C824.664 552.14 824.356 553.101 823.74 553.904C823.143 554.688 822.322 555.257 821.276 555.612V555.836C822.471 556.153 823.432 556.704 824.16 557.488C824.888 558.272 825.252 559.336 825.252 560.68C825.252 561.483 825.103 562.229 824.804 562.92C824.524 563.611 824.095 564.208 823.516 564.712C822.938 565.216 822.219 565.617 821.36 565.916C820.52 566.196 819.531 566.336 818.392 566.336ZM818.392 564.348C819.774 564.348 820.856 564.04 821.64 563.424C822.424 562.808 822.816 561.94 822.816 560.82V560.204C822.816 559.084 822.424 558.216 821.64 557.6C820.875 556.984 819.792 556.676 818.392 556.676C816.992 556.676 815.9 556.984 815.116 557.6C814.351 558.216 813.968 559.084 813.968 560.204V560.82C813.968 561.94 814.36 562.808 815.144 563.424C815.928 564.04 817.011 564.348 818.392 564.348ZM818.392 554.772C819.662 554.772 820.623 554.501 821.276 553.96C821.948 553.419 822.284 552.644 822.284 551.636V551.244C822.284 550.236 821.939 549.461 821.248 548.92C820.576 548.379 819.624 548.108 818.392 548.108C817.16 548.108 816.199 548.379 815.508 548.92C814.836 549.461 814.5 550.236 814.5 551.244V551.636C814.5 552.644 814.827 553.419 815.48 553.96C816.152 554.501 817.123 554.772 818.392 554.772ZM840.249 566L838.597 560.428H831.737L830.085 566H827.649L833.641 546.456H836.749L842.741 566H840.249ZM835.293 548.948H835.041L832.297 558.384H838.037L835.293 548.948Z" fill="black"/>
<path d="M493.38 633V630.956H498.98V615.192H498.784L493.856 619.784L492.484 618.3L497.664 613.456H501.332V630.956H506.484V633H493.38ZM522.825 633H509.777V630.592L516.301 624.712C517.253 623.853 518.037 622.976 518.653 622.08C519.269 621.165 519.577 620.204 519.577 619.196V618.86C519.577 617.684 519.269 616.779 518.653 616.144C518.037 615.491 517.122 615.164 515.909 615.164C514.714 615.164 513.79 615.472 513.137 616.088C512.502 616.685 512.026 617.488 511.709 618.496L509.609 617.712C509.796 617.133 510.048 616.573 510.365 616.032C510.701 615.472 511.121 614.977 511.625 614.548C512.129 614.119 512.736 613.773 513.445 613.512C514.173 613.251 515.013 613.12 515.965 613.12C516.936 613.12 517.794 613.26 518.541 613.54C519.306 613.82 519.941 614.212 520.445 614.716C520.968 615.22 521.36 615.817 521.621 616.508C521.901 617.199 522.041 617.955 522.041 618.776C522.041 619.523 521.929 620.223 521.705 620.876C521.5 621.529 521.201 622.155 520.809 622.752C520.436 623.349 519.978 623.937 519.437 624.516C518.914 625.076 518.326 625.636 517.673 626.196L512.213 630.956H522.825V633ZM531.382 633L525.586 613.456H528.078L530.85 623.228L532.95 630.62H533.09L535.19 623.228L537.962 613.456H540.37L534.574 633H531.382Z" fill="black"/>
<path d="M641.036 633H627.988V630.592L634.512 624.712C635.464 623.853 636.248 622.976 636.864 622.08C637.48 621.165 637.788 620.204 637.788 619.196V618.86C637.788 617.684 637.48 616.779 636.864 616.144C636.248 615.491 635.333 615.164 634.12 615.164C632.925 615.164 632.001 615.472 631.348 616.088C630.713 616.685 630.237 617.488 629.92 618.496L627.82 617.712C628.007 617.133 628.259 616.573 628.576 616.032C628.912 615.472 629.332 614.977 629.836 614.548C630.34 614.119 630.947 613.773 631.656 613.512C632.384 613.251 633.224 613.12 634.176 613.12C635.147 613.12 636.005 613.26 636.752 613.54C637.517 613.82 638.152 614.212 638.656 614.716C639.179 615.22 639.571 615.817 639.832 616.508C640.112 617.199 640.252 617.955 640.252 618.776C640.252 619.523 640.14 620.223 639.916 620.876C639.711 621.529 639.412 622.155 639.02 622.752C638.647 623.349 638.189 623.937 637.648 624.516C637.125 625.076 636.537 625.636 635.884 626.196L630.424 630.956H641.036V633ZM651.189 633.252C650.424 633.252 649.882 633.093 649.565 632.776C649.266 632.459 649.117 632.057 649.117 631.572V631.068C649.117 630.583 649.266 630.181 649.565 629.864C649.882 629.547 650.424 629.388 651.189 629.388C651.954 629.388 652.486 629.547 652.785 629.864C653.102 630.181 653.261 630.583 653.261 631.068V631.572C653.261 632.057 653.102 632.459 652.785 632.776C652.486 633.093 651.954 633.252 651.189 633.252ZM667.978 633.336C666.783 633.336 665.757 633.112 664.898 632.664C664.039 632.197 663.33 631.535 662.77 630.676C662.21 629.817 661.799 628.763 661.538 627.512C661.277 626.261 661.146 624.833 661.146 623.228C661.146 621.641 661.277 620.223 661.538 618.972C661.799 617.703 662.21 616.639 662.77 615.78C663.33 614.921 664.039 614.268 664.898 613.82C665.757 613.353 666.783 613.12 667.978 613.12C669.173 613.12 670.199 613.353 671.058 613.82C671.917 614.268 672.626 614.921 673.186 615.78C673.746 616.639 674.157 617.703 674.418 618.972C674.679 620.223 674.81 621.641 674.81 623.228C674.81 624.833 674.679 626.261 674.418 627.512C674.157 628.763 673.746 629.817 673.186 630.676C672.626 631.535 671.917 632.197 671.058 632.664C670.199 633.112 669.173 633.336 667.978 633.336ZM667.978 631.292C668.762 631.292 669.434 631.143 669.994 630.844C670.554 630.527 671.002 630.088 671.338 629.528C671.693 628.968 671.954 628.296 672.122 627.512C672.29 626.709 672.374 625.813 672.374 624.824V621.632C672.374 620.661 672.29 619.775 672.122 618.972C671.954 618.169 671.693 617.488 671.338 616.928C671.002 616.368 670.554 615.939 669.994 615.64C669.434 615.323 668.762 615.164 667.978 615.164C667.194 615.164 666.522 615.323 665.962 615.64C665.402 615.939 664.945 616.368 664.59 616.928C664.254 617.488 664.002 618.169 663.834 618.972C663.666 619.775 663.582 620.661 663.582 621.632V624.824C663.582 625.813 663.666 626.709 663.834 627.512C664.002 628.296 664.254 628.968 664.59 629.528C664.945 630.088 665.402 630.527 665.962 630.844C666.522 631.143 667.194 631.292 667.978 631.292ZM667.978 624.88C667.325 624.88 666.867 624.749 666.606 624.488C666.363 624.227 666.242 623.909 666.242 623.536V622.92C666.242 622.547 666.363 622.229 666.606 621.968C666.867 621.707 667.325 621.576 667.978 621.576C668.631 621.576 669.079 621.707 669.322 621.968C669.583 622.229 669.714 622.547 669.714 622.92V623.536C669.714 623.909 669.583 624.227 669.322 624.488C669.079 624.749 668.631 624.88 667.978 624.88ZM689.835 633L688.183 627.428H681.323L679.671 633H677.235L683.227 613.456H686.335L692.327 633H689.835ZM684.879 615.948H684.627L681.883 625.384H687.623L684.879 615.948Z" fill="black"/>
<line x1="556" y1="613.5" x2="601" y2="613.5" stroke="black" stroke-width="3"/>
<line x1="556" y1="627.5" x2="566" y2="627.5" stroke="black" stroke-width="3"/>
<line x1="573" y1="627.5" x2="583" y2="627.5" stroke="black" stroke-width="3"/>
<line x1="591" y1="627.5" x2="601" y2="627.5" stroke="black" stroke-width="3"/>
<circle cx="751" cy="624" r="14.5" stroke="black" stroke-width="3"/>
<circle cx="828" cy="624" r="14.5" stroke="black" stroke-width="3"/>
<path d="M783 607C791.837 607 799 614.163 799 623C799 631.837 791.837 639 783 639" stroke="black" stroke-width="3"/>
<path d="M749.836 631.264V625.412H744.236V623.508H749.836V617.656H751.964V623.508H757.564V625.412H751.964V631.264H749.836Z" fill="black"/>
<path d="M823.84 625.664V623.312H831.96V625.664H823.84Z" fill="black"/>
<circle cx="785" cy="623" r="8" fill="black"/>
<line x1="765" y1="622.5" x2="778" y2="622.5" stroke="black" stroke-width="3"/>
<line x1="799" y1="622.5" x2="814" y2="622.5" stroke="black" stroke-width="3"/>
<path fill-rule="evenodd" clip-rule="evenodd" d="M275.914 760.578V771.323C274.736 771.434 273.542 771.498 272.316 771.498C252.319 771.498 236 755.205 236 735.241C236 715.277 252.319 699 272.316 699C273.526 699 274.736 699.064 275.914 699.175V709.92C274.736 709.745 273.542 709.666 272.316 709.666C258.194 709.666 246.683 721.174 246.683 735.241C246.683 749.308 258.21 760.816 272.316 760.816C273.526 760.816 274.736 760.721 275.914 760.562V760.578Z" fill="black"/>
<path fill-rule="evenodd" clip-rule="evenodd" d="M291.39 729.709H312.358V740.788H291.39C293.937 752.233 304.19 760.832 316.402 760.832C317.612 760.832 318.822 760.737 320 760.578V771.323C318.806 771.434 317.612 771.498 316.402 771.498C296.389 771.498 280.102 755.205 280.102 735.257C280.102 715.308 296.389 699 316.402 699C317.612 699 318.822 699.064 320 699.175V709.92C318.806 709.745 317.612 709.666 316.402 709.666C304.19 709.666 293.921 718.265 291.39 729.709Z" fill="black"/>
<rect x="373.5" y="703.5" width="63.5" height="63.5" stroke="black" stroke-width="9"/>
<rect x="394.514" y="724.515" width="21.471" height="21.471" stroke="black" stroke-width="9"/>
<path d="M495.664 760.275V713.762H504.393V753.079H524.984V760.275H495.664ZM534.288 760.275V713.762H551.947C556.478 713.762 559.943 715.051 562.342 717.627C564.741 720.204 565.94 723.714 565.94 728.156C565.94 732.599 564.741 736.108 562.342 738.685C559.943 741.261 556.478 742.55 551.947 742.55H543.017V760.275H534.288ZM543.017 735.42H550.147C552.502 735.42 554.19 734.953 555.212 734.02C556.234 733.043 556.744 731.51 556.744 729.422V726.89C556.744 724.802 556.234 723.291 555.212 722.359C554.19 721.381 552.502 720.893 550.147 720.893H543.017V735.42ZM588.371 761.075C584.373 761.075 580.952 760.386 578.109 759.009C575.31 757.632 573.022 755.811 571.245 753.545L576.51 748.081C578.242 750.08 580.108 751.568 582.107 752.545C584.151 753.478 586.328 753.945 588.638 753.945C591.303 753.945 593.347 753.345 594.769 752.146C596.19 750.946 596.901 749.214 596.901 746.948C596.901 745.082 596.368 743.683 595.302 742.75C594.235 741.772 592.436 741.084 589.904 740.684L584.973 739.884C580.664 739.129 577.598 737.574 575.777 735.22C573.955 732.821 573.045 730 573.045 726.757C573.045 722.314 574.489 718.916 577.376 716.561C580.264 714.162 584.262 712.963 589.371 712.963C593.014 712.963 596.146 713.54 598.767 714.695C601.432 715.85 603.565 717.427 605.164 719.426L600.033 724.891C598.789 723.425 597.301 722.27 595.568 721.426C593.836 720.537 591.792 720.093 589.438 720.093C584.373 720.093 581.841 722.181 581.841 726.357C581.841 728.134 582.374 729.489 583.44 730.422C584.506 731.355 586.328 732.043 588.904 732.487L593.769 733.354C597.812 734.109 600.81 735.597 602.765 737.818C604.72 740.04 605.697 742.883 605.697 746.348C605.697 748.525 605.32 750.524 604.564 752.346C603.809 754.123 602.698 755.677 601.232 757.01C599.766 758.298 597.945 759.298 595.768 760.009C593.636 760.72 591.17 761.075 588.371 761.075Z" fill="black"/>
</svg>
