<svg width="1080" height="1080" viewBox="0 0 1080 1080" fill="none" xmlns="http://www.w3.org/2000/svg">
<rect width="1080" height="1080" fill="white"/>
<path d="M361.722 502.355C350.131 502.355 341.424 499.914 335.6 495.034C329.777 490.153 326.865 482.722 326.865 472.739C326.865 466.194 328.39 460.731 331.441 456.35C334.546 451.969 339.011 448.669 344.834 446.45C350.658 444.232 357.674 443.123 365.882 443.123C370.762 443.123 375.338 443.594 379.608 444.537C383.934 445.424 387.733 446.783 391.005 448.613C394.333 450.388 396.912 452.634 398.742 455.352C400.628 458.069 401.571 461.231 401.571 464.836H381.605C381.605 463.671 381.217 462.617 380.44 461.674C379.664 460.731 378.582 459.955 377.196 459.345C375.809 458.679 374.229 458.18 372.454 457.848C370.679 457.515 368.793 457.348 366.797 457.348C363.636 457.348 360.863 457.681 358.478 458.347C356.148 458.957 354.18 459.9 352.571 461.175C351.018 462.395 349.854 463.893 349.077 465.667C348.301 467.442 347.913 469.467 347.913 471.74V473.737C347.913 477.009 348.55 479.727 349.826 481.89C351.157 483.997 353.126 485.578 355.732 486.632C358.339 487.63 361.611 488.129 365.549 488.129C368.378 488.129 371.012 487.879 373.452 487.38C375.892 486.881 377.834 486.132 379.276 485.134C380.773 484.08 381.522 482.833 381.522 481.391V481.058H364.135V469.411H401.654V501.356H390.007L388.177 495.034C385.959 496.642 383.518 498.001 380.856 499.11C378.194 500.22 375.282 501.024 372.121 501.523C368.96 502.077 365.494 502.355 361.722 502.355ZM413.444 501.356V444.121H463.026C467.296 444.121 470.845 445.008 473.674 446.783C476.558 448.558 478.721 450.887 480.163 453.771C481.605 456.655 482.326 459.761 482.326 463.089C482.326 466.915 481.466 470.326 479.747 473.321C478.083 476.26 475.615 478.618 472.343 480.392L483.657 501.356H460.447L451.795 483.47H433.992V501.356H413.444ZM433.992 469.245H455.788C457.341 469.245 458.644 468.773 459.698 467.83C460.752 466.832 461.279 465.473 461.279 463.754C461.279 462.589 461.029 461.619 460.53 460.842C460.031 460.01 459.365 459.4 458.533 459.012C457.757 458.569 456.842 458.347 455.788 458.347H433.992V469.245ZM491.923 501.356V444.121H537.927C541.699 444.121 545.026 444.981 547.91 446.7C550.794 448.364 553.04 450.721 554.649 453.771C556.257 456.766 557.061 460.232 557.061 464.17C557.061 468.219 556.229 471.768 554.566 474.819C552.957 477.869 550.711 480.226 547.827 481.89C544.943 483.554 541.643 484.385 537.927 484.385H512.471V501.356H491.923ZM512.471 470.16H532.187C534.295 470.16 535.848 469.661 536.846 468.662C537.9 467.664 538.427 466.194 538.427 464.253C538.427 462.922 538.177 461.841 537.678 461.009C537.234 460.121 536.541 459.456 535.598 459.012C534.711 458.569 533.574 458.347 532.187 458.347H512.471V470.16ZM598.26 502.355C589.997 502.355 583.147 501.246 577.712 499.027C572.277 496.753 568.201 493.426 565.483 489.044C562.821 484.663 561.49 479.228 561.49 472.739C561.49 463.255 564.623 455.962 570.89 450.859C577.158 445.702 586.336 443.123 598.427 443.123C605.082 443.123 610.933 444.176 615.98 446.284C621.027 448.336 624.965 451.22 627.793 454.936C630.677 458.596 632.119 462.839 632.119 467.664H612.153C612.153 465.667 611.571 463.893 610.406 462.34C609.242 460.787 607.605 459.567 605.498 458.679C603.39 457.792 600.922 457.348 598.094 457.348C594.544 457.348 591.605 457.986 589.276 459.262C587.002 460.537 585.31 462.257 584.201 464.42C583.147 466.583 582.62 468.995 582.62 471.657V473.737C582.62 476.288 583.147 478.673 584.201 480.891C585.31 483.054 586.974 484.801 589.193 486.132C591.411 487.464 594.239 488.129 597.678 488.129C600.839 488.129 603.529 487.713 605.748 486.881C608.021 486.049 609.741 484.885 610.905 483.387C612.126 481.89 612.736 480.143 612.736 478.146H632.119C632.119 482.805 630.76 486.964 628.043 490.625C625.381 494.285 621.526 497.169 616.479 499.277C611.432 501.329 605.359 502.355 598.26 502.355Z" fill="black"/>
<path d="M328.656 570.619V513.383H361.933C369.032 513.383 375.16 514.492 380.318 516.711C385.476 518.929 389.441 522.174 392.214 526.444C394.987 530.715 396.374 535.9 396.374 542.001C396.374 548.102 394.987 553.287 392.214 557.558C389.441 561.828 385.476 565.073 380.318 567.291C375.16 569.509 369.032 570.619 361.933 570.619H328.656ZM349.204 556.393H360.685C362.959 556.393 364.983 556.06 366.758 555.395C368.532 554.729 370.058 553.814 371.333 552.649C372.609 551.429 373.579 550.015 374.245 548.407C374.91 546.743 375.243 544.913 375.243 542.916V540.919C375.243 538.923 374.91 537.12 374.245 535.512C373.579 533.904 372.609 532.517 371.333 531.352C370.058 530.132 368.532 529.217 366.758 528.607C364.983 527.942 362.959 527.609 360.685 527.609H349.204V556.393ZM438.187 571.617C433.251 571.617 428.648 571.312 424.377 570.702C420.107 570.147 416.363 569.177 413.146 567.79C409.93 566.348 407.406 564.379 405.576 561.884C403.746 559.332 402.831 556.143 402.831 552.317C402.831 552.206 402.831 552.067 402.831 551.901C402.831 551.679 402.858 551.457 402.914 551.235H422.963C422.907 551.457 422.88 551.679 422.88 551.901C422.88 552.067 422.88 552.233 422.88 552.4C422.88 554.064 423.434 555.339 424.544 556.227C425.653 557.114 427.206 557.724 429.202 558.057C431.199 558.334 433.5 558.473 436.107 558.473C437.161 558.473 438.242 558.473 439.352 558.473C440.516 558.417 441.625 558.334 442.679 558.223C443.788 558.057 444.759 557.835 445.591 557.558C446.478 557.28 447.172 556.92 447.671 556.476C448.225 555.977 448.503 555.367 448.503 554.646C448.503 553.648 447.865 552.871 446.589 552.317C445.369 551.762 443.678 551.346 441.515 551.069C439.407 550.736 437.022 550.431 434.36 550.154C431.753 549.876 429.036 549.516 426.207 549.072C423.379 548.628 420.634 548.018 417.971 547.242C415.365 546.41 412.98 545.301 410.817 543.914C408.71 542.528 407.018 540.753 405.742 538.59C404.522 536.427 403.912 533.793 403.912 530.687C403.912 527.359 404.772 524.531 406.491 522.201C408.266 519.872 410.651 517.986 413.646 516.544C416.64 515.102 420.079 514.049 423.961 513.383C427.843 512.718 431.892 512.385 436.107 512.385C440.433 512.385 444.482 512.718 448.253 513.383C452.08 513.993 455.435 514.992 458.319 516.378C461.259 517.765 463.56 519.595 465.224 521.869C466.888 524.087 467.72 526.805 467.72 530.021V531.02H447.837V530.687C447.837 529.578 447.477 528.607 446.756 527.775C446.035 526.888 444.87 526.195 443.262 525.695C441.653 525.141 439.546 524.864 436.939 524.864C434.277 524.864 432.058 525.03 430.284 525.363C428.509 525.695 427.178 526.167 426.291 526.777C425.459 527.332 425.043 527.942 425.043 528.607C425.043 529.605 425.653 530.382 426.873 530.937C428.149 531.491 429.84 531.935 431.948 532.268C434.111 532.545 436.495 532.822 439.102 533.099C441.764 533.377 444.509 533.737 447.338 534.181C450.166 534.569 452.884 535.152 455.491 535.928C458.153 536.649 460.538 537.675 462.645 539.006C464.808 540.337 466.5 542.029 467.72 544.081C468.995 546.133 469.633 548.656 469.633 551.651C469.633 556.365 468.247 560.192 465.474 563.131C462.756 566.071 459.012 568.234 454.243 569.62C449.529 570.951 444.177 571.617 438.187 571.617ZM510.383 571.617C498.792 571.617 490.084 569.177 484.261 564.296C478.438 559.416 475.526 551.984 475.526 542.001C475.526 535.457 477.051 529.994 480.102 525.612C483.207 521.231 487.672 517.931 493.495 515.713C499.319 513.494 506.334 512.385 514.543 512.385C519.423 512.385 523.999 512.856 528.269 513.799C532.595 514.687 536.394 516.045 539.666 517.876C542.994 519.65 545.573 521.896 547.403 524.614C549.289 527.332 550.232 530.493 550.232 534.098H530.266C530.266 532.933 529.878 531.879 529.101 530.937C528.325 529.994 527.243 529.217 525.857 528.607C524.47 527.942 522.889 527.443 521.115 527.11C519.34 526.777 517.454 526.611 515.458 526.611C512.296 526.611 509.523 526.943 507.139 527.609C504.809 528.219 502.84 529.162 501.232 530.437C499.679 531.658 498.514 533.155 497.738 534.93C496.962 536.704 496.573 538.729 496.573 541.003V542.999C496.573 546.271 497.211 548.989 498.487 551.152C499.818 553.259 501.787 554.84 504.393 555.894C507 556.892 510.272 557.391 514.21 557.391C517.038 557.391 519.673 557.142 522.113 556.643C524.553 556.143 526.494 555.395 527.936 554.396C529.434 553.343 530.183 552.095 530.183 550.653V550.32H512.796V538.673H550.315V570.619H538.668L536.838 564.296C534.619 565.904 532.179 567.263 529.517 568.372C526.855 569.482 523.943 570.286 520.782 570.785C517.621 571.34 514.154 571.617 510.383 571.617ZM561.273 570.619V513.383H579.159L607.444 537.259C607.776 537.536 608.248 537.952 608.858 538.507C609.468 539.062 610.106 539.644 610.771 540.254C611.437 540.864 612.047 541.419 612.601 541.918H613.433C613.433 541.141 613.433 540.115 613.433 538.84C613.433 537.509 613.433 536.233 613.433 535.013V513.383H632.734V570.619H615.014L588.143 548.074C586.979 547.131 585.731 546.077 584.4 544.913C583.124 543.748 582.098 542.805 581.322 542.084H580.573C580.573 542.861 580.573 543.97 580.573 545.412C580.573 546.798 580.573 548.213 580.573 549.655V570.619H561.273Z" fill="black"/>
<path d="M575.492 423.262C575.492 422.203 576.352 421.342 577.412 421.342C605.863 421.342 641.274 421.342 649.148 407.707C652.093 402.582 650.963 395.414 645.753 386.394C645.233 385.472 645.543 384.299 646.458 383.772C646.763 383.597 647.093 383.514 647.418 383.514C648.083 383.514 648.728 383.859 649.083 384.474C658.123 400.137 664.659 411.454 669.259 411.455C673.858 411.455 680.394 400.137 689.436 384.474C689.791 383.859 690.436 383.514 691.099 383.514C691.424 383.514 691.756 383.597 692.059 383.772C692.974 384.299 693.294 385.472 692.761 386.394C687.159 396.099 685.844 403.652 688.831 408.845C696.046 421.342 727.409 421.342 755.08 421.342C756.14 421.342 757 422.203 757 423.262C757 424.322 756.14 425.182 755.08 425.182C727.409 425.182 696.046 425.182 688.831 437.683C685.836 442.868 687.156 450.428 692.761 460.133C693.289 461.028 692.981 462.213 692.059 462.758C691.756 462.933 691.424 463.013 691.099 463.013C690.436 463.013 689.791 462.668 689.436 462.053C680.394 446.388 673.858 435.073 669.259 435.073C664.659 435.073 658.123 446.388 649.083 462.053C648.728 462.668 648.083 463.013 647.418 463.013C647.093 463.013 646.763 462.933 646.458 462.758C645.538 462.214 645.243 461.028 645.753 460.133C650.969 451.118 652.093 443.938 649.148 438.818C641.273 425.182 605.863 425.182 577.412 425.182C576.352 425.182 575.492 424.322 575.492 423.262Z" fill="#081219"/>
<path d="M331.153 602.086V609.899C331.153 610.533 331.171 611.099 331.209 611.596C331.246 612.093 331.345 612.522 331.507 612.883C331.669 613.231 331.917 613.498 332.253 613.685C332.601 613.871 333.08 613.965 333.689 613.965C334.298 613.965 334.77 613.871 335.106 613.685C335.454 613.498 335.709 613.231 335.871 612.883C336.032 612.522 336.132 612.093 336.169 611.596C336.206 611.099 336.225 610.533 336.225 609.899V602.086H337.791V609.526C337.791 610.496 337.742 611.341 337.642 612.062C337.555 612.783 337.363 613.386 337.064 613.871C336.778 614.356 336.362 614.723 335.815 614.972C335.28 615.208 334.572 615.326 333.689 615.326C332.806 615.326 332.091 615.208 331.544 614.972C331.01 614.723 330.593 614.356 330.295 613.871C330.009 613.386 329.816 612.783 329.717 612.062C329.63 611.341 329.586 610.496 329.586 609.526V602.086H331.153ZM340.097 615.102V613.853H343.341V603.335H340.097V602.086H348.153V603.335H344.908V613.853H348.153V615.102H340.097ZM350.085 618.254V616.874H359.036V618.254H350.085ZM365.779 603.447V615.102H364.213V603.447H359.868V602.086H370.124V603.447H365.779ZM374.648 615.102V609.992L370.154 602.086H371.944L373.809 605.48L375.394 608.445H375.469L377.091 605.48L378.956 602.086H380.709L376.215 609.992V615.102H374.648ZM381.951 615.102V602.086H386.688C387.893 602.086 388.813 602.415 389.447 603.074C390.082 603.733 390.399 604.653 390.399 605.834C390.399 607.015 390.082 607.935 389.447 608.594C388.813 609.253 387.893 609.582 386.688 609.582H383.517V615.102H381.951ZM383.517 608.221H386.65C387.309 608.221 387.819 608.059 388.179 607.736C388.552 607.4 388.739 606.928 388.739 606.319V605.349C388.739 604.74 388.552 604.274 388.179 603.951C387.819 603.615 387.309 603.447 386.65 603.447H383.517V608.221ZM392.387 615.102V602.086H400.405V603.447H393.953V607.829H400.182V609.191H393.953V613.741H400.405V615.102H392.387ZM402.263 618.254V616.874H411.214V618.254H402.263ZM413.146 615.102V613.853H416.391V603.335H413.146V602.086H421.202V603.335H417.957V613.853H421.202V615.102H413.146ZM428.039 615.326C426.447 615.326 425.26 614.748 424.477 613.592C423.706 612.435 423.321 610.769 423.321 608.594C423.321 606.418 423.706 604.752 424.477 603.596C425.26 602.44 426.447 601.862 428.039 601.862C428.635 601.862 429.151 601.943 429.586 602.104C430.021 602.266 430.394 602.484 430.705 602.757C431.016 603.031 431.277 603.341 431.488 603.689C431.7 604.025 431.886 604.367 432.048 604.715L430.705 605.33C430.593 605.045 430.463 604.777 430.314 604.529C430.164 604.268 429.984 604.044 429.773 603.857C429.574 603.658 429.331 603.503 429.046 603.391C428.772 603.279 428.436 603.223 428.039 603.223C427.007 603.223 426.236 603.615 425.726 604.398C425.229 605.181 424.98 606.226 424.98 607.531V609.657C424.98 610.962 425.229 612.006 425.726 612.79C426.236 613.573 427.007 613.965 428.039 613.965C428.436 613.965 428.772 613.909 429.046 613.797C429.331 613.685 429.574 613.536 429.773 613.349C429.984 613.15 430.164 612.926 430.314 612.678C430.463 612.417 430.593 612.143 430.705 611.857L432.048 612.473C431.886 612.833 431.7 613.181 431.488 613.517C431.277 613.853 431.016 614.157 430.705 614.431C430.394 614.704 430.021 614.922 429.586 615.083C429.151 615.245 428.635 615.326 428.039 615.326ZM438.045 615.326C437.25 615.326 436.566 615.177 435.994 614.878C435.422 614.567 434.95 614.126 434.577 613.554C434.204 612.982 433.93 612.28 433.756 611.447C433.582 610.614 433.495 609.663 433.495 608.594C433.495 607.537 433.582 606.592 433.756 605.759C433.93 604.914 434.204 604.205 434.577 603.633C434.95 603.062 435.422 602.626 435.994 602.328C436.566 602.017 437.25 601.862 438.045 601.862C438.841 601.862 439.525 602.017 440.097 602.328C440.668 602.626 441.141 603.062 441.514 603.633C441.887 604.205 442.16 604.914 442.334 605.759C442.508 606.592 442.595 607.537 442.595 608.594C442.595 609.663 442.508 610.614 442.334 611.447C442.16 612.28 441.887 612.982 441.514 613.554C441.141 614.126 440.668 614.567 440.097 614.878C439.525 615.177 438.841 615.326 438.045 615.326ZM438.045 613.965C438.567 613.965 439.009 613.865 439.369 613.666C439.73 613.455 440.028 613.163 440.264 612.79C440.501 612.417 440.668 611.969 440.768 611.447C440.88 610.912 440.936 610.316 440.936 609.657V607.531C440.936 606.884 440.88 606.294 440.768 605.759C440.668 605.225 440.501 604.771 440.264 604.398C440.028 604.025 439.73 603.739 439.369 603.54C439.009 603.329 438.567 603.223 438.045 603.223C437.523 603.223 437.082 603.329 436.721 603.54C436.361 603.739 436.062 604.025 435.826 604.398C435.59 604.771 435.416 605.225 435.304 605.759C435.205 606.294 435.155 606.884 435.155 607.531V609.657C435.155 610.316 435.205 610.912 435.304 611.447C435.416 611.969 435.59 612.417 435.826 612.79C436.062 613.163 436.361 613.455 436.721 613.666C437.082 613.865 437.523 613.965 438.045 613.965ZM445.926 604.137H445.796V615.102H444.378V602.086H446.597L451.036 613.051H451.166V602.086H452.583V615.102H450.364L445.926 604.137ZM458.879 615.326C457.711 615.326 456.753 615.114 456.007 614.692C455.261 614.257 454.646 613.703 454.161 613.032L455.299 612.1C455.808 612.734 456.343 613.206 456.903 613.517C457.474 613.828 458.152 613.983 458.935 613.983C459.88 613.983 460.601 613.766 461.098 613.33C461.596 612.895 461.844 612.286 461.844 611.503C461.844 610.869 461.664 610.378 461.303 610.03C460.943 609.669 460.315 609.414 459.42 609.265L457.965 609.023C457.331 608.911 456.797 608.743 456.362 608.519C455.939 608.296 455.597 608.028 455.336 607.717C455.075 607.394 454.889 607.046 454.777 606.673C454.665 606.288 454.609 605.89 454.609 605.48C454.609 604.286 455 603.385 455.784 602.776C456.567 602.167 457.624 601.862 458.954 601.862C459.998 601.862 460.875 602.036 461.583 602.384C462.304 602.732 462.882 603.223 463.317 603.857L462.217 604.808C461.857 604.336 461.422 603.951 460.912 603.652C460.402 603.354 459.743 603.205 458.935 603.205C458.052 603.205 457.375 603.391 456.903 603.764C456.43 604.137 456.194 604.696 456.194 605.442C456.194 606.027 456.368 606.505 456.716 606.878C457.077 607.239 457.717 607.5 458.637 607.661L460.035 607.904C460.669 608.016 461.204 608.184 461.639 608.407C462.074 608.631 462.422 608.898 462.683 609.209C462.957 609.52 463.15 609.868 463.262 610.254C463.373 610.639 463.429 611.043 463.429 611.466C463.429 612.672 463.032 613.616 462.236 614.3C461.453 614.984 460.334 615.326 458.879 615.326ZM464.877 618.254V616.874H473.828V618.254H464.877ZM475.872 615.102V602.086H480.608C481.814 602.086 482.734 602.415 483.368 603.074C484.002 603.733 484.319 604.653 484.319 605.834C484.319 607.015 484.002 607.935 483.368 608.594C482.734 609.253 481.814 609.582 480.608 609.582H477.438V615.102H475.872ZM477.438 608.221H480.571C481.23 608.221 481.74 608.059 482.1 607.736C482.473 607.4 482.66 606.928 482.66 606.319V605.349C482.66 604.74 482.473 604.274 482.1 603.951C481.74 603.615 481.23 603.447 480.571 603.447H477.438V608.221ZM490.223 615.326C489.428 615.326 488.744 615.177 488.172 614.878C487.6 614.567 487.128 614.126 486.755 613.554C486.382 612.982 486.108 612.28 485.934 611.447C485.76 610.614 485.673 609.663 485.673 608.594C485.673 607.537 485.76 606.592 485.934 605.759C486.108 604.914 486.382 604.205 486.755 603.633C487.128 603.062 487.6 602.626 488.172 602.328C488.744 602.017 489.428 601.862 490.223 601.862C491.019 601.862 491.703 602.017 492.275 602.328C492.847 602.626 493.319 603.062 493.692 603.633C494.065 604.205 494.338 604.914 494.512 605.759C494.687 606.592 494.774 607.537 494.774 608.594C494.774 609.663 494.687 610.614 494.512 611.447C494.338 612.28 494.065 612.982 493.692 613.554C493.319 614.126 492.847 614.567 492.275 614.878C491.703 615.177 491.019 615.326 490.223 615.326ZM490.223 613.965C490.746 613.965 491.187 613.865 491.547 613.666C491.908 613.455 492.206 613.163 492.443 612.79C492.679 612.417 492.847 611.969 492.946 611.447C493.058 610.912 493.114 610.316 493.114 609.657V607.531C493.114 606.884 493.058 606.294 492.946 605.759C492.847 605.225 492.679 604.771 492.443 604.398C492.206 604.025 491.908 603.739 491.547 603.54C491.187 603.329 490.746 603.223 490.223 603.223C489.701 603.223 489.26 603.329 488.899 603.54C488.539 603.739 488.24 604.025 488.004 604.398C487.768 604.771 487.594 605.225 487.482 605.759C487.383 606.294 487.333 606.884 487.333 607.531V609.657C487.333 610.316 487.383 610.912 487.482 611.447C487.594 611.969 487.768 612.417 488.004 612.79C488.24 613.163 488.539 613.455 488.899 613.666C489.26 613.865 489.701 613.965 490.223 613.965ZM500.622 615.326C499.453 615.326 498.496 615.114 497.75 614.692C497.004 614.257 496.389 613.703 495.904 613.032L497.041 612.1C497.551 612.734 498.086 613.206 498.645 613.517C499.217 613.828 499.894 613.983 500.678 613.983C501.623 613.983 502.344 613.766 502.841 613.33C503.338 612.895 503.587 612.286 503.587 611.503C503.587 610.869 503.407 610.378 503.046 610.03C502.685 609.669 502.058 609.414 501.163 609.265L499.708 609.023C499.074 608.911 498.539 608.743 498.104 608.519C497.682 608.296 497.34 608.028 497.079 607.717C496.818 607.394 496.631 607.046 496.519 606.673C496.407 606.288 496.351 605.89 496.351 605.48C496.351 604.286 496.743 603.385 497.526 602.776C498.309 602.167 499.366 601.862 500.696 601.862C501.741 601.862 502.617 602.036 503.326 602.384C504.047 602.732 504.625 603.223 505.06 603.857L503.96 604.808C503.599 604.336 503.164 603.951 502.654 603.652C502.145 603.354 501.486 603.205 500.678 603.205C499.795 603.205 499.117 603.391 498.645 603.764C498.173 604.137 497.936 604.696 497.936 605.442C497.936 606.027 498.11 606.505 498.459 606.878C498.819 607.239 499.459 607.5 500.379 607.661L501.778 607.904C502.412 608.016 502.947 608.184 503.382 608.407C503.817 608.631 504.165 608.898 504.426 609.209C504.699 609.52 504.892 609.868 505.004 610.254C505.116 610.639 505.172 611.043 505.172 611.466C505.172 612.672 504.774 613.616 503.978 614.3C503.195 614.984 502.076 615.326 500.622 615.326ZM511.878 603.447V615.102H510.311V603.447H505.966V602.086H516.223V603.447H511.878ZM517.614 615.102V602.086H525.633V603.447H519.181V607.829H525.409V609.191H519.181V613.741H525.633V615.102H517.614ZM529.616 615.102H528.05V602.086H532.786C533.992 602.086 534.912 602.415 535.546 603.074C536.18 603.733 536.497 604.653 536.497 605.834C536.497 606.891 536.224 607.736 535.677 608.37C535.13 609.004 534.334 609.371 533.29 609.47L536.609 615.102H534.856L531.686 609.545H529.616V615.102ZM532.749 608.221C533.408 608.221 533.918 608.059 534.278 607.736C534.651 607.4 534.838 606.928 534.838 606.319V605.349C534.838 604.74 534.651 604.274 534.278 603.951C533.918 603.615 533.408 603.447 532.749 603.447H529.616V608.221H532.749ZM542.364 615.326C541.196 615.326 540.238 615.114 539.492 614.692C538.747 614.257 538.131 613.703 537.646 613.032L538.784 612.1C539.294 612.734 539.828 613.206 540.388 613.517C540.959 613.828 541.637 613.983 542.42 613.983C543.365 613.983 544.086 613.766 544.583 613.33C545.081 612.895 545.329 612.286 545.329 611.503C545.329 610.869 545.149 610.378 544.789 610.03C544.428 609.669 543.8 609.414 542.905 609.265L541.451 609.023C540.816 608.911 540.282 608.743 539.847 608.519C539.424 608.296 539.082 608.028 538.821 607.717C538.56 607.394 538.374 607.046 538.262 606.673C538.15 606.288 538.094 605.89 538.094 605.48C538.094 604.286 538.485 603.385 539.269 602.776C540.052 602.167 541.109 601.862 542.439 601.862C543.483 601.862 544.36 602.036 545.068 602.384C545.789 602.732 546.367 603.223 546.803 603.857L545.702 604.808C545.342 604.336 544.907 603.951 544.397 603.652C543.887 603.354 543.228 603.205 542.42 603.205C541.538 603.205 540.86 603.391 540.388 603.764C539.915 604.137 539.679 604.696 539.679 605.442C539.679 606.027 539.853 606.505 540.201 606.878C540.562 607.239 541.202 607.5 542.122 607.661L543.52 607.904C544.154 608.016 544.689 608.184 545.124 608.407C545.559 608.631 545.907 608.898 546.168 609.209C546.442 609.52 546.635 609.868 546.747 610.254C546.858 610.639 546.914 611.043 546.914 611.466C546.914 612.672 546.517 613.616 545.721 614.3C544.938 614.984 543.819 615.326 542.364 615.326ZM333.652 639.326C332.483 639.326 331.526 639.114 330.78 638.692C330.034 638.257 329.418 637.703 328.934 637.032L330.071 636.1C330.581 636.734 331.115 637.206 331.675 637.517C332.247 637.828 332.924 637.983 333.708 637.983C334.652 637.983 335.373 637.766 335.871 637.33C336.368 636.895 336.617 636.286 336.617 635.503C336.617 634.869 336.436 634.378 336.076 634.03C335.715 633.669 335.088 633.414 334.192 633.265L332.738 633.023C332.104 632.911 331.569 632.743 331.134 632.519C330.711 632.296 330.37 632.028 330.108 631.717C329.847 631.394 329.661 631.046 329.549 630.673C329.437 630.288 329.381 629.89 329.381 629.48C329.381 628.286 329.773 627.385 330.556 626.776C331.339 626.167 332.396 625.862 333.726 625.862C334.77 625.862 335.647 626.036 336.356 626.384C337.077 626.732 337.655 627.223 338.09 627.857L336.99 628.808C336.629 628.336 336.194 627.951 335.684 627.652C335.175 627.354 334.516 627.205 333.708 627.205C332.825 627.205 332.147 627.391 331.675 627.764C331.202 628.137 330.966 628.696 330.966 629.442C330.966 630.027 331.14 630.505 331.488 630.878C331.849 631.239 332.489 631.5 333.409 631.661L334.808 631.904C335.442 632.016 335.976 632.184 336.412 632.407C336.847 632.631 337.195 632.898 337.456 633.209C337.729 633.52 337.922 633.868 338.034 634.254C338.146 634.639 338.202 635.043 338.202 635.466C338.202 636.672 337.804 637.616 337.008 638.3C336.225 638.984 335.106 639.326 333.652 639.326ZM343.341 639.102V633.992L338.847 626.086H340.637L342.502 629.48L344.087 632.445H344.162L345.784 629.48L347.649 626.086H349.402L344.908 633.992V639.102H343.341ZM354.523 639.326C353.354 639.326 352.397 639.114 351.651 638.692C350.905 638.257 350.29 637.703 349.805 637.032L350.942 636.1C351.452 636.734 351.987 637.206 352.546 637.517C353.118 637.828 353.796 637.983 354.579 637.983C355.524 637.983 356.245 637.766 356.742 637.33C357.239 636.895 357.488 636.286 357.488 635.503C357.488 634.869 357.308 634.378 356.947 634.03C356.587 633.669 355.959 633.414 355.064 633.265L353.609 633.023C352.975 632.911 352.441 632.743 352.005 632.519C351.583 632.296 351.241 632.028 350.98 631.717C350.719 631.394 350.532 631.046 350.42 630.673C350.308 630.288 350.252 629.89 350.252 629.48C350.252 628.286 350.644 627.385 351.427 626.776C352.211 626.167 353.267 625.862 354.597 625.862C355.642 625.862 356.518 626.036 357.227 626.384C357.948 626.732 358.526 627.223 358.961 627.857L357.861 628.808C357.5 628.336 357.065 627.951 356.556 627.652C356.046 627.354 355.387 627.205 354.579 627.205C353.696 627.205 353.019 627.391 352.546 627.764C352.074 628.137 351.838 628.696 351.838 629.442C351.838 630.027 352.012 630.505 352.36 630.878C352.72 631.239 353.36 631.5 354.28 631.661L355.679 631.904C356.313 632.016 356.848 632.184 357.283 632.407C357.718 632.631 358.066 632.898 358.327 633.209C358.601 633.52 358.793 633.868 358.905 634.254C359.017 634.639 359.073 635.043 359.073 635.466C359.073 636.672 358.675 637.616 357.88 638.3C357.096 638.984 355.977 639.326 354.523 639.326ZM365.779 627.447V639.102H364.213V627.447H359.868V626.086H370.124V627.447H365.779ZM371.515 639.102V626.086H379.534V627.447H373.082V631.829H379.31V633.191H373.082V637.741H379.534V639.102H371.515ZM388.758 632.575V628.454H388.608L385.867 635.149L383.126 628.454H382.977V632.575V639.102H381.541V626.086H383.555L385.848 631.829H385.96L388.254 626.086H390.193V639.102H388.758V632.575ZM396.265 639.326C395.097 639.326 394.14 639.114 393.394 638.692C392.648 638.257 392.032 637.703 391.547 637.032L392.685 636.1C393.195 636.734 393.729 637.206 394.289 637.517C394.861 637.828 395.538 637.983 396.321 637.983C397.266 637.983 397.987 637.766 398.485 637.33C398.982 636.895 399.23 636.286 399.23 635.503C399.23 634.869 399.05 634.378 398.69 634.03C398.329 633.669 397.701 633.414 396.806 633.265L395.352 633.023C394.718 632.911 394.183 632.743 393.748 632.519C393.325 632.296 392.983 632.028 392.722 631.717C392.461 631.394 392.275 631.046 392.163 630.673C392.051 630.288 391.995 629.89 391.995 629.48C391.995 628.286 392.387 627.385 393.17 626.776C393.953 626.167 395.01 625.862 396.34 625.862C397.384 625.862 398.261 626.036 398.969 626.384C399.69 626.732 400.269 627.223 400.704 627.857L399.603 628.808C399.243 628.336 398.808 627.951 398.298 627.652C397.788 627.354 397.129 627.205 396.321 627.205C395.439 627.205 394.761 627.391 394.289 627.764C393.816 628.137 393.58 628.696 393.58 629.442C393.58 630.027 393.754 630.505 394.102 630.878C394.463 631.239 395.103 631.5 396.023 631.661L397.422 631.904C398.056 632.016 398.59 632.184 399.025 632.407C399.46 632.631 399.809 632.898 400.07 633.209C400.343 633.52 400.536 633.868 400.648 634.254C400.76 634.639 400.816 635.043 400.816 635.466C400.816 636.672 400.418 637.616 399.622 638.3C398.839 638.984 397.72 639.326 396.265 639.326ZM402.263 642.254V640.874H411.214V642.254H402.263ZM413.817 639.102V626.086H415.384V637.741H421.556V639.102H413.817ZM427.61 639.326C426.814 639.326 426.13 639.177 425.558 638.878C424.986 638.567 424.514 638.126 424.141 637.554C423.768 636.982 423.495 636.28 423.321 635.447C423.146 634.614 423.059 633.663 423.059 632.594C423.059 631.537 423.146 630.592 423.321 629.759C423.495 628.914 423.768 628.205 424.141 627.633C424.514 627.062 424.986 626.626 425.558 626.328C426.13 626.017 426.814 625.862 427.61 625.862C428.405 625.862 429.089 626.017 429.661 626.328C430.233 626.626 430.705 627.062 431.078 627.633C431.451 628.205 431.725 628.914 431.899 629.759C432.073 630.592 432.16 631.537 432.16 632.594C432.16 633.663 432.073 634.614 431.899 635.447C431.725 636.28 431.451 636.982 431.078 637.554C430.705 638.126 430.233 638.567 429.661 638.878C429.089 639.177 428.405 639.326 427.61 639.326ZM427.61 637.965C428.132 637.965 428.573 637.865 428.934 637.666C429.294 637.455 429.593 637.163 429.829 636.79C430.065 636.417 430.233 635.969 430.332 635.447C430.444 634.912 430.5 634.316 430.5 633.657V631.531C430.5 630.884 430.444 630.294 430.332 629.759C430.233 629.225 430.065 628.771 429.829 628.398C429.593 628.025 429.294 627.739 428.934 627.54C428.573 627.329 428.132 627.223 427.61 627.223C427.087 627.223 426.646 627.329 426.286 627.54C425.925 627.739 425.627 628.025 425.39 628.398C425.154 628.771 424.98 629.225 424.868 629.759C424.769 630.294 424.719 630.884 424.719 631.531V633.657C424.719 634.316 424.769 634.912 424.868 635.447C424.98 635.969 425.154 636.417 425.39 636.79C425.627 637.163 425.925 637.455 426.286 637.666C426.646 637.865 427.087 637.965 427.61 637.965ZM440.731 637.368H440.637C440.525 637.616 440.395 637.859 440.246 638.095C440.097 638.331 439.904 638.543 439.668 638.729C439.444 638.903 439.17 639.046 438.847 639.158C438.524 639.27 438.138 639.326 437.691 639.326C436.274 639.326 435.217 638.754 434.521 637.61C433.837 636.466 433.495 634.825 433.495 632.687C433.495 630.449 433.874 628.752 434.633 627.596C435.391 626.44 436.56 625.862 438.138 625.862C438.748 625.862 439.276 625.943 439.724 626.104C440.171 626.266 440.55 626.484 440.861 626.757C441.184 627.031 441.452 627.341 441.663 627.689C441.874 628.025 442.048 628.367 442.185 628.715L440.842 629.33C440.731 629.045 440.6 628.777 440.451 628.529C440.314 628.268 440.14 628.044 439.929 627.857C439.73 627.658 439.487 627.503 439.201 627.391C438.915 627.279 438.58 627.223 438.194 627.223C437.15 627.223 436.379 627.615 435.882 628.398C435.397 629.181 435.155 630.226 435.155 631.531V633.545C435.155 634.204 435.205 634.807 435.304 635.354C435.403 635.888 435.565 636.355 435.789 636.752C436.025 637.15 436.323 637.461 436.684 637.685C437.057 637.896 437.511 638.002 438.045 638.002C438.891 638.002 439.55 637.747 440.022 637.237C440.494 636.728 440.731 636.069 440.731 635.261V633.918H437.989V632.668H442.185V639.102H440.731V637.368ZM448.481 639.326C447.685 639.326 447.001 639.177 446.43 638.878C445.858 638.567 445.385 638.126 445.012 637.554C444.639 636.982 444.366 636.28 444.192 635.447C444.018 634.614 443.931 633.663 443.931 632.594C443.931 631.537 444.018 630.592 444.192 629.759C444.366 628.914 444.639 628.205 445.012 627.633C445.385 627.062 445.858 626.626 446.43 626.328C447.001 626.017 447.685 625.862 448.481 625.862C449.277 625.862 449.96 626.017 450.532 626.328C451.104 626.626 451.576 627.062 451.949 627.633C452.322 628.205 452.596 628.914 452.77 629.759C452.944 630.592 453.031 631.537 453.031 632.594C453.031 633.663 452.944 634.614 452.77 635.447C452.596 636.28 452.322 636.982 451.949 637.554C451.576 638.126 451.104 638.567 450.532 638.878C449.96 639.177 449.277 639.326 448.481 639.326ZM448.481 637.965C449.003 637.965 449.444 637.865 449.805 637.666C450.165 637.455 450.464 637.163 450.7 636.79C450.936 636.417 451.104 635.969 451.203 635.447C451.315 634.912 451.371 634.316 451.371 633.657V631.531C451.371 630.884 451.315 630.294 451.203 629.759C451.104 629.225 450.936 628.771 450.7 628.398C450.464 628.025 450.165 627.739 449.805 627.54C449.444 627.329 449.003 627.223 448.481 627.223C447.959 627.223 447.517 627.329 447.157 627.54C446.796 627.739 446.498 628.025 446.262 628.398C446.026 628.771 445.851 629.225 445.74 629.759C445.64 630.294 445.59 630.884 445.59 631.531V633.657C445.59 634.316 445.64 634.912 445.74 635.447C445.851 635.969 446.026 636.417 446.262 636.79C446.498 637.163 446.796 637.455 447.157 637.666C447.517 637.865 447.959 637.965 448.481 637.965ZM458.879 639.326C457.711 639.326 456.753 639.114 456.007 638.692C455.261 638.257 454.646 637.703 454.161 637.032L455.299 636.1C455.808 636.734 456.343 637.206 456.903 637.517C457.474 637.828 458.152 637.983 458.935 637.983C459.88 637.983 460.601 637.766 461.098 637.33C461.596 636.895 461.844 636.286 461.844 635.503C461.844 634.869 461.664 634.378 461.303 634.03C460.943 633.669 460.315 633.414 459.42 633.265L457.965 633.023C457.331 632.911 456.797 632.743 456.362 632.519C455.939 632.296 455.597 632.028 455.336 631.717C455.075 631.394 454.889 631.046 454.777 630.673C454.665 630.288 454.609 629.89 454.609 629.48C454.609 628.286 455 627.385 455.784 626.776C456.567 626.167 457.624 625.862 458.954 625.862C459.998 625.862 460.875 626.036 461.583 626.384C462.304 626.732 462.882 627.223 463.317 627.857L462.217 628.808C461.857 628.336 461.422 627.951 460.912 627.652C460.402 627.354 459.743 627.205 458.935 627.205C458.052 627.205 457.375 627.391 456.903 627.764C456.43 628.137 456.194 628.696 456.194 629.442C456.194 630.027 456.368 630.505 456.716 630.878C457.077 631.239 457.717 631.5 458.637 631.661L460.035 631.904C460.669 632.016 461.204 632.184 461.639 632.407C462.074 632.631 462.422 632.898 462.683 633.209C462.957 633.52 463.15 633.868 463.262 634.254C463.373 634.639 463.429 635.043 463.429 635.466C463.429 636.672 463.032 637.616 462.236 638.3C461.453 638.984 460.334 639.326 458.879 639.326ZM464.877 642.254V640.874H473.828V642.254H464.877ZM338.108 687.102H329.418V685.498L333.763 681.582C334.398 681.01 334.92 680.426 335.33 679.829C335.74 679.22 335.945 678.58 335.945 677.909V677.685C335.945 676.902 335.74 676.299 335.33 675.876C334.92 675.441 334.311 675.223 333.502 675.223C332.707 675.223 332.091 675.428 331.656 675.839C331.234 676.236 330.917 676.771 330.705 677.442L329.307 676.92C329.431 676.535 329.599 676.162 329.81 675.801C330.034 675.428 330.314 675.099 330.649 674.813C330.985 674.527 331.389 674.297 331.861 674.123C332.346 673.949 332.906 673.862 333.54 673.862C334.186 673.862 334.758 673.955 335.255 674.142C335.765 674.328 336.188 674.589 336.523 674.925C336.872 675.261 337.133 675.658 337.307 676.118C337.493 676.578 337.586 677.082 337.586 677.629C337.586 678.126 337.512 678.592 337.363 679.027C337.226 679.463 337.027 679.879 336.766 680.277C336.517 680.675 336.213 681.066 335.852 681.452C335.504 681.825 335.112 682.198 334.677 682.571L331.041 685.741H338.108V687.102ZM344.125 687.326C343.329 687.326 342.645 687.177 342.073 686.878C341.501 686.567 341.029 686.126 340.656 685.554C340.283 684.982 340.01 684.28 339.835 683.447C339.661 682.614 339.574 681.663 339.574 680.594C339.574 679.537 339.661 678.592 339.835 677.759C340.01 676.914 340.283 676.205 340.656 675.633C341.029 675.062 341.501 674.626 342.073 674.328C342.645 674.017 343.329 673.862 344.125 673.862C344.92 673.862 345.604 674.017 346.176 674.328C346.748 674.626 347.22 675.062 347.593 675.633C347.966 676.205 348.24 676.914 348.414 677.759C348.588 678.592 348.675 679.537 348.675 680.594C348.675 681.663 348.588 682.614 348.414 683.447C348.24 684.28 347.966 684.982 347.593 685.554C347.22 686.126 346.748 686.567 346.176 686.878C345.604 687.177 344.92 687.326 344.125 687.326ZM344.125 685.965C344.647 685.965 345.094 685.865 345.467 685.666C345.84 685.455 346.139 685.163 346.362 684.79C346.599 684.417 346.773 683.969 346.884 683.447C346.996 682.912 347.052 682.316 347.052 681.657V679.531C347.052 678.884 346.996 678.294 346.884 677.759C346.773 677.225 346.599 676.771 346.362 676.398C346.139 676.025 345.84 675.739 345.467 675.54C345.094 675.329 344.647 675.223 344.125 675.223C343.602 675.223 343.155 675.329 342.782 675.54C342.409 675.739 342.104 676.025 341.868 676.398C341.644 676.771 341.477 677.225 341.365 677.759C341.253 678.294 341.197 678.884 341.197 679.531V681.657C341.197 682.316 341.253 682.912 341.365 683.447C341.477 683.969 341.644 684.417 341.868 684.79C342.104 685.163 342.409 685.455 342.782 685.666C343.155 685.865 343.602 685.965 344.125 685.965ZM344.125 681.694C343.689 681.694 343.385 681.607 343.211 681.433C343.049 681.259 342.968 681.048 342.968 680.799V680.389C342.968 680.14 343.049 679.929 343.211 679.755C343.385 679.581 343.689 679.494 344.125 679.494C344.56 679.494 344.858 679.581 345.02 679.755C345.194 679.929 345.281 680.14 345.281 680.389V680.799C345.281 681.048 345.194 681.259 345.02 681.433C344.858 681.607 344.56 681.694 344.125 681.694ZM358.98 687.102H350.29V685.498L354.635 681.582C355.269 681.01 355.791 680.426 356.201 679.829C356.611 679.22 356.817 678.58 356.817 677.909V677.685C356.817 676.902 356.611 676.299 356.201 675.876C355.791 675.441 355.182 675.223 354.374 675.223C353.578 675.223 352.963 675.428 352.528 675.839C352.105 676.236 351.788 676.771 351.576 677.442L350.178 676.92C350.302 676.535 350.47 676.162 350.681 675.801C350.905 675.428 351.185 675.099 351.521 674.813C351.856 674.527 352.26 674.297 352.733 674.123C353.218 673.949 353.777 673.862 354.411 673.862C355.057 673.862 355.629 673.955 356.127 674.142C356.636 674.328 357.059 674.589 357.395 674.925C357.743 675.261 358.004 675.658 358.178 676.118C358.364 676.578 358.458 677.082 358.458 677.629C358.458 678.126 358.383 678.592 358.234 679.027C358.097 679.463 357.898 679.879 357.637 680.277C357.388 680.675 357.084 681.066 356.723 681.452C356.375 681.825 355.984 682.198 355.549 682.571L351.912 685.741H358.98V687.102ZM365.014 687.326C364.331 687.326 363.715 687.214 363.168 686.99C362.621 686.754 362.155 686.425 361.77 686.002C361.397 685.567 361.105 685.038 360.893 684.417C360.694 683.795 360.595 683.099 360.595 682.328C360.595 681.358 360.738 680.451 361.024 679.606C361.322 678.748 361.695 677.971 362.143 677.275C362.603 676.566 363.112 675.944 363.672 675.41C364.231 674.863 364.778 674.421 365.313 674.086H367.327C366.618 674.595 365.984 675.093 365.425 675.578C364.878 676.062 364.393 676.572 363.97 677.107C363.547 677.629 363.193 678.194 362.907 678.804C362.621 679.4 362.385 680.078 362.199 680.836L362.292 680.874C362.603 680.339 363.013 679.898 363.523 679.55C364.032 679.189 364.691 679.009 365.499 679.009C366.071 679.009 366.593 679.102 367.066 679.289C367.538 679.475 367.948 679.742 368.297 680.09C368.645 680.438 368.912 680.861 369.098 681.358C369.297 681.856 369.397 682.409 369.397 683.018C369.397 683.652 369.291 684.236 369.08 684.771C368.868 685.293 368.57 685.747 368.185 686.132C367.812 686.505 367.352 686.797 366.805 687.009C366.27 687.22 365.673 687.326 365.014 687.326ZM364.996 686.002C365.891 686.002 366.581 685.759 367.066 685.275C367.563 684.79 367.812 684.106 367.812 683.223V683.074C367.812 682.191 367.563 681.508 367.066 681.023C366.581 680.538 365.891 680.296 364.996 680.296C364.101 680.296 363.405 680.538 362.907 681.023C362.422 681.508 362.18 682.191 362.18 683.074V683.223C362.18 684.106 362.422 684.79 362.907 685.275C363.405 685.759 364.101 686.002 364.996 686.002Z" fill="black"/>
<path d="M566.168 689.918C565.41 689.918 564.745 689.825 564.173 689.638C563.601 689.439 563.122 689.172 562.737 688.837C562.364 688.501 562.078 688.103 561.879 687.643C561.693 687.183 561.599 686.686 561.599 686.151C561.599 685.256 561.842 684.547 562.327 684.025C562.811 683.503 563.452 683.136 564.247 682.925V682.776C563.551 682.54 562.998 682.161 562.588 681.638C562.19 681.104 561.991 680.464 561.991 679.718C561.991 678.723 562.358 677.934 563.091 677.349C563.825 676.753 564.85 676.454 566.168 676.454C567.486 676.454 568.512 676.753 569.245 677.349C569.979 677.934 570.345 678.723 570.345 679.718C570.345 680.464 570.14 681.104 569.73 681.638C569.332 682.161 568.785 682.54 568.089 682.776V682.925C568.885 683.136 569.525 683.503 570.01 684.025C570.495 684.547 570.737 685.256 570.737 686.151C570.737 686.686 570.637 687.183 570.439 687.643C570.252 688.103 569.966 688.501 569.581 688.837C569.195 689.172 568.717 689.439 568.145 689.638C567.585 689.825 566.927 689.918 566.168 689.918ZM566.168 688.594C567.088 688.594 567.809 688.389 568.331 687.979C568.853 687.568 569.115 686.99 569.115 686.244V685.834C569.115 685.088 568.853 684.51 568.331 684.1C567.822 683.69 567.101 683.485 566.168 683.485C565.236 683.485 564.508 683.69 563.986 684.1C563.477 684.51 563.222 685.088 563.222 685.834V686.244C563.222 686.99 563.483 687.568 564.005 687.979C564.527 688.389 565.248 688.594 566.168 688.594ZM566.168 682.216C567.014 682.216 567.654 682.036 568.089 681.676C568.536 681.315 568.76 680.799 568.76 680.128V679.867C568.76 679.195 568.53 678.68 568.07 678.319C567.623 677.958 566.989 677.778 566.168 677.778C565.348 677.778 564.707 677.958 564.247 678.319C563.8 678.68 563.576 679.195 563.576 679.867V680.128C563.576 680.799 563.794 681.315 564.229 681.676C564.676 682.036 565.323 682.216 566.168 682.216ZM576.604 689.918C575.808 689.918 575.124 689.769 574.552 689.471C573.981 689.16 573.508 688.718 573.135 688.147C572.762 687.575 572.489 686.872 572.315 686.039C572.141 685.206 572.054 684.255 572.054 683.186C572.054 682.129 572.141 681.185 572.315 680.352C572.489 679.506 572.762 678.798 573.135 678.226C573.508 677.654 573.981 677.219 574.552 676.92C575.124 676.61 575.808 676.454 576.604 676.454C577.399 676.454 578.083 676.61 578.655 676.92C579.227 677.219 579.699 677.654 580.072 678.226C580.445 678.798 580.719 679.506 580.893 680.352C581.067 681.185 581.154 682.129 581.154 683.186C581.154 684.255 581.067 685.206 580.893 686.039C580.719 686.872 580.445 687.575 580.072 688.147C579.699 688.718 579.227 689.16 578.655 689.471C578.083 689.769 577.399 689.918 576.604 689.918ZM576.604 688.557C577.126 688.557 577.573 688.457 577.946 688.258C578.319 688.047 578.618 687.755 578.842 687.382C579.078 687.009 579.252 686.561 579.364 686.039C579.476 685.505 579.532 684.908 579.532 684.249V682.123C579.532 681.477 579.476 680.886 579.364 680.352C579.252 679.817 579.078 679.363 578.842 678.99C578.618 678.617 578.319 678.331 577.946 678.133C577.573 677.921 577.126 677.816 576.604 677.816C576.082 677.816 575.634 677.921 575.261 678.133C574.888 678.331 574.584 678.617 574.347 678.99C574.124 679.363 573.956 679.817 573.844 680.352C573.732 680.886 573.676 681.477 573.676 682.123V684.249C573.676 684.908 573.732 685.505 573.844 686.039C573.956 686.561 574.124 687.009 574.347 687.382C574.584 687.755 574.888 688.047 575.261 688.258C575.634 688.457 576.082 688.557 576.604 688.557ZM576.604 684.286C576.169 684.286 575.864 684.199 575.69 684.025C575.528 683.851 575.448 683.64 575.448 683.391V682.981C575.448 682.732 575.528 682.521 575.69 682.347C575.864 682.173 576.169 682.086 576.604 682.086C577.039 682.086 577.337 682.173 577.499 682.347C577.673 682.521 577.76 682.732 577.76 682.981V683.391C577.76 683.64 577.673 683.851 577.499 684.025C577.337 684.199 577.039 684.286 576.604 684.286ZM584.597 683.056C583.776 683.056 583.105 682.782 582.583 682.235C582.073 681.676 581.818 680.849 581.818 679.755C581.818 678.661 582.073 677.84 582.583 677.293C583.105 676.734 583.776 676.454 584.597 676.454C585.417 676.454 586.082 676.734 586.592 677.293C587.114 677.84 587.375 678.661 587.375 679.755C587.375 680.849 587.114 681.676 586.592 682.235C586.082 682.782 585.417 683.056 584.597 683.056ZM584.597 682.049C585.044 682.049 585.405 681.893 585.678 681.582C585.964 681.272 586.107 680.818 586.107 680.221V679.289C586.107 678.692 585.964 678.238 585.678 677.927C585.405 677.617 585.044 677.461 584.597 677.461C584.149 677.461 583.782 677.617 583.496 677.927C583.223 678.238 583.086 678.692 583.086 679.289V680.221C583.086 680.818 583.223 681.272 583.496 681.582C583.782 681.893 584.149 682.049 584.597 682.049ZM590.956 676.678H592.298L589.314 682.272H587.972L590.956 676.678ZM584.764 684.1H586.107L583.123 689.694H581.781L584.764 684.1ZM589.482 689.918C588.662 689.918 587.99 689.645 587.468 689.098C586.959 688.538 586.704 687.711 586.704 686.617C586.704 685.523 586.959 684.703 587.468 684.156C587.99 683.596 588.662 683.317 589.482 683.317C590.303 683.317 590.968 683.596 591.478 684.156C592 684.703 592.261 685.523 592.261 686.617C592.261 687.711 592 688.538 591.478 689.098C590.968 689.645 590.303 689.918 589.482 689.918ZM589.482 688.911C589.93 688.911 590.29 688.756 590.564 688.445C590.85 688.134 590.993 687.68 590.993 687.084V686.151C590.993 685.554 590.85 685.101 590.564 684.79C590.29 684.479 589.93 684.324 589.482 684.324C589.035 684.324 588.668 684.479 588.382 684.79C588.109 685.101 587.972 685.554 587.972 686.151V687.084C587.972 687.68 588.109 688.134 588.382 688.445C588.668 688.756 589.035 688.911 589.482 688.911ZM610.447 683.783H605.375V689.694H603.808V676.678H605.375V682.422H610.447V676.678H612.013V689.694H610.447V683.783ZM615.81 676.678V684.492C615.81 685.126 615.829 685.691 615.866 686.188C615.903 686.686 616.003 687.115 616.164 687.475C616.326 687.823 616.575 688.091 616.91 688.277C617.259 688.464 617.737 688.557 618.346 688.557C618.955 688.557 619.428 688.464 619.764 688.277C620.112 688.091 620.367 687.823 620.528 687.475C620.69 687.115 620.789 686.686 620.827 686.188C620.864 685.691 620.882 685.126 620.882 684.492V676.678H622.449V684.119C622.449 685.088 622.399 685.934 622.3 686.655C622.213 687.376 622.02 687.979 621.722 688.464C621.436 688.948 621.019 689.315 620.472 689.564C619.938 689.8 619.229 689.918 618.346 689.918C617.464 689.918 616.749 689.8 616.202 689.564C615.667 689.315 615.251 688.948 614.952 688.464C614.666 687.979 614.474 687.376 614.374 686.655C614.287 685.934 614.244 685.088 614.244 684.119V676.678H615.81ZM631.672 683.168V679.046H631.523L628.782 685.741L626.041 679.046H625.892V683.168V689.694H624.456V676.678H626.47L628.763 682.422H628.875L631.169 676.678H633.108V689.694H631.672V683.168ZM642.593 689.694L641.493 685.983H636.924L635.824 689.694H634.201L638.192 676.678H640.262L644.253 689.694H642.593ZM639.292 678.338H639.124L637.297 684.622H641.12L639.292 678.338ZM647.098 678.729H646.968V689.694H645.551V676.678H647.77L652.208 687.643H652.339V676.678H653.756V689.694H651.537L647.098 678.729ZM657.385 684.809V683.242H662.793V684.809H657.385ZM673.415 683.168V679.046H673.266L670.524 685.741L667.783 679.046H667.634V683.168V689.694H666.198V676.678H668.212L670.506 682.422H670.618L672.911 676.678H674.851V689.694H673.415V683.168ZM684.335 689.694L683.235 685.983H678.666L677.566 689.694H675.944L679.934 676.678H682.004L685.995 689.694H684.335ZM681.035 678.338H680.867L679.039 684.622H682.862L681.035 678.338ZM687.573 676.678H691.209C692.801 676.678 693.988 677.225 694.771 678.319C695.554 679.413 695.946 681.035 695.946 683.186C695.946 685.337 695.554 686.959 694.771 688.053C693.988 689.147 692.801 689.694 691.209 689.694H687.573V676.678ZM691.135 688.333C692.179 688.333 692.962 687.972 693.484 687.251C694.019 686.53 694.286 685.511 694.286 684.193V682.179C694.286 680.861 694.019 679.842 693.484 679.121C692.962 678.4 692.179 678.039 691.135 678.039H689.139V688.333H691.135ZM697.915 689.694V676.678H705.934V678.039H699.482V682.422H705.71V683.783H699.482V688.333H705.934V689.694H697.915Z" fill="black"/>
</svg>
